{"glyphs":{"0":{"ha":895,"x_min":73,"x_max":877,"o":"m 399 -11 q 211 45 288 -11 q 103 205 134 102 q 102 449 73 308 l 125 564 q 212 804 153 704 q 357 958 271 904 q 551 1011 444 1011 q 739 955 663 1011 q 846 796 816 899 q 848 551 877 693 l 825 436 q 672 107 783 226 q 399 -11 561 -11 m 401 100 q 534 139 475 100 q 635 253 593 178 q 699 432 677 328 l 729 579 q 734 751 750 679 q 670 861 718 823 q 549 900 623 900 q 417 861 476 900 q 315 747 357 821 q 252 568 273 673 l 221 421 q 217 250 201 321 q 280 139 233 178 q 401 100 328 100 z "},"1":{"ha":539,"x_min":165,"x_max":539,"o":"m 215 0 l 392 886 l 412 842 l 165 742 l 192 876 l 493 1000 l 539 1000 l 339 0 l 215 0 z "},"2":{"ha":789,"x_min":8,"x_max":764,"o":"m 8 0 l 14 36 l 366 401 q 454 489 407 444 q 544 580 502 534 q 613 672 586 626 q 640 764 640 719 q 597 860 640 820 q 480 900 555 900 q 377 874 422 900 q 302 804 331 848 q 267 703 274 759 l 144 715 q 200 867 155 800 q 318 972 245 934 q 485 1011 391 1011 q 628 982 565 1011 q 727 900 691 953 q 764 774 764 846 q 736 655 764 711 q 665 548 709 600 q 567 445 621 496 q 460 339 513 393 l 236 110 l 232 106 l 387 111 l 665 111 l 644 0 l 8 0 z "},"3":{"ha":781,"x_min":31,"x_max":736,"o":"m 345 -11 q 180 28 253 -11 q 69 133 106 66 q 46 283 31 200 l 164 279 q 183 183 159 223 q 250 121 206 142 q 349 100 293 100 q 465 128 414 100 q 543 204 515 156 q 571 309 571 252 q 544 404 571 370 q 479 452 516 437 q 409 469 441 466 q 367 472 377 472 l 330 472 l 351 578 l 400 578 q 505 606 457 578 q 582 679 553 633 q 611 774 611 724 q 572 866 611 832 q 467 900 533 900 q 376 880 416 900 q 313 825 337 860 q 283 745 289 790 l 160 750 q 217 890 173 831 q 327 980 261 948 q 471 1011 393 1011 q 609 982 549 1011 q 703 902 669 953 q 736 785 736 850 q 712 679 736 730 q 646 589 688 628 q 551 528 604 549 q 441 509 498 506 l 443 539 q 577 510 522 541 q 662 425 633 479 q 692 302 692 370 q 645 142 692 214 q 518 30 597 71 q 345 -11 439 -11 z "},"4":{"ha":806,"x_min":17,"x_max":772,"o":"m 450 0 l 575 623 l 618 803 l 612 803 l 507 672 l 203 330 l 201 325 l 765 325 l 745 220 l 17 220 l 31 289 l 667 1000 l 772 1000 l 572 0 l 450 0 z "},"5":{"ha":794,"x_min":54,"x_max":789,"o":"m 368 -11 q 217 21 283 -11 q 109 104 151 53 q 54 214 67 155 l 171 253 q 208 178 182 213 q 274 121 233 142 q 370 100 315 100 q 491 133 438 100 q 575 222 545 167 q 606 341 606 277 q 561 469 606 415 q 418 524 515 524 q 311 503 358 524 q 235 452 264 481 l 158 488 l 269 1000 l 789 1000 l 764 889 l 371 889 l 292 524 l 261 571 q 341 615 291 598 q 452 632 391 632 q 606 593 545 632 q 699 491 668 555 q 730 349 730 427 q 683 167 730 249 q 554 37 636 85 q 368 -11 473 -11 z "},"6":{"ha":789,"x_min":52,"x_max":719,"o":"m 358 -11 q 196 28 265 -11 q 90 133 127 67 q 52 281 52 199 q 76 405 52 350 q 135 508 99 460 q 207 600 170 556 l 536 1000 l 686 1000 l 347 590 l 311 585 q 367 617 337 606 q 440 629 397 629 q 579 594 516 629 q 681 493 642 558 q 719 340 719 429 q 671 163 719 243 q 543 36 624 83 q 358 -11 461 -11 m 359 100 q 483 132 429 100 q 568 219 536 165 q 599 338 599 273 q 579 429 599 387 q 520 496 560 471 q 416 522 479 522 q 289 490 345 522 q 201 404 233 458 q 169 285 169 350 q 192 190 169 232 q 257 124 214 148 q 359 100 300 100 z "},"7":{"ha":728,"x_min":122,"x_max":815,"o":"m 122 0 l 671 950 l 700 889 l 134 889 l 155 1000 l 815 1000 l 810 968 l 252 0 l 122 0 z "},"8":{"ha":828,"x_min":55,"x_max":768,"o":"m 371 -11 q 208 23 279 -11 q 96 116 137 57 q 55 250 55 175 q 86 374 55 317 q 172 476 118 432 q 297 545 227 520 q 444 570 367 570 q 604 534 538 570 q 705 439 670 498 q 740 306 740 379 q 711 180 740 238 q 631 79 682 122 q 514 13 581 37 q 371 -11 447 -11 m 372 100 q 495 126 440 100 q 583 200 551 153 q 616 304 616 246 q 570 420 616 370 q 431 469 524 469 q 306 440 363 469 q 214 363 248 412 q 180 257 180 315 q 205 172 180 207 q 274 118 231 136 q 372 100 318 100 m 448 489 q 320 517 376 489 q 232 596 264 545 q 201 717 201 648 q 243 865 201 798 q 358 971 286 932 q 518 1011 430 1011 q 650 982 593 1011 q 737 900 706 952 q 768 781 768 848 q 725 634 768 701 q 609 528 682 568 q 448 489 536 489 m 455 581 q 554 608 511 581 q 621 681 597 636 q 646 775 646 726 q 611 867 646 834 q 511 900 576 900 q 412 875 454 900 q 346 808 370 850 q 322 715 322 766 q 359 615 322 650 q 455 581 396 581 z "},"9":{"ha":789,"x_min":126,"x_max":793,"o":"m 487 1011 q 649 972 581 1011 q 755 867 718 933 q 793 719 793 801 q 769 595 793 651 q 710 492 746 540 q 638 400 675 445 l 309 1 l 159 1 l 498 410 l 534 416 q 478 383 508 395 q 405 371 449 371 q 266 407 330 371 q 164 507 203 442 q 126 660 126 572 q 174 837 126 758 q 303 964 221 917 q 487 1011 385 1011 m 486 901 q 363 868 417 901 q 277 781 309 836 q 246 662 246 727 q 266 572 246 614 q 325 504 285 530 q 429 478 366 478 q 556 510 500 478 q 644 597 612 543 q 676 715 676 651 q 653 811 676 769 q 588 877 631 852 q 486 901 546 901 z "},"A":{"ha":944,"x_min":-54,"x_max":854,"o":"m -54 0 l 552 1000 l 648 1000 l 854 0 l 736 0 l 677 300 l 670 342 l 576 829 l 571 829 l 281 343 l 255 297 l 77 0 l -54 0 m 186 267 l 208 378 l 743 378 l 722 267 l 186 267 z "},"Á":{"ha":944,"x_min":-54,"x_max":854,"o":"m -54 0 l 552 1000 l 648 1000 l 854 0 l 736 0 l 677 300 l 670 342 l 576 829 l 571 829 l 281 343 l 255 297 l 77 0 l -54 0 m 186 267 l 208 378 l 743 378 l 722 267 l 186 267 m 629 1052 l 561 1109 l 726 1305 l 802 1230 l 629 1052 z "},"Ă":{"ha":944,"x_min":-54,"x_max":873,"o":"m -54 0 l 552 1000 l 648 1000 l 854 0 l 736 0 l 677 300 l 670 342 l 576 829 l 571 829 l 281 343 l 255 297 l 77 0 l -54 0 m 186 267 l 208 378 l 743 378 l 722 267 l 186 267 m 621 1058 q 511 1083 557 1058 q 444 1152 465 1109 q 433 1248 422 1196 l 509 1237 q 516 1178 502 1202 q 559 1143 530 1154 q 623 1131 587 1131 q 737 1163 688 1131 q 795 1248 787 1195 l 873 1237 q 825 1140 864 1180 q 731 1080 786 1101 q 621 1058 677 1059 z "},"Ắ":{"ha":944,"x_min":-54,"x_max":854,"o":"m -54 0 l 552 1000 l 648 1000 l 854 0 l 736 0 l 677 300 l 670 342 l 576 829 l 571 829 l 281 343 l 255 297 l 77 0 l -54 0 m 186 267 l 208 378 l 743 378 l 722 267 l 186 267 m 618 1187 l 551 1234 l 689 1453 l 766 1390 l 618 1187 m 604 1056 q 495 1081 543 1056 q 424 1150 447 1106 q 411 1249 400 1194 l 486 1242 q 495 1182 479 1208 q 541 1142 511 1156 q 608 1127 572 1127 q 714 1163 669 1127 q 770 1252 760 1199 l 850 1244 q 804 1146 839 1188 q 717 1080 768 1103 q 604 1056 665 1056 z "},"Ặ":{"ha":944,"x_min":-54,"x_max":873,"o":"m -54 0 l 552 1000 l 648 1000 l 854 0 l 736 0 l 677 300 l 670 342 l 576 829 l 571 829 l 281 343 l 255 297 l 77 0 l -54 0 m 186 267 l 208 378 l 743 378 l 722 267 l 186 267 m 380 -267 q 318 -241 343 -267 q 292 -179 292 -216 q 318 -117 292 -142 q 380 -91 343 -91 q 443 -117 417 -91 q 469 -179 469 -142 q 443 -241 469 -216 q 380 -267 417 -267 m 621 1059 q 511 1084 557 1059 q 444 1153 465 1109 q 433 1249 422 1196 l 509 1238 q 516 1179 502 1202 q 559 1143 530 1155 q 623 1132 587 1132 q 737 1164 688 1132 q 795 1249 787 1196 l 873 1238 q 825 1141 864 1181 q 731 1080 786 1101 q 621 1059 677 1059 z "},"Ằ":{"ha":944,"x_min":-54,"x_max":854,"o":"m -54 0 l 552 1000 l 648 1000 l 854 0 l 736 0 l 677 300 l 670 342 l 576 829 l 571 829 l 281 343 l 255 297 l 77 0 l -54 0 m 186 267 l 208 378 l 743 378 l 722 267 l 186 267 m 633 1194 l 448 1371 l 517 1445 l 690 1253 l 633 1194 m 604 1056 q 494 1081 543 1056 q 423 1150 446 1106 q 410 1249 399 1194 l 486 1242 q 494 1182 479 1208 q 541 1142 510 1156 q 608 1127 571 1127 q 714 1163 668 1127 q 770 1252 760 1199 l 849 1244 q 803 1146 838 1188 q 716 1080 768 1103 q 604 1056 665 1056 z "},"Ẳ":{"ha":944,"x_min":-54,"x_max":875,"o":"m -54 0 l 552 1000 l 648 1000 l 854 0 l 736 0 l 677 300 l 670 342 l 576 829 l 571 829 l 281 343 l 255 297 l 77 0 l -54 0 m 186 267 l 208 378 l 743 378 l 722 267 l 186 267 m 629 1055 q 520 1080 568 1055 q 449 1148 472 1105 q 436 1248 425 1192 l 511 1241 q 520 1181 505 1207 q 566 1140 536 1155 q 633 1126 596 1126 q 740 1162 694 1126 q 795 1251 785 1198 l 875 1242 q 829 1144 864 1187 q 742 1078 793 1102 q 629 1055 690 1055 m 629 1185 l 589 1238 q 641 1275 621 1254 q 665 1317 661 1297 q 657 1352 671 1340 q 611 1364 643 1364 q 566 1360 590 1364 q 525 1349 543 1355 l 534 1430 q 576 1439 555 1436 q 618 1442 597 1442 q 723 1408 692 1442 q 743 1321 753 1373 q 702 1242 734 1278 q 629 1185 671 1206 z "},"Ẵ":{"ha":944,"x_min":-54,"x_max":902,"o":"m -54 0 l 552 1000 l 648 1000 l 854 0 l 736 0 l 677 300 l 670 342 l 576 829 l 571 829 l 281 343 l 255 297 l 77 0 l -54 0 m 186 267 l 208 378 l 743 378 l 722 267 l 186 267 m 505 1289 l 425 1298 q 480 1408 438 1368 q 581 1448 523 1448 q 637 1436 615 1448 q 675 1408 659 1423 q 706 1379 691 1392 q 741 1367 722 1367 q 792 1393 770 1367 q 820 1456 813 1419 l 902 1447 q 871 1366 894 1402 q 815 1310 848 1331 q 744 1289 783 1289 q 690 1302 711 1289 q 651 1330 668 1314 q 618 1359 635 1346 q 580 1371 602 1371 q 534 1351 554 1371 q 505 1289 513 1330 m 602 1056 q 493 1081 541 1056 q 421 1150 445 1106 q 409 1249 398 1194 l 484 1242 q 493 1182 477 1208 q 539 1142 509 1156 q 606 1127 569 1127 q 712 1163 667 1127 q 768 1252 758 1199 l 848 1244 q 802 1146 837 1188 q 715 1080 766 1103 q 602 1056 663 1056 z "},"Ǎ":{"ha":944,"x_min":-54,"x_max":868,"o":"m -54 0 l 552 1000 l 648 1000 l 854 0 l 736 0 l 677 300 l 670 342 l 576 829 l 571 829 l 281 343 l 255 297 l 77 0 l -54 0 m 186 267 l 208 378 l 743 378 l 722 267 l 186 267 m 595 1052 l 414 1208 l 476 1269 l 618 1139 l 625 1139 l 817 1269 l 868 1208 l 627 1052 l 595 1052 z "},"Â":{"ha":944,"x_min":-54,"x_max":854,"o":"m -54 0 l 552 1000 l 648 1000 l 854 0 l 736 0 l 677 300 l 670 342 l 576 829 l 571 829 l 281 343 l 255 297 l 77 0 l -54 0 m 186 267 l 208 378 l 743 378 l 722 267 l 186 267 m 453 1052 l 401 1115 l 642 1269 l 673 1269 l 854 1115 l 791 1052 l 651 1183 l 643 1183 l 453 1052 z "},"Ấ":{"ha":944,"x_min":-54,"x_max":1038,"o":"m -54 0 l 552 1000 l 648 1000 l 854 0 l 736 0 l 677 300 l 670 342 l 576 829 l 571 829 l 281 343 l 255 297 l 77 0 l -54 0 m 186 267 l 208 378 l 743 378 l 722 267 l 186 267 m 804 1200 l 755 1246 l 988 1444 l 1038 1366 l 804 1200 m 446 1042 l 396 1103 l 633 1259 l 667 1259 l 849 1103 l 786 1042 l 642 1171 l 637 1171 l 446 1042 z "},"Ậ":{"ha":944,"x_min":-54,"x_max":854,"o":"m -54 0 l 552 1000 l 648 1000 l 854 0 l 736 0 l 677 300 l 670 342 l 576 829 l 571 829 l 281 343 l 255 297 l 77 0 l -54 0 m 186 267 l 208 378 l 743 378 l 722 267 l 186 267 m 380 -267 q 318 -241 343 -267 q 292 -179 292 -216 q 318 -117 292 -142 q 380 -91 343 -91 q 443 -117 417 -91 q 469 -179 469 -142 q 443 -241 469 -216 q 380 -267 417 -267 m 453 1053 l 401 1116 l 642 1270 l 673 1270 l 854 1116 l 791 1053 l 651 1183 l 643 1183 l 453 1053 z "},"Ầ":{"ha":944,"x_min":-54,"x_max":854,"o":"m -54 0 l 552 1000 l 648 1000 l 854 0 l 736 0 l 677 300 l 670 342 l 576 829 l 571 829 l 281 343 l 255 297 l 77 0 l -54 0 m 186 267 l 208 378 l 743 378 l 722 267 l 186 267 m 456 1196 l 300 1391 l 375 1451 l 521 1238 l 456 1196 m 448 1040 l 397 1101 l 635 1256 l 668 1256 l 850 1101 l 787 1040 l 643 1168 l 639 1168 l 448 1040 z "},"Ẩ":{"ha":944,"x_min":-54,"x_max":912,"o":"m -54 0 l 552 1000 l 648 1000 l 854 0 l 736 0 l 677 300 l 670 342 l 576 829 l 571 829 l 281 343 l 255 297 l 77 0 l -54 0 m 186 267 l 208 378 l 743 378 l 722 267 l 186 267 m 804 1192 l 749 1240 q 797 1280 777 1257 q 821 1324 817 1303 q 813 1357 826 1346 q 764 1367 800 1367 q 727 1365 749 1367 q 685 1356 704 1362 l 694 1434 q 733 1443 712 1440 q 772 1445 754 1445 q 881 1412 849 1445 q 902 1329 912 1379 q 865 1251 894 1287 q 804 1192 836 1214 m 446 1042 l 396 1103 l 633 1259 l 667 1259 l 849 1103 l 786 1042 l 642 1171 l 637 1171 l 446 1042 z "},"Ẫ":{"ha":944,"x_min":-54,"x_max":897,"o":"m -54 0 l 552 1000 l 648 1000 l 854 0 l 736 0 l 677 300 l 670 342 l 576 829 l 571 829 l 281 343 l 255 297 l 77 0 l -54 0 m 186 267 l 208 378 l 743 378 l 722 267 l 186 267 m 498 1289 l 418 1298 q 475 1408 433 1368 q 576 1448 518 1448 q 632 1436 610 1448 q 670 1408 654 1423 q 702 1379 686 1392 q 736 1367 717 1367 q 787 1393 766 1367 q 815 1456 808 1419 l 897 1447 q 866 1366 889 1402 q 811 1310 844 1331 q 739 1289 778 1289 q 685 1302 707 1289 q 647 1330 663 1314 q 613 1359 630 1346 q 575 1371 597 1371 q 529 1351 550 1371 q 498 1289 508 1330 m 448 1042 l 397 1103 l 635 1259 l 668 1259 l 850 1103 l 787 1042 l 643 1171 l 639 1171 l 448 1042 z "},"Ȁ":{"ha":944,"x_min":-54,"x_max":854,"o":"m -54 0 l 552 1000 l 648 1000 l 854 0 l 736 0 l 677 300 l 670 342 l 576 829 l 571 829 l 281 343 l 255 297 l 77 0 l -54 0 m 186 267 l 208 378 l 743 378 l 722 267 l 186 267 m 475 1074 l 364 1290 l 457 1337 l 543 1105 l 475 1074 m 701 1074 l 595 1290 l 686 1337 l 771 1105 l 701 1074 z "},"Ä":{"ha":944,"x_min":-54,"x_max":866,"o":"m -54 0 l 552 1000 l 648 1000 l 854 0 l 736 0 l 677 300 l 670 342 l 576 829 l 571 829 l 281 343 l 255 297 l 77 0 l -54 0 m 186 267 l 208 378 l 743 378 l 722 267 l 186 267 m 785 1071 q 724 1096 749 1071 q 698 1156 698 1120 q 721 1215 698 1192 q 781 1239 745 1239 q 841 1215 816 1239 q 866 1153 865 1192 q 843 1094 866 1116 q 785 1071 820 1071 m 488 1071 q 428 1096 453 1071 q 404 1156 404 1120 q 426 1215 404 1192 q 483 1239 448 1239 q 546 1213 521 1239 q 570 1152 570 1187 q 547 1095 570 1118 q 488 1071 524 1071 z "},"Ȧ":{"ha":944,"x_min":-54,"x_max":854,"o":"m -54 0 l 552 1000 l 648 1000 l 854 0 l 736 0 l 677 300 l 670 342 l 576 829 l 571 829 l 281 343 l 255 297 l 77 0 l -54 0 m 186 267 l 208 378 l 743 378 l 722 267 l 186 267 m 644 1069 q 582 1095 607 1069 q 556 1158 556 1121 q 582 1220 556 1194 q 644 1246 607 1246 q 707 1220 681 1246 q 732 1158 732 1194 q 707 1095 732 1121 q 644 1069 681 1069 z "},"Ạ":{"ha":944,"x_min":-54,"x_max":854,"o":"m -54 0 l 552 1000 l 648 1000 l 854 0 l 736 0 l 677 300 l 670 342 l 576 829 l 571 829 l 281 343 l 255 297 l 77 0 l -54 0 m 186 267 l 208 378 l 743 378 l 722 267 l 186 267 m 380 -267 q 318 -241 343 -267 q 292 -179 292 -216 q 318 -117 292 -142 q 380 -91 343 -91 q 443 -117 417 -91 q 469 -179 469 -142 q 443 -241 469 -216 q 380 -267 417 -267 z "},"À":{"ha":944,"x_min":-54,"x_max":854,"o":"m -54 0 l 552 1000 l 648 1000 l 854 0 l 736 0 l 677 300 l 670 342 l 576 829 l 571 829 l 281 343 l 255 297 l 77 0 l -54 0 m 186 267 l 208 378 l 743 378 l 722 267 l 186 267 m 616 1052 l 433 1230 l 504 1305 l 680 1109 l 616 1052 z "},"Ả":{"ha":944,"x_min":-54,"x_max":854,"o":"m -54 0 l 552 1000 l 648 1000 l 854 0 l 736 0 l 677 300 l 670 342 l 576 829 l 571 829 l 281 343 l 255 297 l 77 0 l -54 0 m 186 267 l 208 378 l 743 378 l 722 267 l 186 267 m 638 1075 l 597 1128 q 650 1165 630 1144 q 674 1207 669 1187 q 666 1242 680 1230 q 620 1255 652 1255 q 575 1250 599 1255 q 534 1239 551 1245 l 543 1320 q 585 1329 564 1326 q 627 1332 606 1332 q 732 1298 701 1332 q 751 1211 762 1263 q 711 1132 743 1168 q 638 1075 680 1097 z "},"Ȃ":{"ha":944,"x_min":-54,"x_max":854,"o":"m -54 0 l 552 1000 l 648 1000 l 854 0 l 736 0 l 677 300 l 670 342 l 576 829 l 571 829 l 281 343 l 255 297 l 77 0 l -54 0 m 186 267 l 208 378 l 743 378 l 722 267 l 186 267 m 835 1049 l 759 1061 q 735 1140 769 1107 q 639 1172 701 1172 q 530 1139 576 1172 q 473 1053 484 1105 l 396 1065 q 445 1161 408 1122 q 535 1222 482 1201 q 644 1244 587 1243 q 756 1218 709 1244 q 826 1146 804 1191 q 835 1049 848 1101 z "},"Ā":{"ha":944,"x_min":-54,"x_max":890,"o":"m -54 0 l 552 1000 l 648 1000 l 854 0 l 736 0 l 677 300 l 670 342 l 576 829 l 571 829 l 281 343 l 255 297 l 77 0 l -54 0 m 186 267 l 208 378 l 743 378 l 722 267 l 186 267 m 380 1110 l 396 1195 l 890 1195 l 875 1110 l 380 1110 z "},"Ą":{"ha":944,"x_min":-54,"x_max":854,"o":"m -54 0 l 552 1000 l 648 1000 l 854 0 l 736 0 l 677 300 l 670 342 l 576 829 l 571 829 l 281 343 l 255 297 l 77 0 l -54 0 m 186 267 l 208 378 l 743 378 l 722 267 l 186 267 m 726 -275 q 640 -240 668 -275 q 623 -150 612 -204 q 681 -55 634 -97 q 791 28 727 -14 l 854 0 q 789 -49 823 -24 q 731 -100 755 -74 q 701 -153 706 -125 q 708 -188 696 -176 q 746 -200 720 -200 q 798 -190 772 -200 q 837 -174 823 -180 l 825 -254 q 777 -269 806 -263 q 726 -275 747 -275 z "},"Å":{"ha":944,"x_min":-54,"x_max":854,"o":"m -54 0 l 552 1000 l 648 1000 l 854 0 l 736 0 l 677 300 l 670 342 l 576 829 l 571 829 l 281 343 l 255 297 l 77 0 l -54 0 m 186 267 l 208 378 l 743 378 l 722 267 l 186 267 m 621 1044 q 545 1064 578 1044 q 497 1121 512 1084 q 490 1206 481 1158 q 553 1311 503 1270 q 668 1351 604 1351 q 747 1329 715 1351 q 793 1269 779 1306 q 799 1187 808 1232 q 765 1114 791 1146 q 702 1062 739 1081 q 621 1044 665 1044 m 621 1118 q 689 1144 659 1118 q 726 1208 720 1171 q 716 1257 732 1239 q 665 1276 699 1276 q 600 1250 630 1276 q 561 1185 570 1224 q 573 1137 555 1156 q 621 1118 591 1118 z "},"Ǻ":{"ha":944,"x_min":-54,"x_max":906,"o":"m 635 1095 q 562 1115 593 1095 q 517 1169 531 1135 q 509 1242 503 1202 q 564 1335 519 1298 q 667 1373 610 1373 q 741 1352 710 1373 q 786 1297 772 1331 q 792 1223 800 1263 q 738 1132 781 1169 q 635 1095 694 1095 m 639 1158 q 693 1178 667 1158 q 725 1230 719 1198 q 714 1284 731 1260 q 663 1309 697 1309 q 608 1288 633 1309 q 576 1238 583 1267 q 589 1182 570 1206 q 639 1158 608 1158 m 734 1402 l 665 1459 l 831 1655 l 906 1581 l 734 1402 m -54 0 l 552 1000 l 648 1000 l 854 0 l 736 0 l 677 300 l 670 342 l 576 829 l 571 829 l 281 343 l 255 297 l 77 0 l -54 0 m 186 267 l 208 378 l 743 378 l 722 267 l 186 267 z "},"Ã":{"ha":944,"x_min":-54,"x_max":874,"o":"m -54 0 l 552 1000 l 648 1000 l 854 0 l 736 0 l 677 300 l 670 342 l 576 829 l 571 829 l 281 343 l 255 297 l 77 0 l -54 0 m 186 267 l 208 378 l 743 378 l 722 267 l 186 267 m 475 1069 l 399 1081 q 455 1195 414 1152 q 555 1238 497 1238 q 613 1225 591 1238 q 649 1196 635 1213 q 676 1166 663 1179 q 709 1154 690 1154 q 764 1181 740 1154 q 795 1244 788 1208 l 874 1233 q 817 1119 859 1163 q 715 1076 775 1076 q 660 1088 681 1076 q 624 1118 639 1101 q 594 1147 609 1135 q 557 1160 579 1160 q 508 1135 530 1160 q 475 1069 485 1109 z "},"Æ":{"ha":1230,"x_min":-69,"x_max":1279,"o":"m -69 0 l 639 1000 l 726 1000 l 707 871 l 684 871 l 450 534 l 68 0 l -69 0 m 228 267 l 248 378 l 703 378 l 692 267 l 228 267 m 579 0 l 663 747 l 705 1000 l 1279 1000 l 1257 888 l 793 888 l 708 111 l 1100 111 l 1078 0 l 579 0 m 731 453 l 745 564 l 1130 564 l 1107 453 l 731 453 z "},"Ǽ":{"ha":1230,"x_min":-69,"x_max":1279,"o":"m -69 0 l 639 1000 l 726 1000 l 707 871 l 684 871 l 450 534 l 68 0 l -69 0 m 228 267 l 248 378 l 703 378 l 692 267 l 228 267 m 579 0 l 663 747 l 705 1000 l 1279 1000 l 1257 888 l 793 888 l 708 111 l 1100 111 l 1078 0 l 579 0 m 731 453 l 745 564 l 1130 564 l 1107 453 l 731 453 m 914 1052 l 846 1109 l 1011 1305 l 1086 1230 l 914 1052 z "},"B":{"ha":837,"x_min":45,"x_max":760,"o":"m 152 0 l 174 111 l 419 111 q 531 136 483 111 q 606 203 579 160 q 633 303 633 247 q 611 387 633 352 q 550 439 590 421 q 453 457 510 457 l 232 457 l 252 566 l 452 566 q 547 594 506 566 q 612 666 589 622 q 635 757 635 709 q 615 829 635 800 q 558 873 595 859 q 467 888 520 888 l 317 888 l 340 1000 l 484 1000 q 630 971 568 1000 q 726 890 692 942 q 760 770 760 839 q 735 658 760 711 q 669 564 711 605 q 571 498 627 522 l 571 526 q 669 482 627 514 q 732 403 710 450 q 755 297 755 356 q 711 147 755 214 q 594 40 668 79 q 429 0 521 0 l 152 0 m 45 0 l 245 1000 l 370 1000 l 169 0 l 45 0 z "},"C":{"ha":903,"x_min":89,"x_max":957,"o":"m 513 -11 q 289 46 384 -11 q 141 200 193 102 q 89 422 89 298 q 134 645 89 539 q 258 833 179 751 q 441 963 338 916 q 663 1010 545 1010 q 825 985 748 1010 q 957 917 902 960 l 893 807 q 790 873 854 847 q 653 899 726 899 q 485 860 564 899 q 343 755 405 821 q 247 604 282 688 q 212 429 212 519 q 249 262 212 336 q 354 144 286 188 q 512 100 422 100 q 660 131 589 100 q 787 208 732 161 l 817 85 q 679 15 760 40 q 513 -11 597 -11 z "},"Ć":{"ha":903,"x_min":89,"x_max":957,"o":"m 513 -11 q 289 46 384 -11 q 141 200 193 102 q 89 422 89 298 q 134 645 89 539 q 258 833 179 751 q 441 963 338 916 q 663 1010 545 1010 q 825 985 748 1010 q 957 917 902 960 l 893 807 q 790 873 854 847 q 653 899 726 899 q 485 860 564 899 q 343 755 405 821 q 247 604 282 688 q 212 429 212 519 q 249 262 212 336 q 354 144 286 188 q 512 100 422 100 q 660 131 589 100 q 787 208 732 161 l 817 85 q 679 15 760 40 q 513 -11 597 -11 m 686 1052 l 618 1109 l 783 1305 l 859 1230 l 686 1052 z "},"Č":{"ha":903,"x_min":89,"x_max":957,"o":"m 513 -11 q 289 46 384 -11 q 141 200 193 102 q 89 422 89 298 q 134 645 89 539 q 258 833 179 751 q 441 963 338 916 q 663 1010 545 1010 q 825 985 748 1010 q 957 917 902 960 l 893 807 q 790 873 854 847 q 653 899 726 899 q 485 860 564 899 q 343 755 405 821 q 247 604 282 688 q 212 429 212 519 q 249 262 212 336 q 354 144 286 188 q 512 100 422 100 q 660 131 589 100 q 787 208 732 161 l 817 85 q 679 15 760 40 q 513 -11 597 -11 m 652 1052 l 471 1208 l 533 1269 l 675 1139 l 682 1139 l 873 1269 l 925 1208 l 684 1052 l 652 1052 z "},"Ç":{"ha":903,"x_min":89,"x_max":957,"o":"m 513 -11 q 289 46 384 -11 q 141 200 193 102 q 89 422 89 298 q 134 645 89 539 q 258 833 179 751 q 441 963 338 916 q 663 1010 545 1010 q 825 985 748 1010 q 957 917 902 960 l 893 807 q 790 873 854 847 q 653 899 726 899 q 485 860 564 899 q 343 755 405 821 q 247 604 282 688 q 212 429 212 519 q 249 262 212 336 q 354 144 286 188 q 512 100 422 100 q 660 131 589 100 q 787 208 732 161 l 817 85 q 679 15 760 40 q 513 -11 597 -11 m 317 -315 l 324 -248 q 436 -230 394 -250 q 486 -174 479 -211 q 468 -139 491 -152 q 393 -123 444 -125 l 456 0 l 522 0 l 463 -110 l 456 -74 q 515 -89 489 -75 q 555 -130 542 -104 q 560 -195 568 -157 q 519 -266 551 -239 q 436 -304 488 -293 q 317 -315 385 -316 z "},"Ḉ":{"ha":903,"x_min":89,"x_max":957,"o":"m 513 -11 q 289 46 384 -11 q 141 200 193 102 q 89 422 89 298 q 134 645 89 539 q 258 833 179 751 q 441 963 338 916 q 663 1010 545 1010 q 825 985 748 1010 q 957 917 902 960 l 893 807 q 790 873 854 847 q 653 899 726 899 q 485 860 564 899 q 343 755 405 821 q 247 604 282 688 q 212 429 212 519 q 249 262 212 336 q 354 144 286 188 q 512 100 422 100 q 660 131 589 100 q 787 208 732 161 l 817 85 q 679 15 760 40 q 513 -11 597 -11 m 317 -315 l 324 -248 q 436 -230 394 -250 q 486 -174 479 -211 q 468 -139 491 -152 q 393 -123 444 -125 l 456 0 l 522 0 l 463 -110 l 456 -74 q 515 -89 489 -75 q 555 -130 542 -104 q 560 -195 568 -157 q 519 -266 551 -239 q 436 -304 488 -293 q 317 -315 385 -316 m 686 1052 l 618 1109 l 783 1305 l 859 1230 l 686 1052 z "},"Ĉ":{"ha":903,"x_min":89,"x_max":957,"o":"m 513 -11 q 289 46 384 -11 q 141 200 193 102 q 89 422 89 298 q 134 645 89 539 q 258 833 179 751 q 441 963 338 916 q 663 1010 545 1010 q 825 985 748 1010 q 957 917 902 960 l 893 807 q 790 873 854 847 q 653 899 726 899 q 485 860 564 899 q 343 755 405 821 q 247 604 282 688 q 212 429 212 519 q 249 262 212 336 q 354 144 286 188 q 512 100 422 100 q 660 131 589 100 q 787 208 732 161 l 817 85 q 679 15 760 40 q 513 -11 597 -11 m 510 1052 l 458 1115 l 699 1269 l 730 1269 l 911 1115 l 848 1052 l 708 1183 l 700 1183 l 510 1052 z "},"Ċ":{"ha":903,"x_min":89,"x_max":957,"o":"m 513 -11 q 289 46 384 -11 q 141 200 193 102 q 89 422 89 298 q 134 645 89 539 q 258 833 179 751 q 441 963 338 916 q 663 1010 545 1010 q 825 985 748 1010 q 957 917 902 960 l 893 807 q 790 873 854 847 q 653 899 726 899 q 485 860 564 899 q 343 755 405 821 q 247 604 282 688 q 212 429 212 519 q 249 262 212 336 q 354 144 286 188 q 512 100 422 100 q 660 131 589 100 q 787 208 732 161 l 817 85 q 679 15 760 40 q 513 -11 597 -11 m 701 1069 q 638 1095 664 1069 q 613 1158 613 1121 q 638 1220 613 1194 q 701 1246 664 1246 q 764 1220 738 1246 q 789 1158 789 1194 q 764 1095 789 1121 q 701 1069 738 1069 z "},"D":{"ha":949,"x_min":45,"x_max":911,"o":"m 45 0 l 245 1000 l 522 1000 q 732 943 645 1000 q 865 789 819 886 q 911 569 911 691 q 874 347 911 450 q 769 165 838 243 q 605 44 701 87 q 392 0 509 0 l 45 0 m 191 111 l 406 111 q 566 149 494 111 q 687 250 637 186 q 764 398 737 315 q 790 573 790 481 q 758 737 790 666 q 663 848 725 808 q 513 888 601 888 l 348 888 l 191 111 z "},"Ǆ":{"ha":1733,"x_min":45,"x_max":1772,"o":"m 45 0 l 245 1000 l 522 1000 q 732 943 645 1000 q 865 789 819 886 q 911 569 911 691 q 874 347 911 450 q 769 165 838 243 q 605 44 701 87 q 392 0 509 0 l 45 0 m 191 111 l 406 111 q 566 149 494 111 q 687 250 637 186 q 764 398 737 315 q 790 573 790 481 q 758 737 790 666 q 663 848 725 808 q 513 888 601 888 l 348 888 l 191 111 m 911 0 l 916 30 l 1565 888 l 1565 891 l 1112 891 l 1133 1000 l 1772 1000 l 1767 971 l 1116 111 l 1116 109 l 1611 109 l 1589 0 l 911 0 m 1450 1052 l 1269 1208 l 1331 1269 l 1473 1139 l 1480 1139 l 1672 1269 l 1723 1208 l 1482 1052 l 1450 1052 z "},"Ď":{"ha":949,"x_min":45,"x_max":911,"o":"m 45 0 l 245 1000 l 522 1000 q 732 943 645 1000 q 865 789 819 886 q 911 569 911 691 q 874 347 911 450 q 769 165 838 243 q 605 44 701 87 q 392 0 509 0 l 45 0 m 191 111 l 406 111 q 566 149 494 111 q 687 250 637 186 q 764 398 737 315 q 790 573 790 481 q 758 737 790 666 q 663 848 725 808 q 513 888 601 888 l 348 888 l 191 111 m 581 1052 l 399 1208 l 462 1269 l 604 1139 l 611 1139 l 802 1269 l 854 1208 l 612 1052 l 581 1052 z "},"Đ":{"ha":971,"x_min":53,"x_max":934,"o":"m 67 0 l 268 1000 l 545 1000 q 754 943 667 1000 q 888 789 842 886 q 934 569 934 691 q 897 347 934 450 q 791 165 860 243 q 627 44 723 87 q 414 0 532 0 l 67 0 m 214 111 l 428 111 q 588 149 517 111 q 709 250 659 186 q 786 398 760 315 q 812 573 812 481 q 780 737 812 666 q 685 848 747 808 q 535 888 623 888 l 370 888 l 214 111 m 53 458 l 75 551 l 456 551 l 432 458 l 53 458 z "},"Ḍ":{"ha":949,"x_min":45,"x_max":911,"o":"m 45 0 l 245 1000 l 522 1000 q 732 943 645 1000 q 865 789 819 886 q 911 569 911 691 q 874 347 911 450 q 769 165 838 243 q 605 44 701 87 q 392 0 509 0 l 45 0 m 191 111 l 406 111 q 566 149 494 111 q 687 250 637 186 q 764 398 737 315 q 790 573 790 481 q 758 737 790 666 q 663 848 725 808 q 513 888 601 888 l 348 888 l 191 111 m 353 -267 q 290 -241 315 -267 q 264 -179 264 -216 q 290 -117 264 -142 q 353 -91 315 -91 q 415 -117 389 -91 q 441 -179 441 -142 q 415 -241 441 -216 q 353 -267 389 -267 z "},"Ḏ":{"ha":949,"x_min":45,"x_max":911,"o":"m 45 0 l 245 1000 l 522 1000 q 732 943 645 1000 q 865 789 819 886 q 911 569 911 691 q 874 347 911 450 q 769 165 838 243 q 605 44 701 87 q 392 0 509 0 l 45 0 m 191 111 l 406 111 q 566 149 494 111 q 687 250 637 186 q 764 398 737 315 q 790 573 790 481 q 758 737 790 666 q 663 848 725 808 q 513 888 601 888 l 348 888 l 191 111 m 90 -267 l 105 -189 l 597 -189 l 581 -267 l 90 -267 z "},"ǅ":{"ha":1575,"x_min":45,"x_max":1585,"o":"m 45 0 l 245 1000 l 522 1000 q 732 943 645 1000 q 865 789 819 886 q 911 569 911 691 q 874 347 911 450 q 769 165 838 243 q 605 44 701 87 q 392 0 509 0 l 45 0 m 191 111 l 406 111 q 566 149 494 111 q 687 250 637 186 q 764 398 737 315 q 790 573 790 481 q 758 737 790 666 q 663 848 725 808 q 513 888 601 888 l 348 888 l 191 111 m 899 0 l 905 27 l 1379 608 l 1379 613 l 1039 613 l 1060 719 l 1584 719 l 1579 692 l 1105 111 l 1105 106 l 1466 106 l 1444 0 l 899 0 m 1316 803 l 1143 993 l 1200 1051 l 1339 893 l 1345 893 l 1538 1051 l 1585 993 l 1346 803 l 1316 803 z "},"Ð":{"ha":971,"x_min":53,"x_max":934,"o":"m 67 0 l 268 1000 l 545 1000 q 754 943 667 1000 q 888 789 842 886 q 934 569 934 691 q 897 347 934 450 q 791 165 860 243 q 627 44 723 87 q 414 0 532 0 l 67 0 m 214 111 l 428 111 q 588 149 517 111 q 709 250 659 186 q 786 398 760 315 q 812 573 812 481 q 780 737 812 666 q 685 848 747 808 q 535 888 623 888 l 370 888 l 214 111 m 53 458 l 75 551 l 456 551 l 432 458 l 53 458 z "},"E":{"ha":726,"x_min":45,"x_max":774,"o":"m 45 0 l 245 1000 l 774 1000 l 752 888 l 348 888 l 283 564 l 624 564 l 602 453 l 260 453 l 192 111 l 594 111 l 572 0 l 45 0 z "},"É":{"ha":726,"x_min":45,"x_max":774,"o":"m 45 0 l 245 1000 l 774 1000 l 752 888 l 348 888 l 283 564 l 624 564 l 602 453 l 260 453 l 192 111 l 594 111 l 572 0 l 45 0 m 545 1052 l 476 1109 l 642 1305 l 717 1230 l 545 1052 z "},"Ĕ":{"ha":726,"x_min":45,"x_max":789,"o":"m 45 0 l 245 1000 l 774 1000 l 752 888 l 348 888 l 283 564 l 624 564 l 602 453 l 260 453 l 192 111 l 594 111 l 572 0 l 45 0 m 536 1058 q 426 1083 472 1058 q 359 1152 380 1109 q 349 1248 338 1196 l 425 1237 q 431 1178 417 1202 q 474 1143 446 1154 q 538 1131 503 1131 q 652 1163 603 1131 q 711 1248 702 1195 l 789 1237 q 740 1140 779 1180 q 647 1080 701 1101 q 536 1058 592 1059 z "},"Ě":{"ha":726,"x_min":45,"x_max":783,"o":"m 45 0 l 245 1000 l 774 1000 l 752 888 l 348 888 l 283 564 l 624 564 l 602 453 l 260 453 l 192 111 l 594 111 l 572 0 l 45 0 m 510 1052 l 329 1208 l 391 1269 l 533 1139 l 541 1139 l 732 1269 l 783 1208 l 542 1052 l 510 1052 z "},"Ḝ":{"ha":726,"x_min":45,"x_max":789,"o":"m 45 0 l 245 1000 l 774 1000 l 752 888 l 348 888 l 283 564 l 624 564 l 602 453 l 260 453 l 192 111 l 594 111 l 572 0 l 45 0 m 159 -315 l 167 -248 q 279 -230 237 -250 q 329 -174 321 -211 q 310 -139 334 -152 q 236 -123 287 -125 l 298 0 l 365 0 l 305 -110 l 298 -74 q 358 -89 332 -75 q 397 -130 385 -104 q 403 -195 410 -157 q 362 -266 394 -239 q 279 -304 330 -293 q 159 -315 228 -316 m 536 1058 q 426 1083 472 1058 q 359 1152 380 1109 q 349 1248 338 1196 l 425 1237 q 431 1178 417 1202 q 474 1143 446 1154 q 538 1131 503 1131 q 652 1163 603 1131 q 711 1248 702 1195 l 789 1237 q 740 1140 779 1180 q 647 1080 701 1101 q 536 1058 592 1059 z "},"Ê":{"ha":726,"x_min":45,"x_max":774,"o":"m 45 0 l 245 1000 l 774 1000 l 752 888 l 348 888 l 283 564 l 624 564 l 602 453 l 260 453 l 192 111 l 594 111 l 572 0 l 45 0 m 368 1052 l 317 1115 l 557 1269 l 589 1269 l 769 1115 l 707 1052 l 566 1183 l 558 1183 l 368 1052 z "},"Ế":{"ha":726,"x_min":45,"x_max":953,"o":"m 45 0 l 245 1000 l 774 1000 l 752 888 l 348 888 l 283 564 l 624 564 l 602 453 l 260 453 l 192 111 l 594 111 l 572 0 l 45 0 m 720 1200 l 670 1246 l 903 1444 l 953 1366 l 720 1200 m 361 1042 l 311 1103 l 549 1259 l 582 1259 l 764 1103 l 701 1042 l 557 1171 l 553 1171 l 361 1042 z "},"Ệ":{"ha":726,"x_min":45,"x_max":787,"o":"m 45 0 l 245 1000 l 774 1000 l 752 888 l 348 888 l 283 564 l 624 564 l 602 453 l 260 453 l 192 111 l 594 111 l 572 0 l 45 0 m 314 -267 q 251 -241 277 -267 q 226 -179 226 -216 q 251 -117 226 -142 q 314 -91 277 -91 q 376 -117 351 -91 q 402 -179 402 -142 q 376 -241 402 -216 q 314 -267 351 -267 m 387 1053 l 335 1116 l 575 1270 l 607 1270 l 787 1116 l 725 1053 l 585 1183 l 576 1183 l 387 1053 z "},"Ề":{"ha":726,"x_min":45,"x_max":774,"o":"m 45 0 l 245 1000 l 774 1000 l 752 888 l 348 888 l 283 564 l 624 564 l 602 453 l 260 453 l 192 111 l 594 111 l 572 0 l 45 0 m 371 1196 l 215 1391 l 290 1451 l 436 1238 l 371 1196 m 363 1040 l 313 1101 l 550 1256 l 583 1256 l 766 1101 l 703 1040 l 558 1168 l 554 1168 l 363 1040 z "},"Ể":{"ha":726,"x_min":45,"x_max":827,"o":"m 45 0 l 245 1000 l 774 1000 l 752 888 l 348 888 l 283 564 l 624 564 l 602 453 l 260 453 l 192 111 l 594 111 l 572 0 l 45 0 m 720 1192 l 664 1240 q 712 1280 692 1257 q 736 1324 732 1303 q 728 1357 741 1346 q 680 1367 715 1367 q 642 1365 665 1367 q 600 1356 619 1362 l 609 1434 q 648 1443 627 1440 q 687 1445 669 1445 q 796 1412 764 1445 q 817 1329 827 1379 q 780 1251 809 1287 q 720 1192 751 1214 m 361 1042 l 311 1103 l 549 1259 l 582 1259 l 764 1103 l 701 1042 l 557 1171 l 553 1171 l 361 1042 z "},"Ễ":{"ha":726,"x_min":45,"x_max":812,"o":"m 45 0 l 245 1000 l 774 1000 l 752 888 l 348 888 l 283 564 l 624 564 l 602 453 l 260 453 l 192 111 l 594 111 l 572 0 l 45 0 m 414 1289 l 334 1298 q 391 1408 348 1368 q 492 1448 433 1448 q 548 1436 526 1448 q 586 1408 570 1423 q 617 1379 602 1392 q 652 1367 632 1367 q 702 1393 681 1367 q 730 1456 724 1419 l 812 1447 q 782 1366 804 1402 q 726 1310 759 1331 q 654 1289 693 1289 q 600 1302 622 1289 q 562 1330 578 1314 q 529 1359 545 1346 q 490 1371 512 1371 q 444 1351 465 1371 q 414 1289 423 1330 m 363 1042 l 313 1103 l 550 1259 l 583 1259 l 766 1103 l 703 1042 l 558 1171 l 554 1171 l 363 1042 z "},"Ȅ":{"ha":726,"x_min":45,"x_max":774,"o":"m 45 0 l 245 1000 l 774 1000 l 752 888 l 348 888 l 283 564 l 624 564 l 602 453 l 260 453 l 192 111 l 594 111 l 572 0 l 45 0 m 391 1074 l 279 1290 l 372 1337 l 458 1105 l 391 1074 m 616 1074 l 510 1290 l 602 1337 l 686 1105 l 616 1074 z "},"Ë":{"ha":726,"x_min":45,"x_max":781,"o":"m 45 0 l 245 1000 l 774 1000 l 752 888 l 348 888 l 283 564 l 624 564 l 602 453 l 260 453 l 192 111 l 594 111 l 572 0 l 45 0 m 701 1071 q 639 1096 665 1071 q 613 1156 613 1120 q 636 1215 613 1192 q 696 1239 660 1239 q 756 1215 731 1239 q 781 1153 781 1192 q 758 1094 781 1116 q 701 1071 735 1071 m 404 1071 q 343 1096 368 1071 q 319 1156 319 1120 q 341 1215 319 1192 q 398 1239 363 1239 q 461 1213 436 1239 q 486 1152 486 1187 q 463 1095 486 1118 q 404 1071 439 1071 z "},"Ė":{"ha":726,"x_min":45,"x_max":774,"o":"m 45 0 l 245 1000 l 774 1000 l 752 888 l 348 888 l 283 564 l 624 564 l 602 453 l 260 453 l 192 111 l 594 111 l 572 0 l 45 0 m 559 1069 q 497 1095 522 1069 q 471 1158 471 1121 q 497 1220 471 1194 q 559 1246 522 1246 q 622 1220 596 1246 q 648 1158 648 1194 q 622 1095 648 1121 q 559 1069 596 1069 z "},"Ẹ":{"ha":726,"x_min":45,"x_max":774,"o":"m 45 0 l 245 1000 l 774 1000 l 752 888 l 348 888 l 283 564 l 624 564 l 602 453 l 260 453 l 192 111 l 594 111 l 572 0 l 45 0 m 300 -267 q 238 -241 263 -267 q 212 -179 212 -216 q 238 -117 212 -142 q 300 -91 263 -91 q 363 -117 337 -91 q 389 -179 389 -142 q 363 -241 389 -216 q 300 -267 337 -267 z "},"È":{"ha":726,"x_min":45,"x_max":774,"o":"m 45 0 l 245 1000 l 774 1000 l 752 888 l 348 888 l 283 564 l 624 564 l 602 453 l 260 453 l 192 111 l 594 111 l 572 0 l 45 0 m 532 1052 l 349 1230 l 419 1305 l 595 1109 l 532 1052 z "},"Ẻ":{"ha":726,"x_min":45,"x_max":774,"o":"m 45 0 l 245 1000 l 774 1000 l 752 888 l 348 888 l 283 564 l 624 564 l 602 453 l 260 453 l 192 111 l 594 111 l 572 0 l 45 0 m 553 1075 l 513 1128 q 565 1165 545 1144 q 589 1207 585 1187 q 581 1242 595 1230 q 535 1255 567 1255 q 490 1250 514 1255 q 449 1239 467 1245 l 458 1320 q 500 1329 479 1326 q 542 1332 521 1332 q 647 1298 616 1332 q 667 1211 677 1263 q 626 1132 658 1168 q 553 1075 595 1097 z "},"Ȇ":{"ha":726,"x_min":45,"x_max":774,"o":"m 45 0 l 245 1000 l 774 1000 l 752 888 l 348 888 l 283 564 l 624 564 l 602 453 l 260 453 l 192 111 l 594 111 l 572 0 l 45 0 m 750 1049 l 674 1061 q 650 1140 684 1107 q 554 1172 616 1172 q 445 1139 491 1172 q 388 1053 399 1105 l 311 1065 q 360 1161 323 1122 q 450 1222 397 1201 q 559 1244 503 1243 q 671 1218 624 1244 q 741 1146 719 1191 q 750 1049 763 1101 z "},"Ē":{"ha":726,"x_min":45,"x_max":806,"o":"m 45 0 l 245 1000 l 774 1000 l 752 888 l 348 888 l 283 564 l 624 564 l 602 453 l 260 453 l 192 111 l 594 111 l 572 0 l 45 0 m 296 1110 l 311 1195 l 806 1195 l 790 1110 l 296 1110 z "},"Ḗ":{"ha":726,"x_min":45,"x_max":806,"o":"m 45 0 l 245 1000 l 774 1000 l 752 888 l 348 888 l 283 564 l 624 564 l 602 453 l 260 453 l 192 111 l 594 111 l 572 0 l 45 0 m 296 1110 l 311 1195 l 806 1195 l 790 1110 l 296 1110 m 583 1247 l 515 1304 l 680 1500 l 755 1426 l 583 1247 z "},"Ḕ":{"ha":726,"x_min":45,"x_max":806,"o":"m 45 0 l 245 1000 l 774 1000 l 752 888 l 348 888 l 283 564 l 624 564 l 602 453 l 260 453 l 192 111 l 594 111 l 572 0 l 45 0 m 296 1110 l 311 1195 l 806 1195 l 790 1110 l 296 1110 m 570 1247 l 387 1426 l 458 1500 l 634 1304 l 570 1247 z "},"Ę":{"ha":726,"x_min":45,"x_max":774,"o":"m 45 0 l 245 1000 l 774 1000 l 752 888 l 348 888 l 283 564 l 624 564 l 602 453 l 260 453 l 192 111 l 594 111 l 572 0 l 45 0 m 444 -275 q 358 -240 386 -275 q 340 -150 330 -204 q 398 -55 352 -97 q 509 28 445 -14 l 572 0 q 507 -49 541 -24 q 449 -100 473 -74 q 418 -153 424 -125 q 426 -188 414 -176 q 464 -200 438 -200 q 516 -190 490 -200 q 555 -174 541 -180 l 543 -254 q 495 -269 524 -263 q 444 -275 465 -275 z "},"Ẽ":{"ha":726,"x_min":45,"x_max":789,"o":"m 45 0 l 245 1000 l 774 1000 l 752 888 l 348 888 l 283 564 l 624 564 l 602 453 l 260 453 l 192 111 l 594 111 l 572 0 l 45 0 m 391 1069 l 314 1081 q 371 1195 329 1152 q 470 1238 412 1238 q 529 1225 507 1238 q 565 1196 551 1213 q 592 1166 578 1179 q 624 1154 605 1154 q 679 1181 655 1154 q 710 1244 703 1208 l 789 1233 q 732 1119 774 1163 q 631 1076 690 1076 q 575 1088 596 1076 q 539 1118 554 1101 q 509 1147 524 1135 q 473 1160 494 1160 q 423 1135 446 1160 q 391 1069 400 1109 z "},"Ə":{"ha":1017,"x_min":74,"x_max":989,"o":"m 440 -14 q 245 33 327 -14 q 118 162 163 80 q 74 351 74 245 q 81 429 74 381 q 101 539 88 477 l 888 539 l 865 431 l 193 431 q 187 390 189 410 q 185 352 185 370 q 258 165 185 233 q 447 98 330 98 q 618 140 541 98 q 751 256 695 183 q 837 420 806 328 q 867 610 867 512 q 793 824 867 748 q 600 899 720 899 q 425 860 510 899 q 286 753 340 820 l 186 807 q 378 959 265 907 q 608 1010 492 1010 q 802 965 715 1010 q 939 832 888 920 q 989 619 989 745 q 948 382 989 496 q 833 179 907 269 q 659 38 759 90 q 440 -14 558 -14 z "},"F":{"ha":684,"x_min":45,"x_max":762,"o":"m 45 0 l 245 1000 l 762 1000 l 740 888 l 348 888 l 279 549 l 617 549 l 595 438 l 257 438 l 170 0 l 45 0 z "},"G":{"ha":1008,"x_min":94,"x_max":973,"o":"m 503 -11 q 328 24 404 -11 q 200 120 252 58 q 121 263 148 181 q 94 439 94 345 q 134 660 94 557 q 247 842 174 764 q 421 966 321 921 q 642 1010 522 1010 q 821 980 744 1010 q 947 910 899 950 l 881 800 q 788 868 848 836 q 637 899 727 899 q 468 862 545 899 q 334 761 391 825 q 247 614 278 697 q 216 441 216 532 q 249 272 216 350 q 346 148 281 195 q 505 100 410 100 q 666 146 597 100 q 779 275 736 193 q 833 468 822 358 l 886 430 l 513 430 l 534 538 l 973 538 l 954 431 q 870 198 930 297 q 718 44 810 98 q 503 -11 625 -11 z "},"Ğ":{"ha":1008,"x_min":94,"x_max":973,"o":"m 503 -11 q 328 24 404 -11 q 200 120 252 58 q 121 263 148 181 q 94 439 94 345 q 134 660 94 557 q 247 842 174 764 q 421 966 321 921 q 642 1010 522 1010 q 821 980 744 1010 q 947 910 899 950 l 881 800 q 788 868 848 836 q 637 899 727 899 q 468 862 545 899 q 334 761 391 825 q 247 614 278 697 q 216 441 216 532 q 249 272 216 350 q 346 148 281 195 q 505 100 410 100 q 666 146 597 100 q 779 275 736 193 q 833 468 822 358 l 886 430 l 513 430 l 534 538 l 973 538 l 954 431 q 870 198 930 297 q 718 44 810 98 q 503 -11 625 -11 m 659 1058 q 549 1083 595 1058 q 481 1152 503 1109 q 471 1248 460 1196 l 547 1237 q 554 1178 540 1202 q 597 1143 568 1154 q 661 1131 625 1131 q 775 1163 726 1131 q 833 1248 825 1195 l 911 1237 q 863 1140 902 1180 q 769 1080 824 1101 q 659 1058 715 1059 z "},"Ǧ":{"ha":1008,"x_min":94,"x_max":973,"o":"m 503 -11 q 328 24 404 -11 q 200 120 252 58 q 121 263 148 181 q 94 439 94 345 q 134 660 94 557 q 247 842 174 764 q 421 966 321 921 q 642 1010 522 1010 q 821 980 744 1010 q 947 910 899 950 l 881 800 q 788 868 848 836 q 637 899 727 899 q 468 862 545 899 q 334 761 391 825 q 247 614 278 697 q 216 441 216 532 q 249 272 216 350 q 346 148 281 195 q 505 100 410 100 q 666 146 597 100 q 779 275 736 193 q 833 468 822 358 l 886 430 l 513 430 l 534 538 l 973 538 l 954 431 q 870 198 930 297 q 718 44 810 98 q 503 -11 625 -11 m 633 1052 l 452 1208 l 514 1269 l 656 1139 l 663 1139 l 854 1269 l 906 1208 l 665 1052 l 633 1052 z "},"Ĝ":{"ha":1008,"x_min":94,"x_max":973,"o":"m 503 -11 q 328 24 404 -11 q 200 120 252 58 q 121 263 148 181 q 94 439 94 345 q 134 660 94 557 q 247 842 174 764 q 421 966 321 921 q 642 1010 522 1010 q 821 980 744 1010 q 947 910 899 950 l 881 800 q 788 868 848 836 q 637 899 727 899 q 468 862 545 899 q 334 761 391 825 q 247 614 278 697 q 216 441 216 532 q 249 272 216 350 q 346 148 281 195 q 505 100 410 100 q 666 146 597 100 q 779 275 736 193 q 833 468 822 358 l 886 430 l 513 430 l 534 538 l 973 538 l 954 431 q 870 198 930 297 q 718 44 810 98 q 503 -11 625 -11 m 491 1052 l 439 1115 l 680 1269 l 711 1269 l 892 1115 l 829 1052 l 689 1183 l 681 1183 l 491 1052 z "},"Ģ":{"ha":1008,"x_min":94,"x_max":973,"o":"m 503 -11 q 328 24 404 -11 q 200 120 252 58 q 121 263 148 181 q 94 439 94 345 q 134 660 94 557 q 247 842 174 764 q 421 966 321 921 q 642 1010 522 1010 q 821 980 744 1010 q 947 910 899 950 l 881 800 q 788 868 848 836 q 637 899 727 899 q 468 862 545 899 q 334 761 391 825 q 247 614 278 697 q 216 441 216 532 q 249 272 216 350 q 346 148 281 195 q 505 100 410 100 q 666 146 597 100 q 779 275 736 193 q 833 468 822 358 l 886 430 l 513 430 l 534 538 l 973 538 l 954 431 q 870 198 930 297 q 718 44 810 98 q 503 -11 625 -11 m 365 -368 l 337 -330 l 411 -277 q 440 -254 426 -266 q 464 -228 454 -243 q 472 -196 473 -214 l 488 -196 q 477 -221 486 -210 q 448 -232 468 -232 q 404 -213 425 -232 q 383 -164 383 -193 q 402 -120 383 -139 q 450 -100 420 -100 q 500 -121 477 -100 q 522 -180 522 -141 q 497 -258 522 -227 q 443 -310 472 -290 l 365 -368 z "},"Ġ":{"ha":1008,"x_min":94,"x_max":973,"o":"m 503 -11 q 328 24 404 -11 q 200 120 252 58 q 121 263 148 181 q 94 439 94 345 q 134 660 94 557 q 247 842 174 764 q 421 966 321 921 q 642 1010 522 1010 q 821 980 744 1010 q 947 910 899 950 l 881 800 q 788 868 848 836 q 637 899 727 899 q 468 862 545 899 q 334 761 391 825 q 247 614 278 697 q 216 441 216 532 q 249 272 216 350 q 346 148 281 195 q 505 100 410 100 q 666 146 597 100 q 779 275 736 193 q 833 468 822 358 l 886 430 l 513 430 l 534 538 l 973 538 l 954 431 q 870 198 930 297 q 718 44 810 98 q 503 -11 625 -11 m 682 1069 q 620 1095 645 1069 q 594 1158 594 1121 q 620 1220 594 1194 q 682 1246 645 1246 q 745 1220 719 1246 q 770 1158 770 1194 q 745 1095 770 1121 q 682 1069 719 1069 z "},"Ḡ":{"ha":1008,"x_min":94,"x_max":973,"o":"m 503 -11 q 328 24 404 -11 q 200 120 252 58 q 121 263 148 181 q 94 439 94 345 q 134 660 94 557 q 247 842 174 764 q 421 966 321 921 q 642 1010 522 1010 q 821 980 744 1010 q 947 910 899 950 l 881 800 q 788 868 848 836 q 637 899 727 899 q 468 862 545 899 q 334 761 391 825 q 247 614 278 697 q 216 441 216 532 q 249 272 216 350 q 346 148 281 195 q 505 100 410 100 q 666 146 597 100 q 779 275 736 193 q 833 468 822 358 l 886 430 l 513 430 l 534 538 l 973 538 l 954 431 q 870 198 930 297 q 718 44 810 98 q 503 -11 625 -11 m 418 1110 l 434 1195 l 928 1195 l 913 1110 l 418 1110 z "},"H":{"ha":967,"x_min":45,"x_max":978,"o":"m 45 0 l 245 1000 l 370 1000 l 283 566 l 767 566 l 853 1000 l 978 1000 l 779 0 l 654 0 l 745 454 l 260 454 l 169 0 l 45 0 z "},"Ħ":{"ha":1047,"x_min":52,"x_max":1078,"o":"m 66 715 l 86 803 l 1078 803 l 1060 715 l 66 715 m 52 0 l 252 1000 l 377 1000 l 290 566 l 774 566 l 860 1000 l 985 1000 l 785 0 l 661 0 l 751 454 l 267 454 l 176 0 l 52 0 z "},"Ḫ":{"ha":967,"x_min":45,"x_max":978,"o":"m 45 0 l 245 1000 l 370 1000 l 283 566 l 767 566 l 853 1000 l 978 1000 l 779 0 l 654 0 l 745 454 l 260 454 l 169 0 l 45 0 m 369 -289 q 260 -259 306 -289 q 193 -181 214 -230 q 182 -75 172 -132 l 260 -86 q 281 -179 250 -142 q 370 -216 312 -216 q 450 -197 412 -216 q 514 -144 488 -177 q 548 -75 541 -112 l 626 -86 q 577 -190 615 -144 q 485 -262 539 -236 q 369 -289 430 -289 z "},"Ĥ":{"ha":967,"x_min":45,"x_max":978,"o":"m 45 0 l 245 1000 l 370 1000 l 283 566 l 767 566 l 853 1000 l 978 1000 l 779 0 l 654 0 l 745 454 l 260 454 l 169 0 l 45 0 m 460 1052 l 408 1115 l 648 1269 l 680 1269 l 861 1115 l 798 1052 l 658 1183 l 650 1183 l 460 1052 z "},"Ḥ":{"ha":967,"x_min":45,"x_max":978,"o":"m 45 0 l 245 1000 l 370 1000 l 283 566 l 767 566 l 853 1000 l 978 1000 l 779 0 l 654 0 l 745 454 l 260 454 l 169 0 l 45 0 m 376 -267 q 314 -241 339 -267 q 288 -179 288 -216 q 314 -117 288 -142 q 376 -91 339 -91 q 439 -117 413 -91 q 465 -179 465 -142 q 439 -241 465 -216 q 376 -267 413 -267 z "},"I":{"ha":384,"x_min":56,"x_max":382,"o":"m 56 0 l 258 1000 l 382 1000 l 180 0 l 56 0 z "},"Í":{"ha":384,"x_min":56,"x_max":518,"o":"m 56 0 l 258 1000 l 382 1000 l 180 0 l 56 0 m 346 1052 l 277 1109 l 443 1305 l 518 1230 l 346 1052 z "},"Ĭ":{"ha":406,"x_min":66,"x_max":601,"o":"m 66 0 l 269 1000 l 393 1000 l 191 0 l 66 0 m 348 1058 q 238 1083 284 1058 q 171 1152 192 1109 q 161 1248 150 1196 l 237 1237 q 243 1178 229 1202 q 286 1143 258 1154 q 351 1131 315 1131 q 465 1163 415 1131 q 523 1248 514 1195 l 601 1237 q 552 1140 591 1180 q 459 1080 513 1101 q 348 1058 404 1059 z "},"Ǐ":{"ha":406,"x_min":66,"x_max":595,"o":"m 66 0 l 269 1000 l 393 1000 l 191 0 l 66 0 m 322 1052 l 141 1208 l 203 1269 l 345 1139 l 353 1139 l 544 1269 l 595 1208 l 354 1052 l 322 1052 z "},"Î":{"ha":406,"x_min":66,"x_max":581,"o":"m 66 0 l 269 1000 l 393 1000 l 191 0 l 66 0 m 180 1052 l 129 1115 l 369 1269 l 401 1269 l 581 1115 l 519 1052 l 378 1183 l 370 1183 l 180 1052 z "},"Ȉ":{"ha":406,"x_min":66,"x_max":498,"o":"m 66 0 l 269 1000 l 393 1000 l 191 0 l 66 0 m 203 1074 l 92 1290 l 184 1337 l 271 1105 l 203 1074 m 428 1074 l 322 1290 l 414 1337 l 498 1105 l 428 1074 z "},"Ï":{"ha":453,"x_min":90,"x_max":617,"o":"m 90 0 l 292 1000 l 417 1000 l 215 0 l 90 0 m 536 1071 q 475 1096 500 1071 q 449 1156 449 1120 q 472 1215 449 1192 q 532 1239 496 1239 q 592 1215 567 1239 q 617 1153 616 1192 q 594 1094 617 1116 q 536 1071 571 1071 m 239 1071 q 179 1096 204 1071 q 155 1156 155 1120 q 177 1215 155 1192 q 234 1239 199 1239 q 297 1213 272 1239 q 321 1152 321 1187 q 298 1095 321 1118 q 239 1071 275 1071 z "},"Ḯ":{"ha":453,"x_min":90,"x_max":618,"o":"m 90 0 l 292 1000 l 417 1000 l 215 0 l 90 0 m 537 1070 q 475 1095 501 1070 q 450 1155 450 1120 q 473 1215 450 1191 q 533 1238 496 1238 q 592 1215 568 1238 q 618 1152 617 1191 q 595 1093 618 1116 q 537 1070 572 1070 m 240 1070 q 180 1095 205 1070 q 155 1155 155 1120 q 178 1215 155 1191 q 235 1238 200 1238 q 297 1213 273 1238 q 322 1151 322 1187 q 299 1094 322 1118 q 240 1070 276 1070 m 416 1236 l 348 1293 l 513 1489 l 589 1415 l 416 1236 z "},"İ":{"ha":384,"x_min":56,"x_max":449,"o":"m 56 0 l 258 1000 l 382 1000 l 180 0 l 56 0 m 361 1069 q 298 1095 323 1069 q 273 1158 273 1121 q 298 1220 273 1194 q 361 1246 323 1246 q 423 1220 397 1246 q 449 1158 449 1194 q 423 1095 449 1121 q 361 1069 397 1069 z "},"Ị":{"ha":384,"x_min":-5,"x_max":382,"o":"m 56 0 l 258 1000 l 382 1000 l 180 0 l 56 0 m 83 -267 q 21 -241 46 -267 q -5 -179 -5 -216 q 21 -117 -5 -142 q 83 -91 46 -91 q 146 -117 120 -91 q 172 -179 172 -142 q 146 -241 172 -216 q 83 -267 120 -267 z "},"Ì":{"ha":384,"x_min":56,"x_max":397,"o":"m 56 0 l 258 1000 l 382 1000 l 180 0 l 56 0 m 333 1052 l 150 1230 l 220 1305 l 397 1109 l 333 1052 z "},"Ỉ":{"ha":384,"x_min":56,"x_max":479,"o":"m 56 0 l 258 1000 l 382 1000 l 180 0 l 56 0 m 355 1075 l 314 1128 q 366 1165 347 1144 q 391 1207 386 1187 q 382 1242 396 1230 q 336 1255 368 1255 q 292 1250 315 1255 q 250 1239 268 1245 l 260 1320 q 301 1329 281 1326 q 343 1332 322 1332 q 448 1298 418 1332 q 468 1211 479 1263 q 428 1132 459 1168 q 355 1075 396 1097 z "},"Ȋ":{"ha":453,"x_min":90,"x_max":599,"o":"m 90 0 l 292 1000 l 417 1000 l 215 0 l 90 0 m 586 1049 l 510 1061 q 486 1140 520 1107 q 390 1172 452 1172 q 281 1139 327 1172 q 224 1053 235 1105 l 147 1065 q 196 1161 159 1122 q 286 1222 233 1201 q 395 1244 338 1243 q 507 1218 460 1244 q 577 1146 555 1191 q 586 1049 599 1101 z "},"Ī":{"ha":453,"x_min":90,"x_max":642,"o":"m 90 0 l 292 1000 l 417 1000 l 215 0 l 90 0 m 132 1110 l 147 1195 l 642 1195 l 626 1110 l 132 1110 z "},"Į":{"ha":384,"x_min":-62,"x_max":382,"o":"m 56 0 l 258 1000 l 382 1000 l 180 0 l 56 0 m 52 -275 q -34 -240 -6 -275 q -52 -150 -62 -204 q 6 -55 -40 -97 q 117 28 53 -14 l 180 0 q 115 -49 149 -24 q 57 -100 81 -74 q 26 -153 32 -125 q 34 -188 22 -176 q 72 -200 46 -200 q 124 -190 98 -200 q 163 -174 149 -180 l 151 -254 q 103 -269 132 -263 q 52 -275 73 -275 z "},"Ĩ":{"ha":464,"x_min":96,"x_max":631,"o":"m 96 0 l 298 1000 l 422 1000 l 220 0 l 96 0 m 232 1069 l 155 1081 q 212 1195 170 1152 q 311 1238 254 1238 q 370 1225 348 1238 q 406 1196 392 1213 q 433 1166 420 1179 q 465 1154 446 1154 q 520 1181 496 1154 q 551 1244 545 1208 l 631 1233 q 574 1119 616 1163 q 472 1076 532 1076 q 416 1088 437 1076 q 380 1118 395 1101 q 351 1147 366 1135 q 314 1160 336 1160 q 264 1135 287 1160 q 232 1069 241 1109 z "},"J":{"ha":665,"x_min":-9,"x_max":675,"o":"m 245 -11 q 104 26 164 -11 q 18 129 45 63 q 7 281 -9 195 l 127 269 q 130 182 118 220 q 171 122 141 144 q 245 100 201 100 q 321 123 289 100 q 376 192 353 146 q 412 305 398 237 l 551 1000 l 675 1000 l 534 296 q 431 67 504 144 q 245 -11 359 -11 z "},"Ĵ":{"ha":675,"x_min":-9,"x_max":862,"o":"m 245 -11 q 104 26 164 -11 q 18 129 45 63 q 7 281 -9 195 l 127 269 q 130 182 118 220 q 171 122 141 144 q 245 100 201 100 q 321 123 289 100 q 376 192 353 146 q 412 305 398 237 l 551 1000 l 675 1000 l 534 296 q 431 67 504 144 q 245 -11 359 -11 m 461 1052 l 410 1115 l 650 1269 l 682 1269 l 862 1115 l 800 1052 l 659 1183 l 651 1183 l 461 1052 z "},"K":{"ha":838,"x_min":45,"x_max":925,"o":"m 45 0 l 245 1000 l 370 998 l 277 536 l 313 536 l 264 511 l 766 1000 l 925 1000 l 363 457 l 361 530 l 745 0 l 607 0 l 255 487 l 296 458 l 261 458 l 170 0 l 45 0 z "},"Ķ":{"ha":838,"x_min":45,"x_max":925,"o":"m 45 0 l 245 1000 l 370 998 l 277 536 l 313 536 l 264 511 l 766 1000 l 925 1000 l 363 457 l 361 530 l 745 0 l 607 0 l 255 487 l 296 458 l 261 458 l 170 0 l 45 0 m 250 -368 l 222 -330 l 296 -277 q 326 -254 311 -266 q 349 -228 340 -243 q 357 -196 358 -214 l 374 -196 q 362 -221 372 -210 q 334 -232 353 -232 q 290 -213 311 -232 q 269 -164 269 -193 q 287 -120 269 -139 q 335 -100 306 -100 q 385 -121 363 -100 q 408 -180 408 -141 q 382 -258 408 -227 q 328 -310 357 -290 l 250 -368 z "},"L":{"ha":661,"x_min":45,"x_max":583,"o":"m 45 0 l 245 1000 l 370 1000 l 191 111 l 583 111 l 560 0 l 45 0 z "},"Ǉ":{"ha":1325,"x_min":45,"x_max":1336,"o":"m 45 0 l 245 1000 l 370 1000 l 191 111 l 583 111 l 560 0 l 45 0 m 906 -11 q 765 26 825 -11 q 678 129 705 63 q 667 281 651 195 l 788 269 q 790 182 779 220 q 831 122 802 144 q 906 100 861 100 q 982 123 949 100 q 1036 192 1014 146 q 1072 305 1059 237 l 1211 1000 l 1336 1000 l 1195 296 q 1092 67 1164 144 q 906 -11 1019 -11 z "},"Ĺ":{"ha":661,"x_min":45,"x_max":583,"o":"m 45 0 l 245 1000 l 370 1000 l 191 111 l 583 111 l 560 0 l 45 0 m 335 1052 l 267 1109 l 432 1305 l 507 1230 l 335 1052 z "},"Ľ":{"ha":661,"x_min":45,"x_max":785,"o":"m 45 0 l 245 1000 l 370 1000 l 191 111 l 583 111 l 560 0 l 45 0 m 619 692 l 685 1000 l 785 1000 l 707 692 l 619 692 z "},"Ļ":{"ha":661,"x_min":45,"x_max":583,"o":"m 45 0 l 245 1000 l 370 1000 l 191 111 l 583 111 l 560 0 l 45 0 m 193 -368 l 165 -330 l 239 -277 q 269 -254 254 -266 q 292 -228 283 -243 q 300 -196 301 -214 l 317 -196 q 306 -221 315 -210 q 277 -232 296 -232 q 233 -213 254 -232 q 212 -164 212 -193 q 230 -120 212 -139 q 278 -100 249 -100 q 328 -121 306 -100 q 351 -180 351 -141 q 326 -258 351 -227 q 271 -310 300 -290 l 193 -368 z "},"Ŀ":{"ha":707,"x_min":45,"x_max":660,"o":"m 45 0 l 245 1000 l 370 1000 l 191 111 l 583 111 l 560 0 l 45 0 m 572 421 q 509 447 535 421 q 484 509 484 473 q 509 572 484 546 q 572 597 535 597 q 634 572 608 597 q 660 509 660 546 q 634 447 660 473 q 572 421 608 421 z "},"Ḷ":{"ha":661,"x_min":45,"x_max":583,"o":"m 45 0 l 245 1000 l 370 1000 l 191 111 l 583 111 l 560 0 l 45 0 m 275 -267 q 213 -241 238 -267 q 187 -179 187 -216 q 213 -117 187 -142 q 275 -91 238 -91 q 338 -117 312 -91 q 363 -179 363 -142 q 338 -241 363 -216 q 275 -267 312 -267 z "},"ǈ":{"ha":994,"x_min":45,"x_max":1044,"o":"m 45 0 l 245 1000 l 370 1000 l 191 111 l 583 111 l 560 0 l 45 0 m 579 -297 q 527 -292 552 -297 q 496 -285 503 -287 l 518 -176 q 547 -183 532 -181 q 572 -186 562 -186 q 654 -158 621 -186 q 698 -77 687 -130 l 856 719 l 975 719 l 812 -98 q 771 -196 802 -151 q 692 -269 741 -241 q 579 -297 644 -297 m 956 834 q 893 860 918 834 q 867 922 867 886 q 893 985 867 959 q 956 1010 918 1010 q 1018 985 992 1010 q 1044 922 1044 959 q 1018 860 1044 886 q 956 834 992 834 z "},"Ḻ":{"ha":661,"x_min":12,"x_max":583,"o":"m 45 0 l 245 1000 l 370 1000 l 191 111 l 583 111 l 560 0 l 45 0 m 12 -267 l 28 -189 l 519 -189 l 504 -267 l 12 -267 z "},"Ł":{"ha":695,"x_min":22,"x_max":617,"o":"m 52 361 l 22 438 l 200 538 l 297 574 l 431 650 l 460 572 l 276 472 l 179 434 l 52 361 m 79 0 l 280 1000 l 405 1000 l 226 111 l 617 111 l 595 0 l 79 0 z "},"M":{"ha":1118,"x_min":45,"x_max":1128,"o":"m 45 0 l 245 1000 l 336 1000 l 553 377 l 559 377 l 1015 1000 l 1128 1000 l 926 0 l 802 0 l 913 547 l 962 751 l 956 751 l 549 194 l 506 194 l 320 743 l 315 743 l 279 545 l 169 0 l 45 0 z "},"Ṃ":{"ha":1118,"x_min":45,"x_max":1128,"o":"m 45 0 l 245 1000 l 336 1000 l 553 377 l 559 377 l 1015 1000 l 1128 1000 l 926 0 l 802 0 l 913 547 l 962 751 l 956 751 l 549 194 l 506 194 l 320 743 l 315 743 l 279 545 l 169 0 l 45 0 m 467 -267 q 404 -241 429 -267 q 378 -179 378 -216 q 404 -117 378 -142 q 467 -91 429 -91 q 529 -117 503 -91 q 555 -179 555 -142 q 529 -241 555 -216 q 467 -267 503 -267 z "},"N":{"ha":983,"x_min":45,"x_max":994,"o":"m 45 0 l 245 1000 l 337 1000 l 641 360 l 707 227 l 715 227 l 765 476 l 869 1000 l 994 1000 l 793 0 l 703 0 l 394 635 l 328 770 l 322 770 l 275 529 l 169 0 l 45 0 z "},"Ǌ":{"ha":1648,"x_min":45,"x_max":1659,"o":"m 45 0 l 245 1000 l 337 1000 l 641 360 l 707 227 l 715 227 l 765 476 l 869 1000 l 994 1000 l 793 0 l 703 0 l 394 635 l 328 770 l 322 770 l 275 529 l 169 0 l 45 0 m 1229 -11 q 1088 26 1147 -11 q 1001 129 1028 63 q 990 281 974 195 l 1111 269 q 1113 182 1101 220 q 1154 122 1124 144 q 1229 100 1184 100 q 1304 123 1272 100 q 1359 192 1337 146 q 1395 305 1381 237 l 1534 1000 l 1659 1000 l 1518 296 q 1415 67 1487 144 q 1229 -11 1342 -11 z "},"Ń":{"ha":983,"x_min":45,"x_max":994,"o":"m 45 0 l 245 1000 l 337 1000 l 641 360 l 707 227 l 715 227 l 765 476 l 869 1000 l 994 1000 l 793 0 l 703 0 l 394 635 l 328 770 l 322 770 l 275 529 l 169 0 l 45 0 m 646 1052 l 577 1109 l 743 1305 l 818 1230 l 646 1052 z "},"Ň":{"ha":983,"x_min":45,"x_max":994,"o":"m 45 0 l 245 1000 l 337 1000 l 641 360 l 707 227 l 715 227 l 765 476 l 869 1000 l 994 1000 l 793 0 l 703 0 l 394 635 l 328 770 l 322 770 l 275 529 l 169 0 l 45 0 m 611 1052 l 430 1208 l 492 1269 l 634 1139 l 642 1139 l 833 1269 l 884 1208 l 643 1052 l 611 1052 z "},"Ņ":{"ha":983,"x_min":45,"x_max":994,"o":"m 45 0 l 245 1000 l 337 1000 l 641 360 l 707 227 l 715 227 l 765 476 l 869 1000 l 994 1000 l 793 0 l 703 0 l 394 635 l 328 770 l 322 770 l 275 529 l 169 0 l 45 0 m 294 -368 l 267 -330 l 340 -277 q 370 -254 355 -266 q 393 -228 384 -243 q 401 -196 402 -214 l 418 -196 q 407 -221 416 -210 q 378 -232 397 -232 q 334 -213 355 -232 q 313 -164 313 -193 q 331 -120 313 -139 q 379 -100 350 -100 q 429 -121 407 -100 q 452 -180 452 -141 q 427 -258 452 -227 q 372 -310 401 -290 l 294 -368 z "},"Ṅ":{"ha":983,"x_min":45,"x_max":994,"o":"m 45 0 l 245 1000 l 337 1000 l 641 360 l 707 227 l 715 227 l 765 476 l 869 1000 l 994 1000 l 793 0 l 703 0 l 394 635 l 328 770 l 322 770 l 275 529 l 169 0 l 45 0 m 661 1069 q 598 1095 623 1069 q 572 1158 572 1121 q 598 1220 572 1194 q 661 1246 623 1246 q 723 1220 697 1246 q 749 1158 749 1194 q 723 1095 749 1121 q 661 1069 697 1069 z "},"Ṇ":{"ha":983,"x_min":45,"x_max":994,"o":"m 45 0 l 245 1000 l 337 1000 l 641 360 l 707 227 l 715 227 l 765 476 l 869 1000 l 994 1000 l 793 0 l 703 0 l 394 635 l 328 770 l 322 770 l 275 529 l 169 0 l 45 0 m 376 -267 q 314 -241 339 -267 q 288 -179 288 -216 q 314 -117 288 -142 q 376 -91 339 -91 q 439 -117 413 -91 q 465 -179 465 -142 q 439 -241 465 -216 q 376 -267 413 -267 z "},"ǋ":{"ha":1317,"x_min":45,"x_max":1367,"o":"m 45 0 l 245 1000 l 337 1000 l 641 360 l 707 227 l 715 227 l 765 476 l 869 1000 l 994 1000 l 793 0 l 703 0 l 394 635 l 328 770 l 322 770 l 275 529 l 169 0 l 45 0 m 902 -297 q 850 -292 875 -297 q 819 -285 825 -287 l 841 -176 q 869 -183 854 -181 q 895 -186 884 -186 q 977 -158 943 -186 q 1021 -77 1010 -130 l 1179 719 l 1297 719 l 1135 -98 q 1094 -196 1125 -151 q 1015 -269 1063 -241 q 902 -297 966 -297 m 1278 834 q 1216 860 1241 834 q 1190 922 1190 886 q 1216 985 1190 959 q 1278 1010 1241 1010 q 1341 985 1315 1010 q 1367 922 1367 959 q 1341 860 1367 886 q 1278 834 1315 834 z "},"Ṉ":{"ha":983,"x_min":45,"x_max":994,"o":"m 45 0 l 245 1000 l 337 1000 l 641 360 l 707 227 l 715 227 l 765 476 l 869 1000 l 994 1000 l 793 0 l 703 0 l 394 635 l 328 770 l 322 770 l 275 529 l 169 0 l 45 0 m 113 -267 l 129 -189 l 621 -189 l 605 -267 l 113 -267 z "},"Ñ":{"ha":983,"x_min":45,"x_max":994,"o":"m 45 0 l 245 1000 l 337 1000 l 641 360 l 707 227 l 715 227 l 765 476 l 869 1000 l 994 1000 l 793 0 l 703 0 l 394 635 l 328 770 l 322 770 l 275 529 l 169 0 l 45 0 m 492 1069 l 415 1081 q 472 1195 430 1152 q 571 1238 513 1238 q 630 1225 608 1238 q 666 1196 652 1213 q 693 1166 680 1179 q 725 1154 706 1154 q 780 1181 756 1154 q 811 1244 804 1208 l 890 1233 q 833 1119 876 1163 q 732 1076 791 1076 q 676 1088 697 1076 q 640 1118 655 1101 q 610 1147 625 1135 q 574 1160 595 1160 q 524 1135 547 1160 q 492 1069 501 1109 z "},"Ŋ":{"ha":983,"x_min":45,"x_max":994,"o":"m 517 -298 q 445 -290 480 -298 q 378 -265 409 -282 l 412 -163 q 456 -184 429 -176 q 513 -193 484 -193 q 612 -156 575 -193 q 661 -69 650 -119 l 684 44 l 794 0 l 781 -64 q 694 -234 758 -170 q 517 -298 630 -298 m 45 0 l 245 1000 l 337 1000 l 641 360 l 707 227 l 715 227 l 765 476 l 869 1000 l 994 1000 l 793 0 l 703 0 l 394 635 l 328 770 l 322 770 l 275 529 l 169 0 l 45 0 z "},"O":{"ha":1062,"x_min":94,"x_max":1024,"o":"m 513 -8 q 292 52 387 -8 q 146 214 198 111 q 94 444 94 316 q 133 656 94 555 q 241 837 172 758 q 406 962 311 916 q 611 1008 500 1008 q 783 973 707 1008 q 913 877 859 939 q 996 734 967 816 q 1024 557 1024 652 q 986 345 1024 446 q 879 164 948 243 q 717 38 810 84 q 513 -8 624 -8 m 510 103 q 670 141 597 103 q 794 245 742 180 q 874 393 846 311 q 902 562 902 475 q 868 732 902 656 q 770 852 835 808 q 612 897 705 897 q 452 858 524 897 q 326 753 379 819 q 244 606 273 688 q 215 437 215 524 q 250 267 215 342 q 351 147 285 191 q 510 103 416 103 z "},"Ó":{"ha":1062,"x_min":94,"x_max":1024,"o":"m 513 -8 q 292 52 387 -8 q 146 214 198 111 q 94 444 94 316 q 133 656 94 555 q 241 837 172 758 q 406 962 311 916 q 611 1008 500 1008 q 783 973 707 1008 q 913 877 859 939 q 996 734 967 816 q 1024 557 1024 652 q 986 345 1024 446 q 879 164 948 243 q 717 38 810 84 q 513 -8 624 -8 m 510 103 q 670 141 597 103 q 794 245 742 180 q 874 393 846 311 q 902 562 902 475 q 868 732 902 656 q 770 852 835 808 q 612 897 705 897 q 452 858 524 897 q 326 753 379 819 q 244 606 273 688 q 215 437 215 524 q 250 267 215 342 q 351 147 285 191 q 510 103 416 103 m 673 1052 l 605 1109 l 770 1305 l 846 1230 l 673 1052 z "},"Ŏ":{"ha":1062,"x_min":94,"x_max":1024,"o":"m 513 -8 q 292 52 387 -8 q 146 214 198 111 q 94 444 94 316 q 133 656 94 555 q 241 837 172 758 q 406 962 311 916 q 611 1008 500 1008 q 783 973 707 1008 q 913 877 859 939 q 996 734 967 816 q 1024 557 1024 652 q 986 345 1024 446 q 879 164 948 243 q 717 38 810 84 q 513 -8 624 -8 m 510 103 q 670 141 597 103 q 794 245 742 180 q 874 393 846 311 q 902 562 902 475 q 868 732 902 656 q 770 852 835 808 q 612 897 705 897 q 452 858 524 897 q 326 753 379 819 q 244 606 273 688 q 215 437 215 524 q 250 267 215 342 q 351 147 285 191 q 510 103 416 103 m 665 1058 q 555 1083 601 1058 q 488 1152 509 1109 q 477 1248 467 1196 l 553 1237 q 560 1178 546 1202 q 603 1143 574 1154 q 667 1131 631 1131 q 781 1163 732 1131 q 840 1248 831 1195 l 918 1237 q 869 1140 908 1180 q 775 1080 830 1101 q 665 1058 721 1059 z "},"Ô":{"ha":1062,"x_min":94,"x_max":1024,"o":"m 513 -8 q 292 52 387 -8 q 146 214 198 111 q 94 444 94 316 q 133 656 94 555 q 241 837 172 758 q 406 962 311 916 q 611 1008 500 1008 q 783 973 707 1008 q 913 877 859 939 q 996 734 967 816 q 1024 557 1024 652 q 986 345 1024 446 q 879 164 948 243 q 717 38 810 84 q 513 -8 624 -8 m 510 103 q 670 141 597 103 q 794 245 742 180 q 874 393 846 311 q 902 562 902 475 q 868 732 902 656 q 770 852 835 808 q 612 897 705 897 q 452 858 524 897 q 326 753 379 819 q 244 606 273 688 q 215 437 215 524 q 250 267 215 342 q 351 147 285 191 q 510 103 416 103 m 497 1052 l 446 1115 l 686 1269 l 718 1269 l 898 1115 l 836 1052 l 695 1183 l 687 1183 l 497 1052 z "},"Ố":{"ha":1062,"x_min":94,"x_max":1082,"o":"m 513 -8 q 292 52 387 -8 q 146 214 198 111 q 94 444 94 316 q 133 656 94 555 q 241 837 172 758 q 406 962 311 916 q 611 1008 500 1008 q 783 973 707 1008 q 913 877 859 939 q 996 734 967 816 q 1024 557 1024 652 q 986 345 1024 446 q 879 164 948 243 q 717 38 810 84 q 513 -8 624 -8 m 510 103 q 670 141 597 103 q 794 245 742 180 q 874 393 846 311 q 902 562 902 475 q 868 732 902 656 q 770 852 835 808 q 612 897 705 897 q 452 858 524 897 q 326 753 379 819 q 244 606 273 688 q 215 437 215 524 q 250 267 215 342 q 351 147 285 191 q 510 103 416 103 m 848 1200 l 799 1246 l 1032 1444 l 1082 1366 l 848 1200 m 490 1042 l 440 1103 l 677 1259 l 711 1259 l 893 1103 l 830 1042 l 686 1171 l 682 1171 l 490 1042 z "},"Ộ":{"ha":1062,"x_min":94,"x_max":1024,"o":"m 513 -8 q 292 52 387 -8 q 146 214 198 111 q 94 444 94 316 q 133 656 94 555 q 241 837 172 758 q 406 962 311 916 q 611 1008 500 1008 q 783 973 707 1008 q 913 877 859 939 q 996 734 967 816 q 1024 557 1024 652 q 986 345 1024 446 q 879 164 948 243 q 717 38 810 84 q 513 -8 624 -8 m 510 103 q 670 141 597 103 q 794 245 742 180 q 874 393 846 311 q 902 562 902 475 q 868 732 902 656 q 770 852 835 808 q 612 897 705 897 q 452 858 524 897 q 326 753 379 819 q 244 606 273 688 q 215 437 215 524 q 250 267 215 342 q 351 147 285 191 q 510 103 416 103 m 456 -267 q 393 -241 418 -267 q 368 -179 368 -216 q 393 -117 368 -142 q 456 -91 418 -91 q 518 -117 492 -91 q 544 -179 544 -142 q 518 -241 544 -216 q 456 -267 492 -267 m 528 1053 l 477 1116 l 717 1270 l 749 1270 l 929 1116 l 867 1053 l 726 1183 l 718 1183 l 528 1053 z "},"Ồ":{"ha":1062,"x_min":94,"x_max":1024,"o":"m 513 -8 q 292 52 387 -8 q 146 214 198 111 q 94 444 94 316 q 133 656 94 555 q 241 837 172 758 q 406 962 311 916 q 611 1008 500 1008 q 783 973 707 1008 q 913 877 859 939 q 996 734 967 816 q 1024 557 1024 652 q 986 345 1024 446 q 879 164 948 243 q 717 38 810 84 q 513 -8 624 -8 m 510 103 q 670 141 597 103 q 794 245 742 180 q 874 393 846 311 q 902 562 902 475 q 868 732 902 656 q 770 852 835 808 q 612 897 705 897 q 452 858 524 897 q 326 753 379 819 q 244 606 273 688 q 215 437 215 524 q 250 267 215 342 q 351 147 285 191 q 510 103 416 103 m 500 1196 l 344 1391 l 419 1451 l 565 1238 l 500 1196 m 492 1040 l 441 1101 l 679 1256 l 712 1256 l 895 1101 l 831 1040 l 687 1168 l 683 1168 l 492 1040 z "},"Ổ":{"ha":1062,"x_min":94,"x_max":1024,"o":"m 513 -8 q 292 52 387 -8 q 146 214 198 111 q 94 444 94 316 q 133 656 94 555 q 241 837 172 758 q 406 962 311 916 q 611 1008 500 1008 q 783 973 707 1008 q 913 877 859 939 q 996 734 967 816 q 1024 557 1024 652 q 986 345 1024 446 q 879 164 948 243 q 717 38 810 84 q 513 -8 624 -8 m 510 103 q 670 141 597 103 q 794 245 742 180 q 874 393 846 311 q 902 562 902 475 q 868 732 902 656 q 770 852 835 808 q 612 897 705 897 q 452 858 524 897 q 326 753 379 819 q 244 606 273 688 q 215 437 215 524 q 250 267 215 342 q 351 147 285 191 q 510 103 416 103 m 848 1192 l 793 1240 q 841 1280 821 1257 q 865 1324 861 1303 q 857 1357 870 1346 q 808 1367 844 1367 q 771 1365 793 1367 q 729 1356 748 1362 l 738 1434 q 777 1443 756 1440 q 816 1445 798 1445 q 925 1412 893 1445 q 946 1329 956 1379 q 909 1251 938 1287 q 848 1192 880 1214 m 490 1042 l 440 1103 l 677 1259 l 711 1259 l 893 1103 l 830 1042 l 686 1171 l 682 1171 l 490 1042 z "},"Ỗ":{"ha":1062,"x_min":94,"x_max":1024,"o":"m 513 -8 q 292 52 387 -8 q 146 214 198 111 q 94 444 94 316 q 133 656 94 555 q 241 837 172 758 q 406 962 311 916 q 611 1008 500 1008 q 783 973 707 1008 q 913 877 859 939 q 996 734 967 816 q 1024 557 1024 652 q 986 345 1024 446 q 879 164 948 243 q 717 38 810 84 q 513 -8 624 -8 m 510 103 q 670 141 597 103 q 794 245 742 180 q 874 393 846 311 q 902 562 902 475 q 868 732 902 656 q 770 852 835 808 q 612 897 705 897 q 452 858 524 897 q 326 753 379 819 q 244 606 273 688 q 215 437 215 524 q 250 267 215 342 q 351 147 285 191 q 510 103 416 103 m 543 1289 l 463 1298 q 519 1408 477 1368 q 621 1448 562 1448 q 676 1436 654 1448 q 714 1408 699 1423 q 746 1379 730 1392 q 781 1367 761 1367 q 831 1393 810 1367 q 859 1456 852 1419 l 941 1447 q 910 1366 933 1402 q 855 1310 888 1331 q 783 1289 822 1289 q 729 1302 751 1289 q 691 1330 707 1314 q 657 1359 674 1346 q 619 1371 641 1371 q 573 1351 594 1371 q 543 1289 552 1330 m 492 1042 l 441 1103 l 679 1259 l 712 1259 l 895 1103 l 831 1042 l 687 1171 l 683 1171 l 492 1042 z "},"Ȍ":{"ha":1062,"x_min":94,"x_max":1024,"o":"m 513 -8 q 292 52 387 -8 q 146 214 198 111 q 94 444 94 316 q 133 656 94 555 q 241 837 172 758 q 406 962 311 916 q 611 1008 500 1008 q 783 973 707 1008 q 913 877 859 939 q 996 734 967 816 q 1024 557 1024 652 q 986 345 1024 446 q 879 164 948 243 q 717 38 810 84 q 513 -8 624 -8 m 510 103 q 670 141 597 103 q 794 245 742 180 q 874 393 846 311 q 902 562 902 475 q 868 732 902 656 q 770 852 835 808 q 612 897 705 897 q 452 858 524 897 q 326 753 379 819 q 244 606 273 688 q 215 437 215 524 q 250 267 215 342 q 351 147 285 191 q 510 103 416 103 m 519 1074 l 408 1290 l 501 1337 l 587 1105 l 519 1074 m 745 1074 l 639 1290 l 730 1337 l 815 1105 l 745 1074 z "},"Ö":{"ha":1062,"x_min":94,"x_max":1024,"o":"m 513 -8 q 292 52 387 -8 q 146 214 198 111 q 94 444 94 316 q 133 656 94 555 q 241 837 172 758 q 406 962 311 916 q 611 1008 500 1008 q 783 973 707 1008 q 913 877 859 939 q 996 734 967 816 q 1024 557 1024 652 q 986 345 1024 446 q 879 164 948 243 q 717 38 810 84 q 513 -8 624 -8 m 510 103 q 670 141 597 103 q 794 245 742 180 q 874 393 846 311 q 902 562 902 475 q 868 732 902 656 q 770 852 835 808 q 612 897 705 897 q 452 858 524 897 q 326 753 379 819 q 244 606 273 688 q 215 437 215 524 q 250 267 215 342 q 351 147 285 191 q 510 103 416 103 m 829 1071 q 768 1096 793 1071 q 742 1156 742 1120 q 765 1215 742 1192 q 825 1239 789 1239 q 885 1215 860 1239 q 910 1153 909 1192 q 887 1094 910 1116 q 829 1071 864 1071 m 532 1071 q 472 1096 497 1071 q 448 1156 448 1120 q 470 1215 448 1192 q 527 1239 492 1239 q 590 1213 565 1239 q 614 1152 614 1187 q 591 1095 614 1118 q 532 1071 568 1071 z "},"Ȫ":{"ha":1062,"x_min":94,"x_max":1024,"o":"m 513 -8 q 292 52 387 -8 q 146 214 198 111 q 94 444 94 316 q 133 656 94 555 q 241 837 172 758 q 406 962 311 916 q 611 1008 500 1008 q 783 973 707 1008 q 913 877 859 939 q 996 734 967 816 q 1024 557 1024 652 q 986 345 1024 446 q 879 164 948 243 q 717 38 810 84 q 513 -8 624 -8 m 510 103 q 670 141 597 103 q 794 245 742 180 q 874 393 846 311 q 902 562 902 475 q 868 732 902 656 q 770 852 835 808 q 612 897 705 897 q 452 858 524 897 q 326 753 379 819 q 244 606 273 688 q 215 437 215 524 q 250 267 215 342 q 351 147 285 191 q 510 103 416 103 m 829 1071 q 768 1096 793 1071 q 742 1156 742 1120 q 765 1215 742 1192 q 825 1239 789 1239 q 885 1215 860 1239 q 910 1153 909 1192 q 887 1094 910 1116 q 829 1071 864 1071 m 532 1071 q 472 1096 497 1071 q 448 1156 448 1120 q 470 1215 448 1192 q 527 1239 492 1239 q 590 1213 565 1239 q 614 1152 614 1187 q 591 1095 614 1118 q 532 1071 568 1071 m 463 1301 l 478 1386 l 972 1386 l 957 1301 l 463 1301 z "},"Ȱ":{"ha":1062,"x_min":94,"x_max":1024,"o":"m 513 -8 q 292 52 387 -8 q 146 214 198 111 q 94 444 94 316 q 133 656 94 555 q 241 837 172 758 q 406 962 311 916 q 611 1008 500 1008 q 783 973 707 1008 q 913 877 859 939 q 996 734 967 816 q 1024 557 1024 652 q 986 345 1024 446 q 879 164 948 243 q 717 38 810 84 q 513 -8 624 -8 m 510 103 q 670 141 597 103 q 794 245 742 180 q 874 393 846 311 q 902 562 902 475 q 868 732 902 656 q 770 852 835 808 q 612 897 705 897 q 452 858 524 897 q 326 753 379 819 q 244 606 273 688 q 215 437 215 524 q 250 267 215 342 q 351 147 285 191 q 510 103 416 103 m 688 1069 q 626 1095 651 1069 q 600 1158 600 1121 q 626 1220 600 1194 q 688 1246 651 1246 q 751 1220 725 1246 q 777 1158 777 1194 q 751 1095 777 1121 q 688 1069 725 1069 m 472 1307 l 488 1392 l 982 1392 l 966 1307 l 472 1307 z "},"Ọ":{"ha":1062,"x_min":94,"x_max":1024,"o":"m 513 -8 q 292 52 387 -8 q 146 214 198 111 q 94 444 94 316 q 133 656 94 555 q 241 837 172 758 q 406 962 311 916 q 611 1008 500 1008 q 783 973 707 1008 q 913 877 859 939 q 996 734 967 816 q 1024 557 1024 652 q 986 345 1024 446 q 879 164 948 243 q 717 38 810 84 q 513 -8 624 -8 m 510 103 q 670 141 597 103 q 794 245 742 180 q 874 393 846 311 q 902 562 902 475 q 868 732 902 656 q 770 852 835 808 q 612 897 705 897 q 452 858 524 897 q 326 753 379 819 q 244 606 273 688 q 215 437 215 524 q 250 267 215 342 q 351 147 285 191 q 510 103 416 103 m 442 -267 q 379 -241 405 -267 q 354 -179 354 -216 q 379 -117 354 -142 q 442 -91 405 -91 q 505 -117 479 -91 q 530 -179 530 -142 q 505 -241 530 -216 q 442 -267 479 -267 z "},"Ò":{"ha":1062,"x_min":94,"x_max":1024,"o":"m 513 -8 q 292 52 387 -8 q 146 214 198 111 q 94 444 94 316 q 133 656 94 555 q 241 837 172 758 q 406 962 311 916 q 611 1008 500 1008 q 783 973 707 1008 q 913 877 859 939 q 996 734 967 816 q 1024 557 1024 652 q 986 345 1024 446 q 879 164 948 243 q 717 38 810 84 q 513 -8 624 -8 m 510 103 q 670 141 597 103 q 794 245 742 180 q 874 393 846 311 q 902 562 902 475 q 868 732 902 656 q 770 852 835 808 q 612 897 705 897 q 452 858 524 897 q 326 753 379 819 q 244 606 273 688 q 215 437 215 524 q 250 267 215 342 q 351 147 285 191 q 510 103 416 103 m 661 1052 l 477 1230 l 548 1305 l 724 1109 l 661 1052 z "},"Ỏ":{"ha":1062,"x_min":94,"x_max":1024,"o":"m 513 -8 q 292 52 387 -8 q 146 214 198 111 q 94 444 94 316 q 133 656 94 555 q 241 837 172 758 q 406 962 311 916 q 611 1008 500 1008 q 783 973 707 1008 q 913 877 859 939 q 996 734 967 816 q 1024 557 1024 652 q 986 345 1024 446 q 879 164 948 243 q 717 38 810 84 q 513 -8 624 -8 m 510 103 q 670 141 597 103 q 794 245 742 180 q 874 393 846 311 q 902 562 902 475 q 868 732 902 656 q 770 852 835 808 q 612 897 705 897 q 452 858 524 897 q 326 753 379 819 q 244 606 273 688 q 215 437 215 524 q 250 267 215 342 q 351 147 285 191 q 510 103 416 103 m 682 1075 l 642 1128 q 694 1165 674 1144 q 718 1207 713 1187 q 710 1242 724 1230 q 664 1255 696 1255 q 619 1250 643 1255 q 578 1239 595 1245 l 587 1320 q 629 1329 608 1326 q 671 1332 650 1332 q 776 1298 745 1332 q 795 1211 806 1263 q 755 1132 787 1168 q 682 1075 724 1097 z "},"Ơ":{"ha":1062,"x_min":94,"x_max":1091,"o":"m 513 -8 q 292 52 387 -8 q 146 214 198 111 q 94 444 94 316 q 133 656 94 555 q 241 837 172 758 q 406 962 311 916 q 611 1008 500 1008 q 783 973 707 1008 q 913 877 859 939 q 996 734 967 816 q 1024 557 1024 652 q 986 345 1024 446 q 879 164 948 243 q 717 38 810 84 q 513 -8 624 -8 m 510 103 q 670 141 597 103 q 794 245 742 180 q 874 393 846 311 q 902 562 902 475 q 868 732 902 656 q 770 852 835 808 q 612 897 705 897 q 452 858 524 897 q 326 753 379 819 q 244 606 273 688 q 215 437 215 524 q 250 267 215 342 q 351 147 285 191 q 510 103 416 103 m 796 876 l 804 959 q 926 998 877 959 q 991 1109 976 1038 q 995 1143 994 1124 q 996 1173 996 1161 l 1088 1177 q 1089 1132 1091 1159 q 1081 1080 1086 1104 q 1044 994 1072 1033 q 978 928 1017 956 q 892 887 939 901 q 796 876 845 873 z "},"Ớ":{"ha":1062,"x_min":94,"x_max":1091,"o":"m 513 -8 q 292 52 387 -8 q 146 214 198 111 q 94 444 94 316 q 133 656 94 555 q 241 837 172 758 q 406 962 311 916 q 611 1008 500 1008 q 783 973 707 1008 q 913 877 859 939 q 996 734 967 816 q 1024 557 1024 652 q 986 345 1024 446 q 879 164 948 243 q 717 38 810 84 q 513 -8 624 -8 m 510 103 q 670 141 597 103 q 794 245 742 180 q 874 393 846 311 q 902 562 902 475 q 868 732 902 656 q 770 852 835 808 q 612 897 705 897 q 452 858 524 897 q 326 753 379 819 q 244 606 273 688 q 215 437 215 524 q 250 267 215 342 q 351 147 285 191 q 510 103 416 103 m 796 876 l 804 959 q 926 998 877 959 q 991 1109 976 1038 q 995 1143 994 1124 q 996 1173 996 1161 l 1088 1177 q 1089 1132 1091 1159 q 1081 1080 1086 1104 q 1044 994 1072 1033 q 978 928 1017 956 q 892 887 939 901 q 796 876 845 873 m 673 1052 l 605 1109 l 770 1305 l 846 1230 l 673 1052 z "},"Ợ":{"ha":1062,"x_min":94,"x_max":1091,"o":"m 513 -8 q 292 52 387 -8 q 146 214 198 111 q 94 444 94 316 q 133 656 94 555 q 241 837 172 758 q 406 962 311 916 q 611 1008 500 1008 q 783 973 707 1008 q 913 877 859 939 q 996 734 967 816 q 1024 557 1024 652 q 986 345 1024 446 q 879 164 948 243 q 717 38 810 84 q 513 -8 624 -8 m 510 103 q 670 141 597 103 q 794 245 742 180 q 874 393 846 311 q 902 562 902 475 q 868 732 902 656 q 770 852 835 808 q 612 897 705 897 q 452 858 524 897 q 326 753 379 819 q 244 606 273 688 q 215 437 215 524 q 250 267 215 342 q 351 147 285 191 q 510 103 416 103 m 796 876 l 804 959 q 926 998 877 959 q 991 1109 976 1038 q 995 1143 994 1124 q 996 1173 996 1161 l 1088 1177 q 1089 1132 1091 1159 q 1081 1080 1086 1104 q 1044 994 1072 1033 q 978 928 1017 956 q 892 887 939 901 q 796 876 845 873 m 456 -267 q 393 -241 418 -267 q 368 -179 368 -216 q 393 -117 368 -142 q 456 -91 418 -91 q 518 -117 492 -91 q 544 -179 544 -142 q 518 -241 544 -216 q 456 -267 492 -267 z "},"Ờ":{"ha":1062,"x_min":94,"x_max":1091,"o":"m 513 -8 q 292 52 387 -8 q 146 214 198 111 q 94 444 94 316 q 133 656 94 555 q 241 837 172 758 q 406 962 311 916 q 611 1008 500 1008 q 783 973 707 1008 q 913 877 859 939 q 996 734 967 816 q 1024 557 1024 652 q 986 345 1024 446 q 879 164 948 243 q 717 38 810 84 q 513 -8 624 -8 m 510 103 q 670 141 597 103 q 794 245 742 180 q 874 393 846 311 q 902 562 902 475 q 868 732 902 656 q 770 852 835 808 q 612 897 705 897 q 452 858 524 897 q 326 753 379 819 q 244 606 273 688 q 215 437 215 524 q 250 267 215 342 q 351 147 285 191 q 510 103 416 103 m 796 876 l 804 959 q 926 998 877 959 q 991 1109 976 1038 q 995 1143 994 1124 q 996 1173 996 1161 l 1088 1177 q 1089 1132 1091 1159 q 1081 1080 1086 1104 q 1044 994 1072 1033 q 978 928 1017 956 q 892 887 939 901 q 796 876 845 873 m 661 1052 l 477 1230 l 548 1305 l 724 1109 l 661 1052 z "},"Ở":{"ha":1062,"x_min":94,"x_max":1091,"o":"m 513 -8 q 292 52 387 -8 q 146 214 198 111 q 94 444 94 316 q 133 656 94 555 q 241 837 172 758 q 406 962 311 916 q 611 1008 500 1008 q 783 973 707 1008 q 913 877 859 939 q 996 734 967 816 q 1024 557 1024 652 q 986 345 1024 446 q 879 164 948 243 q 717 38 810 84 q 513 -8 624 -8 m 510 103 q 670 141 597 103 q 794 245 742 180 q 874 393 846 311 q 902 562 902 475 q 868 732 902 656 q 770 852 835 808 q 612 897 705 897 q 452 858 524 897 q 326 753 379 819 q 244 606 273 688 q 215 437 215 524 q 250 267 215 342 q 351 147 285 191 q 510 103 416 103 m 796 876 l 804 959 q 926 998 877 959 q 991 1109 976 1038 q 995 1143 994 1124 q 996 1173 996 1161 l 1088 1177 q 1089 1132 1091 1159 q 1081 1080 1086 1104 q 1044 994 1072 1033 q 978 928 1017 956 q 892 887 939 901 q 796 876 845 873 m 682 1075 l 642 1128 q 694 1165 674 1144 q 718 1207 713 1187 q 710 1242 724 1230 q 664 1255 696 1255 q 619 1250 643 1255 q 578 1239 595 1245 l 587 1320 q 629 1329 608 1326 q 671 1332 650 1332 q 776 1298 745 1332 q 795 1211 806 1263 q 755 1132 787 1168 q 682 1075 724 1097 z "},"Ỡ":{"ha":1062,"x_min":94,"x_max":1091,"o":"m 513 -8 q 292 52 387 -8 q 146 214 198 111 q 94 444 94 316 q 133 656 94 555 q 241 837 172 758 q 406 962 311 916 q 611 1008 500 1008 q 783 973 707 1008 q 913 877 859 939 q 996 734 967 816 q 1024 557 1024 652 q 986 345 1024 446 q 879 164 948 243 q 717 38 810 84 q 513 -8 624 -8 m 510 103 q 670 141 597 103 q 794 245 742 180 q 874 393 846 311 q 902 562 902 475 q 868 732 902 656 q 770 852 835 808 q 612 897 705 897 q 452 858 524 897 q 326 753 379 819 q 244 606 273 688 q 215 437 215 524 q 250 267 215 342 q 351 147 285 191 q 510 103 416 103 m 796 876 l 804 959 q 926 998 877 959 q 991 1109 976 1038 q 995 1143 994 1124 q 996 1173 996 1161 l 1088 1177 q 1089 1132 1091 1159 q 1081 1080 1086 1104 q 1044 994 1072 1033 q 978 928 1017 956 q 892 887 939 901 q 796 876 845 873 m 519 1069 l 443 1081 q 499 1195 458 1152 q 599 1238 541 1238 q 657 1225 635 1238 q 693 1196 680 1213 q 721 1166 707 1179 q 753 1154 734 1154 q 808 1181 784 1154 q 839 1244 832 1208 l 918 1233 q 861 1119 903 1163 q 760 1076 819 1076 q 704 1088 725 1076 q 668 1118 683 1101 q 638 1147 653 1135 q 602 1160 623 1160 q 552 1135 574 1160 q 519 1069 529 1109 z "},"Ő":{"ha":1062,"x_min":94,"x_max":1024,"o":"m 513 -8 q 292 52 387 -8 q 146 214 198 111 q 94 444 94 316 q 133 656 94 555 q 241 837 172 758 q 406 962 311 916 q 611 1008 500 1008 q 783 973 707 1008 q 913 877 859 939 q 996 734 967 816 q 1024 557 1024 652 q 986 345 1024 446 q 879 164 948 243 q 717 38 810 84 q 513 -8 624 -8 m 510 103 q 670 141 597 103 q 794 245 742 180 q 874 393 846 311 q 902 562 902 475 q 868 732 902 656 q 770 852 835 808 q 612 897 705 897 q 452 858 524 897 q 326 753 379 819 q 244 606 273 688 q 215 437 215 524 q 250 267 215 342 q 351 147 285 191 q 510 103 416 103 m 582 1074 l 522 1105 l 700 1337 l 773 1290 l 582 1074 m 810 1074 l 751 1105 l 926 1337 l 1001 1290 l 810 1074 z "},"Ȏ":{"ha":1062,"x_min":94,"x_max":1024,"o":"m 513 -8 q 292 52 387 -8 q 146 214 198 111 q 94 444 94 316 q 133 656 94 555 q 241 837 172 758 q 406 962 311 916 q 611 1008 500 1008 q 783 973 707 1008 q 913 877 859 939 q 996 734 967 816 q 1024 557 1024 652 q 986 345 1024 446 q 879 164 948 243 q 717 38 810 84 q 513 -8 624 -8 m 510 103 q 670 141 597 103 q 794 245 742 180 q 874 393 846 311 q 902 562 902 475 q 868 732 902 656 q 770 852 835 808 q 612 897 705 897 q 452 858 524 897 q 326 753 379 819 q 244 606 273 688 q 215 437 215 524 q 250 267 215 342 q 351 147 285 191 q 510 103 416 103 m 879 1049 l 803 1061 q 779 1140 813 1107 q 683 1172 745 1172 q 574 1139 620 1172 q 517 1053 528 1105 l 440 1065 q 489 1161 452 1122 q 579 1222 526 1201 q 688 1244 631 1243 q 800 1218 753 1244 q 870 1146 848 1191 q 879 1049 892 1101 z "},"Ō":{"ha":1062,"x_min":94,"x_max":1024,"o":"m 513 -8 q 292 52 387 -8 q 146 214 198 111 q 94 444 94 316 q 133 656 94 555 q 241 837 172 758 q 406 962 311 916 q 611 1008 500 1008 q 783 973 707 1008 q 913 877 859 939 q 996 734 967 816 q 1024 557 1024 652 q 986 345 1024 446 q 879 164 948 243 q 717 38 810 84 q 513 -8 624 -8 m 510 103 q 670 141 597 103 q 794 245 742 180 q 874 393 846 311 q 902 562 902 475 q 868 732 902 656 q 770 852 835 808 q 612 897 705 897 q 452 858 524 897 q 326 753 379 819 q 244 606 273 688 q 215 437 215 524 q 250 267 215 342 q 351 147 285 191 q 510 103 416 103 m 425 1110 l 440 1195 l 935 1195 l 919 1110 l 425 1110 z "},"Ṓ":{"ha":1062,"x_min":94,"x_max":1024,"o":"m 448 1110 l 464 1195 l 958 1195 l 943 1110 l 448 1110 m 736 1247 l 667 1304 l 833 1500 l 908 1426 l 736 1247 m 513 -8 q 292 52 387 -8 q 146 214 198 111 q 94 444 94 316 q 133 656 94 555 q 241 837 172 758 q 406 962 311 916 q 611 1008 500 1008 q 783 973 707 1008 q 913 877 859 939 q 996 734 967 816 q 1024 557 1024 652 q 986 345 1024 446 q 879 164 948 243 q 717 38 810 84 q 513 -8 624 -8 m 510 103 q 670 141 597 103 q 794 245 742 180 q 874 393 846 311 q 902 562 902 475 q 868 732 902 656 q 770 852 835 808 q 612 897 705 897 q 452 858 524 897 q 326 753 379 819 q 244 606 273 688 q 215 437 215 524 q 250 267 215 342 q 351 147 285 191 q 510 103 416 103 z "},"Ṑ":{"ha":1062,"x_min":94,"x_max":1024,"o":"m 513 -8 q 292 52 387 -8 q 146 214 198 111 q 94 444 94 316 q 133 656 94 555 q 241 837 172 758 q 406 962 311 916 q 611 1008 500 1008 q 783 973 707 1008 q 913 877 859 939 q 996 734 967 816 q 1024 557 1024 652 q 986 345 1024 446 q 879 164 948 243 q 717 38 810 84 q 513 -8 624 -8 m 510 103 q 670 141 597 103 q 794 245 742 180 q 874 393 846 311 q 902 562 902 475 q 868 732 902 656 q 770 852 835 808 q 612 897 705 897 q 452 858 524 897 q 326 753 379 819 q 244 606 273 688 q 215 437 215 524 q 250 267 215 342 q 351 147 285 191 q 510 103 416 103 m 425 1110 l 440 1195 l 935 1195 l 919 1110 l 425 1110 m 699 1247 l 516 1426 l 587 1500 l 763 1304 l 699 1247 z "},"Ǫ":{"ha":1062,"x_min":94,"x_max":1024,"o":"m 513 -8 q 292 52 387 -8 q 146 214 198 111 q 94 444 94 316 q 133 656 94 555 q 241 837 172 758 q 406 962 311 916 q 611 1008 500 1008 q 783 973 707 1008 q 913 877 859 939 q 996 734 967 816 q 1024 557 1024 652 q 986 345 1024 446 q 879 164 948 243 q 717 38 810 84 q 513 -8 624 -8 m 510 103 q 670 141 597 103 q 794 245 742 180 q 874 393 846 311 q 902 562 902 475 q 868 732 902 656 q 770 852 835 808 q 612 897 705 897 q 452 858 524 897 q 326 753 379 819 q 244 606 273 688 q 215 437 215 524 q 250 267 215 342 q 351 147 285 191 q 510 103 416 103 m 471 -275 q 386 -240 414 -275 q 368 -150 357 -204 q 426 -55 380 -97 q 536 28 473 -14 l 600 0 q 535 -49 568 -24 q 476 -100 501 -74 q 446 -153 452 -125 q 454 -188 442 -176 q 492 -200 466 -200 q 544 -190 518 -200 q 583 -174 569 -180 l 571 -254 q 523 -269 552 -263 q 471 -275 493 -275 z "},"Ø":{"ha":1062,"x_min":14,"x_max":1103,"o":"m 513 -8 q 292 52 387 -8 q 146 214 198 111 q 94 444 94 316 q 133 656 94 555 q 241 837 172 758 q 406 962 311 916 q 611 1008 500 1008 q 783 973 707 1008 q 913 877 859 939 q 996 734 967 816 q 1024 557 1024 652 q 986 345 1024 446 q 879 164 948 243 q 717 38 810 84 q 513 -8 624 -8 m 510 103 q 670 141 597 103 q 794 245 742 180 q 874 393 846 311 q 902 562 902 475 q 868 732 902 656 q 770 852 835 808 q 612 897 705 897 q 452 858 524 897 q 326 753 379 819 q 244 606 273 688 q 215 437 215 524 q 250 267 215 342 q 351 147 285 191 q 510 103 416 103 m 77 -10 l 14 55 l 1040 1009 l 1103 944 l 77 -10 z "},"Ǿ":{"ha":1062,"x_min":14,"x_max":1103,"o":"m 513 -8 q 292 52 387 -8 q 146 214 198 111 q 94 444 94 316 q 133 656 94 555 q 241 837 172 758 q 406 962 311 916 q 611 1008 500 1008 q 783 973 707 1008 q 913 877 859 939 q 996 734 967 816 q 1024 557 1024 652 q 986 345 1024 446 q 879 164 948 243 q 717 38 810 84 q 513 -8 624 -8 m 510 103 q 670 141 597 103 q 794 245 742 180 q 874 393 846 311 q 902 562 902 475 q 868 732 902 656 q 770 852 835 808 q 612 897 705 897 q 452 858 524 897 q 326 753 379 819 q 244 606 273 688 q 215 437 215 524 q 250 267 215 342 q 351 147 285 191 q 510 103 416 103 m 77 -10 l 14 55 l 1040 1009 l 1103 944 l 77 -10 m 673 1052 l 605 1109 l 770 1305 l 846 1230 l 673 1052 z "},"Õ":{"ha":1062,"x_min":94,"x_max":1024,"o":"m 513 -8 q 292 52 387 -8 q 146 214 198 111 q 94 444 94 316 q 133 656 94 555 q 241 837 172 758 q 406 962 311 916 q 611 1008 500 1008 q 783 973 707 1008 q 913 877 859 939 q 996 734 967 816 q 1024 557 1024 652 q 986 345 1024 446 q 879 164 948 243 q 717 38 810 84 q 513 -8 624 -8 m 510 103 q 670 141 597 103 q 794 245 742 180 q 874 393 846 311 q 902 562 902 475 q 868 732 902 656 q 770 852 835 808 q 612 897 705 897 q 452 858 524 897 q 326 753 379 819 q 244 606 273 688 q 215 437 215 524 q 250 267 215 342 q 351 147 285 191 q 510 103 416 103 m 519 1069 l 443 1081 q 499 1195 458 1152 q 599 1238 541 1238 q 657 1225 635 1238 q 693 1196 680 1213 q 721 1166 707 1179 q 753 1154 734 1154 q 808 1181 784 1154 q 839 1244 832 1208 l 918 1233 q 861 1119 903 1163 q 760 1076 819 1076 q 704 1088 725 1076 q 668 1118 683 1101 q 638 1147 653 1135 q 602 1160 623 1160 q 552 1135 574 1160 q 519 1069 529 1109 z "},"Ṍ":{"ha":1062,"x_min":94,"x_max":1024,"o":"m 513 -8 q 292 52 387 -8 q 146 214 198 111 q 94 444 94 316 q 133 656 94 555 q 241 837 172 758 q 406 962 311 916 q 611 1008 500 1008 q 783 973 707 1008 q 913 877 859 939 q 996 734 967 816 q 1024 557 1024 652 q 986 345 1024 446 q 879 164 948 243 q 717 38 810 84 q 513 -8 624 -8 m 510 103 q 670 141 597 103 q 794 245 742 180 q 874 393 846 311 q 902 562 902 475 q 868 732 902 656 q 770 852 835 808 q 612 897 705 897 q 452 858 524 897 q 326 753 379 819 q 244 606 273 688 q 215 437 215 524 q 250 267 215 342 q 351 147 285 191 q 510 103 416 103 m 519 1069 l 443 1081 q 499 1195 458 1152 q 599 1238 541 1238 q 657 1225 635 1238 q 693 1196 680 1213 q 721 1166 707 1179 q 753 1154 734 1154 q 808 1181 784 1154 q 839 1244 832 1208 l 918 1233 q 861 1119 903 1163 q 760 1076 819 1076 q 704 1088 725 1076 q 668 1118 683 1101 q 638 1147 653 1135 q 602 1160 623 1160 q 552 1135 574 1160 q 519 1069 529 1109 m 718 1274 l 650 1331 l 815 1527 l 890 1452 l 718 1274 z "},"Ṏ":{"ha":1062,"x_min":94,"x_max":1024,"o":"m 513 -8 q 292 52 387 -8 q 146 214 198 111 q 94 444 94 316 q 133 656 94 555 q 241 837 172 758 q 406 962 311 916 q 611 1008 500 1008 q 783 973 707 1008 q 913 877 859 939 q 996 734 967 816 q 1024 557 1024 652 q 986 345 1024 446 q 879 164 948 243 q 717 38 810 84 q 513 -8 624 -8 m 510 103 q 670 141 597 103 q 794 245 742 180 q 874 393 846 311 q 902 562 902 475 q 868 732 902 656 q 770 852 835 808 q 612 897 705 897 q 452 858 524 897 q 326 753 379 819 q 244 606 273 688 q 215 437 215 524 q 250 267 215 342 q 351 147 285 191 q 510 103 416 103 m 519 1069 l 443 1081 q 499 1195 458 1152 q 599 1238 541 1238 q 657 1225 635 1238 q 693 1196 680 1213 q 721 1166 707 1179 q 753 1154 734 1154 q 808 1181 784 1154 q 839 1244 832 1208 l 918 1233 q 861 1119 903 1163 q 760 1076 819 1076 q 704 1088 725 1076 q 668 1118 683 1101 q 638 1147 653 1135 q 602 1160 623 1160 q 552 1135 574 1160 q 519 1069 529 1109 m 874 1293 q 812 1317 838 1293 q 787 1377 787 1342 q 810 1437 787 1413 q 870 1461 833 1461 q 929 1437 905 1461 q 955 1375 954 1413 q 932 1315 955 1338 q 874 1293 909 1293 m 577 1293 q 517 1317 542 1293 q 492 1377 492 1342 q 515 1437 492 1413 q 572 1461 537 1461 q 634 1435 610 1461 q 659 1373 659 1409 q 636 1316 659 1340 q 577 1293 613 1293 z "},"Ȭ":{"ha":1062,"x_min":94,"x_max":1024,"o":"m 513 -8 q 292 52 387 -8 q 146 214 198 111 q 94 444 94 316 q 133 656 94 555 q 241 837 172 758 q 406 962 311 916 q 611 1008 500 1008 q 783 973 707 1008 q 913 877 859 939 q 996 734 967 816 q 1024 557 1024 652 q 986 345 1024 446 q 879 164 948 243 q 717 38 810 84 q 513 -8 624 -8 m 510 103 q 670 141 597 103 q 794 245 742 180 q 874 393 846 311 q 902 562 902 475 q 868 732 902 656 q 770 852 835 808 q 612 897 705 897 q 452 858 524 897 q 326 753 379 819 q 244 606 273 688 q 215 437 215 524 q 250 267 215 342 q 351 147 285 191 q 510 103 416 103 m 519 1069 l 443 1081 q 499 1195 458 1152 q 599 1238 541 1238 q 657 1225 635 1238 q 693 1196 680 1213 q 721 1166 707 1179 q 753 1154 734 1154 q 808 1181 784 1154 q 839 1244 832 1208 l 918 1233 q 861 1119 903 1163 q 760 1076 819 1076 q 704 1088 725 1076 q 668 1118 683 1101 q 638 1147 653 1135 q 602 1160 623 1160 q 552 1135 574 1160 q 519 1069 529 1109 m 469 1332 l 485 1417 l 979 1417 l 964 1332 l 469 1332 z "},"Œ":{"ha":1483,"x_min":86,"x_max":1532,"o":"m 478 -11 q 317 21 389 -11 q 193 109 245 52 q 114 242 142 165 q 86 408 86 319 q 130 634 86 526 q 252 827 174 742 q 432 961 330 911 q 651 1010 534 1010 q 820 976 747 1010 q 939 877 894 941 q 994 723 984 812 l 951 728 l 1004 1000 l 1532 1000 l 1510 888 l 1097 888 l 1031 562 l 1385 562 l 1364 454 l 1008 454 l 941 111 l 1354 111 l 1332 0 l 805 0 l 859 271 l 907 264 q 723 60 837 132 q 478 -11 610 -11 m 493 100 q 667 143 587 100 q 805 257 747 185 q 897 417 864 328 q 929 600 929 506 q 898 757 929 690 q 806 862 867 824 q 658 899 746 899 q 481 858 564 899 q 337 746 399 817 q 240 587 275 675 q 205 405 205 498 q 240 245 205 314 q 341 139 276 177 q 493 100 406 100 z "},"P":{"ha":789,"x_min":45,"x_max":802,"o":"m 218 396 l 239 507 l 461 507 q 576 535 526 507 q 653 612 625 563 q 681 723 681 661 q 655 815 681 779 q 590 870 630 852 q 505 888 550 888 l 311 888 l 334 1000 l 511 1000 q 660 967 595 1000 q 764 874 726 934 q 802 734 802 814 q 757 557 802 633 q 633 439 712 481 q 452 396 555 396 l 218 396 m 45 0 l 244 1000 l 369 1000 l 170 0 l 45 0 z "},"Þ":{"ha":806,"x_min":45,"x_max":781,"o":"m 179 198 l 201 309 l 439 309 q 553 342 503 309 q 632 429 603 375 q 661 545 661 483 q 612 655 661 620 q 486 690 564 690 l 277 690 l 300 802 l 503 802 q 705 739 629 802 q 781 559 781 675 q 735 376 781 458 q 608 246 688 294 q 426 198 528 198 l 179 198 m 45 0 l 243 1000 l 368 1000 l 170 0 l 45 0 z "},"Q":{"ha":1082,"x_min":94,"x_max":1024,"o":"m 845 0 l 764 121 l 724 149 l 555 393 l 684 393 l 812 202 l 857 165 l 970 0 l 845 0 m 513 -8 q 292 52 387 -8 q 146 214 198 111 q 94 444 94 316 q 133 656 94 555 q 241 837 172 758 q 406 962 311 916 q 611 1008 500 1008 q 783 973 707 1008 q 913 877 859 939 q 996 734 967 816 q 1024 557 1024 652 q 986 345 1024 446 q 879 164 948 243 q 717 38 810 84 q 513 -8 624 -8 m 510 103 q 670 141 597 103 q 794 245 742 180 q 874 393 846 311 q 902 562 902 475 q 868 732 902 656 q 770 852 835 808 q 612 897 705 897 q 452 858 524 897 q 326 753 379 819 q 244 606 273 688 q 215 437 215 524 q 250 267 215 342 q 351 147 285 191 q 510 103 416 103 z "},"R":{"ha":852,"x_min":45,"x_max":796,"o":"m 216 404 l 235 507 l 448 507 q 567 535 516 507 q 647 611 618 563 q 675 720 675 660 q 624 846 675 804 q 499 888 572 888 l 307 888 l 331 1000 l 506 1000 q 655 967 590 1000 q 759 874 721 935 q 796 726 796 813 q 750 558 796 631 q 623 445 704 486 q 437 404 542 404 l 216 404 m 45 0 l 245 1000 l 370 1000 l 170 0 l 45 0 m 592 0 l 393 422 l 492 492 l 724 0 l 592 0 z "},"Ŕ":{"ha":852,"x_min":45,"x_max":796,"o":"m 216 404 l 235 507 l 448 507 q 567 535 516 507 q 647 611 618 563 q 675 720 675 660 q 624 846 675 804 q 499 888 572 888 l 307 888 l 331 1000 l 506 1000 q 655 967 590 1000 q 759 874 721 935 q 796 726 796 813 q 750 558 796 631 q 623 445 704 486 q 437 404 542 404 l 216 404 m 45 0 l 245 1000 l 370 1000 l 170 0 l 45 0 m 592 0 l 393 422 l 492 492 l 724 0 l 592 0 m 541 1052 l 472 1109 l 637 1305 l 713 1230 l 541 1052 z "},"Ř":{"ha":852,"x_min":45,"x_max":796,"o":"m 216 404 l 235 507 l 448 507 q 567 535 516 507 q 647 611 618 563 q 675 720 675 660 q 624 846 675 804 q 499 888 572 888 l 307 888 l 331 1000 l 506 1000 q 655 967 590 1000 q 759 874 721 935 q 796 726 796 813 q 750 558 796 631 q 623 445 704 486 q 437 404 542 404 l 216 404 m 45 0 l 245 1000 l 370 1000 l 170 0 l 45 0 m 592 0 l 393 422 l 492 492 l 724 0 l 592 0 m 506 1052 l 325 1208 l 387 1269 l 529 1139 l 536 1139 l 728 1269 l 779 1208 l 538 1052 l 506 1052 z "},"Ŗ":{"ha":852,"x_min":45,"x_max":796,"o":"m 216 404 l 235 507 l 448 507 q 567 535 516 507 q 647 611 618 563 q 675 720 675 660 q 624 846 675 804 q 499 888 572 888 l 307 888 l 331 1000 l 506 1000 q 655 967 590 1000 q 759 874 721 935 q 796 726 796 813 q 750 558 796 631 q 623 445 704 486 q 437 404 542 404 l 216 404 m 45 0 l 245 1000 l 370 1000 l 170 0 l 45 0 m 592 0 l 393 422 l 492 492 l 724 0 l 592 0 m 248 -368 l 220 -330 l 294 -277 q 323 -254 309 -266 q 346 -228 337 -243 q 355 -196 355 -214 l 371 -196 q 360 -221 369 -210 q 331 -232 351 -232 q 287 -213 308 -232 q 266 -164 266 -193 q 284 -120 266 -139 q 332 -100 303 -100 q 382 -121 360 -100 q 405 -180 405 -141 q 380 -258 405 -227 q 326 -310 355 -290 l 248 -368 z "},"Ȑ":{"ha":852,"x_min":45,"x_max":796,"o":"m 216 404 l 235 507 l 448 507 q 567 535 516 507 q 647 611 618 563 q 675 720 675 660 q 624 846 675 804 q 499 888 572 888 l 307 888 l 331 1000 l 506 1000 q 655 967 590 1000 q 759 874 721 935 q 796 726 796 813 q 750 558 796 631 q 623 445 704 486 q 437 404 542 404 l 216 404 m 45 0 l 245 1000 l 370 1000 l 170 0 l 45 0 m 592 0 l 393 422 l 492 492 l 724 0 l 592 0 m 387 1074 l 275 1290 l 368 1337 l 454 1105 l 387 1074 m 612 1074 l 506 1290 l 597 1337 l 682 1105 l 612 1074 z "},"Ṛ":{"ha":852,"x_min":45,"x_max":796,"o":"m 216 404 l 235 507 l 448 507 q 567 535 516 507 q 647 611 618 563 q 675 720 675 660 q 624 846 675 804 q 499 888 572 888 l 307 888 l 331 1000 l 506 1000 q 655 967 590 1000 q 759 874 721 935 q 796 726 796 813 q 750 558 796 631 q 623 445 704 486 q 437 404 542 404 l 216 404 m 45 0 l 245 1000 l 370 1000 l 170 0 l 45 0 m 592 0 l 393 422 l 492 492 l 724 0 l 592 0 m 330 -267 q 267 -241 292 -267 q 241 -179 241 -216 q 267 -117 241 -142 q 330 -91 292 -91 q 392 -117 366 -91 q 418 -179 418 -142 q 392 -241 418 -216 q 330 -267 366 -267 z "},"Ȓ":{"ha":852,"x_min":45,"x_max":796,"o":"m 216 404 l 235 507 l 448 507 q 567 535 516 507 q 647 611 618 563 q 675 720 675 660 q 624 846 675 804 q 499 888 572 888 l 307 888 l 331 1000 l 506 1000 q 655 967 590 1000 q 759 874 721 935 q 796 726 796 813 q 750 558 796 631 q 623 445 704 486 q 437 404 542 404 l 216 404 m 45 0 l 245 1000 l 370 1000 l 170 0 l 45 0 m 592 0 l 393 422 l 492 492 l 724 0 l 592 0 m 746 1049 l 670 1061 q 646 1140 680 1107 q 550 1172 612 1172 q 441 1139 487 1172 q 384 1053 395 1105 l 307 1065 q 356 1161 319 1122 q 446 1222 393 1201 q 555 1244 498 1243 q 667 1218 620 1244 q 737 1146 715 1191 q 746 1049 759 1101 z "},"Ṟ":{"ha":852,"x_min":45,"x_max":796,"o":"m 216 404 l 235 507 l 448 507 q 567 535 516 507 q 647 611 618 563 q 675 720 675 660 q 624 846 675 804 q 499 888 572 888 l 307 888 l 331 1000 l 506 1000 q 655 967 590 1000 q 759 874 721 935 q 796 726 796 813 q 750 558 796 631 q 623 445 704 486 q 437 404 542 404 l 216 404 m 45 0 l 245 1000 l 370 1000 l 170 0 l 45 0 m 592 0 l 393 422 l 492 492 l 724 0 l 592 0 m 66 -267 l 82 -189 l 574 -189 l 558 -267 l 66 -267 z "},"S":{"ha":747,"x_min":35,"x_max":738,"o":"m 341 -11 q 192 22 258 -11 q 85 107 126 55 q 35 216 44 159 l 155 258 q 188 180 160 216 q 258 122 215 144 q 349 100 300 100 q 447 127 404 100 q 515 196 490 153 q 540 286 540 238 q 513 371 540 336 q 444 431 486 405 q 355 483 402 457 q 265 541 307 509 q 196 621 223 574 q 170 736 170 667 q 208 879 170 817 q 314 976 247 941 q 467 1010 381 1010 q 595 986 538 1010 q 689 922 652 962 q 738 831 726 881 l 625 789 q 597 839 618 814 q 543 882 576 865 q 463 899 509 899 q 372 877 412 899 q 311 817 333 854 q 289 734 289 780 q 316 650 289 683 q 385 593 342 617 q 475 546 428 569 q 566 492 523 523 q 635 415 608 462 q 662 298 662 369 q 620 141 662 211 q 505 30 577 71 q 341 -11 432 -11 z "},"Ś":{"ha":747,"x_min":35,"x_max":738,"o":"m 341 -11 q 192 22 258 -11 q 85 107 126 55 q 35 216 44 159 l 155 258 q 188 180 160 216 q 258 122 215 144 q 349 100 300 100 q 447 127 404 100 q 515 196 490 153 q 540 286 540 238 q 513 371 540 336 q 444 431 486 405 q 355 483 402 457 q 265 541 307 509 q 196 621 223 574 q 170 736 170 667 q 208 879 170 817 q 314 976 247 941 q 467 1010 381 1010 q 595 986 538 1010 q 689 922 652 962 q 738 831 726 881 l 625 789 q 597 839 618 814 q 543 882 576 865 q 463 899 509 899 q 372 877 412 899 q 311 817 333 854 q 289 734 289 780 q 316 650 289 683 q 385 593 342 617 q 475 546 428 569 q 566 492 523 523 q 635 415 608 462 q 662 298 662 369 q 620 141 662 211 q 505 30 577 71 q 341 -11 432 -11 m 526 1052 l 458 1109 l 623 1305 l 699 1230 l 526 1052 z "},"Ṥ":{"ha":747,"x_min":35,"x_max":838,"o":"m 341 -11 q 192 22 258 -11 q 85 107 126 55 q 35 216 44 159 l 155 258 q 188 180 160 216 q 258 122 215 144 q 349 100 300 100 q 447 127 404 100 q 515 196 490 153 q 540 286 540 238 q 513 371 540 336 q 444 431 486 405 q 355 483 402 457 q 265 541 307 509 q 196 621 223 574 q 170 736 170 667 q 208 879 170 817 q 314 976 247 941 q 467 1010 381 1010 q 595 986 538 1010 q 689 922 652 962 q 738 831 726 881 l 625 789 q 597 839 618 814 q 543 882 576 865 q 463 899 509 899 q 372 877 412 899 q 311 817 333 854 q 289 734 289 780 q 316 650 289 683 q 385 593 342 617 q 475 546 428 569 q 566 492 523 523 q 635 415 608 462 q 662 298 662 369 q 620 141 662 211 q 505 30 577 71 q 341 -11 432 -11 m 642 1078 l 576 1131 l 760 1364 l 838 1295 l 642 1078 m 421 1115 q 358 1141 384 1115 q 333 1203 333 1166 q 358 1265 333 1240 q 421 1291 384 1291 q 484 1265 458 1291 q 509 1203 509 1240 q 484 1141 509 1166 q 421 1115 458 1115 z "},"Š":{"ha":747,"x_min":35,"x_max":765,"o":"m 341 -11 q 192 22 258 -11 q 85 107 126 55 q 35 216 44 159 l 155 258 q 188 180 160 216 q 258 122 215 144 q 349 100 300 100 q 447 127 404 100 q 515 196 490 153 q 540 286 540 238 q 513 371 540 336 q 444 431 486 405 q 355 483 402 457 q 265 541 307 509 q 196 621 223 574 q 170 736 170 667 q 208 879 170 817 q 314 976 247 941 q 467 1010 381 1010 q 595 986 538 1010 q 689 922 652 962 q 738 831 726 881 l 625 789 q 597 839 618 814 q 543 882 576 865 q 463 899 509 899 q 372 877 412 899 q 311 817 333 854 q 289 734 289 780 q 316 650 289 683 q 385 593 342 617 q 475 546 428 569 q 566 492 523 523 q 635 415 608 462 q 662 298 662 369 q 620 141 662 211 q 505 30 577 71 q 341 -11 432 -11 m 492 1052 l 311 1208 l 373 1269 l 515 1139 l 522 1139 l 713 1269 l 765 1208 l 524 1052 l 492 1052 z "},"Ṧ":{"ha":747,"x_min":35,"x_max":765,"o":"m 341 -11 q 192 22 258 -11 q 85 107 126 55 q 35 216 44 159 l 155 258 q 188 180 160 216 q 258 122 215 144 q 349 100 300 100 q 447 127 404 100 q 515 196 490 153 q 540 286 540 238 q 513 371 540 336 q 444 431 486 405 q 355 483 402 457 q 265 541 307 509 q 196 621 223 574 q 170 736 170 667 q 208 879 170 817 q 314 976 247 941 q 467 1010 381 1010 q 595 986 538 1010 q 689 922 652 962 q 738 831 726 881 l 625 789 q 597 839 618 814 q 543 882 576 865 q 463 899 509 899 q 372 877 412 899 q 311 817 333 854 q 289 734 289 780 q 316 650 289 683 q 385 593 342 617 q 475 546 428 569 q 566 492 523 523 q 635 415 608 462 q 662 298 662 369 q 620 141 662 211 q 505 30 577 71 q 341 -11 432 -11 m 492 1052 l 311 1208 l 373 1269 l 515 1139 l 522 1139 l 713 1269 l 765 1208 l 524 1052 l 492 1052 m 565 1250 q 502 1276 528 1250 q 477 1338 477 1301 q 502 1400 477 1375 q 565 1426 528 1426 q 627 1400 602 1426 q 653 1338 653 1375 q 627 1276 653 1301 q 565 1250 602 1250 z "},"Ş":{"ha":747,"x_min":35,"x_max":738,"o":"m 341 -11 q 192 22 258 -11 q 85 107 126 55 q 35 216 44 159 l 155 258 q 188 180 160 216 q 258 122 215 144 q 349 100 300 100 q 447 127 404 100 q 515 196 490 153 q 540 286 540 238 q 513 371 540 336 q 444 431 486 405 q 355 483 402 457 q 265 541 307 509 q 196 621 223 574 q 170 736 170 667 q 208 879 170 817 q 314 976 247 941 q 467 1010 381 1010 q 595 986 538 1010 q 689 922 652 962 q 738 831 726 881 l 625 789 q 597 839 618 814 q 543 882 576 865 q 463 899 509 899 q 372 877 412 899 q 311 817 333 854 q 289 734 289 780 q 316 650 289 683 q 385 593 342 617 q 475 546 428 569 q 566 492 523 523 q 635 415 608 462 q 662 298 662 369 q 620 141 662 211 q 505 30 577 71 q 341 -11 432 -11 m 189 -315 l 196 -248 q 308 -230 266 -250 q 358 -174 351 -211 q 339 -139 363 -152 q 265 -123 316 -125 l 328 0 l 394 0 l 334 -110 l 328 -74 q 387 -89 361 -75 q 427 -130 414 -104 q 432 -195 439 -157 q 391 -266 423 -239 q 308 -304 359 -293 q 189 -315 257 -316 z "},"Ŝ":{"ha":747,"x_min":35,"x_max":751,"o":"m 341 -11 q 192 22 258 -11 q 85 107 126 55 q 35 216 44 159 l 155 258 q 188 180 160 216 q 258 122 215 144 q 349 100 300 100 q 447 127 404 100 q 515 196 490 153 q 540 286 540 238 q 513 371 540 336 q 444 431 486 405 q 355 483 402 457 q 265 541 307 509 q 196 621 223 574 q 170 736 170 667 q 208 879 170 817 q 314 976 247 941 q 467 1010 381 1010 q 595 986 538 1010 q 689 922 652 962 q 738 831 726 881 l 625 789 q 597 839 618 814 q 543 882 576 865 q 463 899 509 899 q 372 877 412 899 q 311 817 333 854 q 289 734 289 780 q 316 650 289 683 q 385 593 342 617 q 475 546 428 569 q 566 492 523 523 q 635 415 608 462 q 662 298 662 369 q 620 141 662 211 q 505 30 577 71 q 341 -11 432 -11 m 350 1052 l 298 1115 l 538 1269 l 570 1269 l 751 1115 l 688 1052 l 548 1183 l 540 1183 l 350 1052 z "},"Ș":{"ha":747,"x_min":35,"x_max":738,"o":"m 341 -11 q 192 22 258 -11 q 85 107 126 55 q 35 216 44 159 l 155 258 q 188 180 160 216 q 258 122 215 144 q 349 100 300 100 q 447 127 404 100 q 515 196 490 153 q 540 286 540 238 q 513 371 540 336 q 444 431 486 405 q 355 483 402 457 q 265 541 307 509 q 196 621 223 574 q 170 736 170 667 q 208 879 170 817 q 314 976 247 941 q 467 1010 381 1010 q 595 986 538 1010 q 689 922 652 962 q 738 831 726 881 l 625 789 q 597 839 618 814 q 543 882 576 865 q 463 899 509 899 q 372 877 412 899 q 311 817 333 854 q 289 734 289 780 q 316 650 289 683 q 385 593 342 617 q 475 546 428 569 q 566 492 523 523 q 635 415 608 462 q 662 298 662 369 q 620 141 662 211 q 505 30 577 71 q 341 -11 432 -11 m 183 -368 l 155 -330 l 229 -277 q 258 -254 244 -266 q 282 -228 273 -243 q 290 -196 291 -214 l 307 -196 q 295 -221 304 -210 q 267 -232 286 -232 q 222 -213 243 -232 q 201 -164 201 -193 q 220 -120 201 -139 q 268 -100 239 -100 q 318 -121 296 -100 q 340 -180 340 -141 q 315 -258 340 -227 q 261 -310 290 -290 l 183 -368 z "},"Ṡ":{"ha":747,"x_min":35,"x_max":738,"o":"m 341 -11 q 192 22 258 -11 q 85 107 126 55 q 35 216 44 159 l 155 258 q 188 180 160 216 q 258 122 215 144 q 349 100 300 100 q 447 127 404 100 q 515 196 490 153 q 540 286 540 238 q 513 371 540 336 q 444 431 486 405 q 355 483 402 457 q 265 541 307 509 q 196 621 223 574 q 170 736 170 667 q 208 879 170 817 q 314 976 247 941 q 467 1010 381 1010 q 595 986 538 1010 q 689 922 652 962 q 738 831 726 881 l 625 789 q 597 839 618 814 q 543 882 576 865 q 463 899 509 899 q 372 877 412 899 q 311 817 333 854 q 289 734 289 780 q 316 650 289 683 q 385 593 342 617 q 475 546 428 569 q 566 492 523 523 q 635 415 608 462 q 662 298 662 369 q 620 141 662 211 q 505 30 577 71 q 341 -11 432 -11 m 541 1069 q 478 1095 504 1069 q 453 1158 453 1121 q 478 1220 453 1194 q 541 1246 504 1246 q 604 1220 578 1246 q 629 1158 629 1194 q 604 1095 629 1121 q 541 1069 578 1069 z "},"Ṣ":{"ha":747,"x_min":35,"x_max":738,"o":"m 341 -11 q 192 22 258 -11 q 85 107 126 55 q 35 216 44 159 l 155 258 q 188 180 160 216 q 258 122 215 144 q 349 100 300 100 q 447 127 404 100 q 515 196 490 153 q 540 286 540 238 q 513 371 540 336 q 444 431 486 405 q 355 483 402 457 q 265 541 307 509 q 196 621 223 574 q 170 736 170 667 q 208 879 170 817 q 314 976 247 941 q 467 1010 381 1010 q 595 986 538 1010 q 689 922 652 962 q 738 831 726 881 l 625 789 q 597 839 618 814 q 543 882 576 865 q 463 899 509 899 q 372 877 412 899 q 311 817 333 854 q 289 734 289 780 q 316 650 289 683 q 385 593 342 617 q 475 546 428 569 q 566 492 523 523 q 635 415 608 462 q 662 298 662 369 q 620 141 662 211 q 505 30 577 71 q 341 -11 432 -11 m 265 -267 q 202 -241 228 -267 q 177 -179 177 -216 q 202 -117 177 -142 q 265 -91 228 -91 q 328 -117 302 -91 q 353 -179 353 -142 q 328 -241 353 -216 q 265 -267 302 -267 z "},"Ṩ":{"ha":747,"x_min":35,"x_max":738,"o":"m 341 -11 q 192 22 258 -11 q 85 107 126 55 q 35 216 44 159 l 155 258 q 188 180 160 216 q 258 122 215 144 q 349 100 300 100 q 447 127 404 100 q 515 196 490 153 q 540 286 540 238 q 513 371 540 336 q 444 431 486 405 q 355 483 402 457 q 265 541 307 509 q 196 621 223 574 q 170 736 170 667 q 208 879 170 817 q 314 976 247 941 q 467 1010 381 1010 q 595 986 538 1010 q 689 922 652 962 q 738 831 726 881 l 625 789 q 597 839 618 814 q 543 882 576 865 q 463 899 509 899 q 372 877 412 899 q 311 817 333 854 q 289 734 289 780 q 316 650 289 683 q 385 593 342 617 q 475 546 428 569 q 566 492 523 523 q 635 415 608 462 q 662 298 662 369 q 620 141 662 211 q 505 30 577 71 q 341 -11 432 -11 m 279 -267 q 216 -241 241 -267 q 191 -179 191 -216 q 216 -117 191 -142 q 279 -91 241 -91 q 341 -117 315 -91 q 367 -179 367 -142 q 341 -241 367 -216 q 279 -267 315 -267 m 543 1070 q 480 1096 505 1070 q 454 1158 454 1122 q 480 1221 454 1195 q 543 1246 505 1246 q 605 1221 579 1246 q 631 1158 631 1195 q 605 1096 631 1122 q 543 1070 579 1070 z "},"ẞ":{"ha":913,"x_min":37,"x_max":841,"o":"m 439 -10 q 381 -7 412 -10 q 315 5 349 -3 l 335 118 q 402 105 376 109 q 452 101 427 101 q 555 120 507 101 q 641 173 604 139 q 699 250 678 206 q 720 343 720 294 q 703 421 720 389 q 655 474 685 454 q 588 503 625 494 q 511 513 551 513 l 475 513 l 480 545 l 691 913 l 694 873 q 635 892 667 886 q 560 899 602 899 q 463 887 506 899 q 388 853 420 876 q 335 797 355 830 q 306 720 315 764 l 161 0 l 37 0 l 186 743 q 218 836 195 789 q 284 923 241 883 q 393 986 326 962 q 555 1010 459 1010 q 704 995 628 1010 q 833 954 779 980 l 833 939 l 604 543 l 563 593 q 716 565 654 596 q 810 478 779 534 q 841 349 841 422 q 810 210 841 275 q 724 95 779 144 q 596 18 669 45 q 439 -10 523 -10 z "},"T":{"ha":711,"x_min":146,"x_max":797,"o":"m 221 0 l 401 909 l 526 909 l 345 0 l 221 0 m 146 888 l 168 1000 l 797 1000 l 775 888 l 146 888 z "},"Ŧ":{"ha":711,"x_min":146,"x_max":797,"o":"m 221 0 l 401 909 l 526 909 l 345 0 l 221 0 m 146 888 l 168 1000 l 797 1000 l 775 888 l 146 888 m 176 437 l 198 530 l 579 530 l 555 437 l 176 437 z "},"Ť":{"ha":711,"x_min":146,"x_max":797,"o":"m 221 0 l 401 909 l 526 909 l 345 0 l 221 0 m 146 888 l 168 1000 l 797 1000 l 775 888 l 146 888 m 474 1052 l 293 1208 l 355 1269 l 497 1139 l 505 1139 l 696 1269 l 747 1208 l 506 1052 l 474 1052 z "},"Ţ":{"ha":711,"x_min":111,"x_max":797,"o":"m 221 0 l 401 909 l 526 909 l 345 0 l 221 0 m 146 888 l 168 1000 l 797 1000 l 775 888 l 146 888 m 111 -315 l 119 -248 q 231 -230 189 -250 q 281 -174 273 -211 q 262 -139 286 -152 q 188 -123 239 -125 l 250 0 l 317 0 l 257 -110 l 250 -74 q 310 -89 283 -75 q 349 -130 336 -104 q 355 -195 362 -157 q 314 -266 346 -239 q 231 -304 282 -293 q 111 -315 180 -316 z "},"Ț":{"ha":711,"x_min":136,"x_max":797,"o":"m 221 0 l 401 909 l 526 909 l 345 0 l 221 0 m 146 888 l 168 1000 l 797 1000 l 775 888 l 146 888 m 164 -368 l 136 -330 l 210 -277 q 239 -254 225 -266 q 263 -228 254 -243 q 271 -196 272 -214 l 288 -196 q 276 -221 286 -210 q 248 -232 267 -232 q 203 -213 224 -232 q 182 -164 182 -193 q 201 -120 182 -139 q 249 -100 220 -100 q 299 -121 277 -100 q 321 -180 321 -141 q 296 -258 321 -227 q 242 -310 271 -290 l 164 -368 z "},"Ṭ":{"ha":711,"x_min":146,"x_max":797,"o":"m 221 0 l 401 909 l 526 909 l 345 0 l 221 0 m 146 888 l 168 1000 l 797 1000 l 775 888 l 146 888 m 246 -267 q 183 -241 209 -267 q 158 -179 158 -216 q 183 -117 158 -142 q 246 -91 209 -91 q 309 -117 283 -91 q 334 -179 334 -142 q 309 -241 334 -216 q 246 -267 283 -267 z "},"Ṯ":{"ha":711,"x_min":-17,"x_max":797,"o":"m 221 0 l 401 909 l 526 909 l 345 0 l 221 0 m 146 888 l 168 1000 l 797 1000 l 775 888 l 146 888 m -17 -267 l -1 -189 l 490 -189 l 475 -267 l -17 -267 z "},"U":{"ha":928,"x_min":94,"x_max":938,"o":"m 424 -11 q 238 36 315 -11 q 128 166 161 83 q 116 361 94 250 l 243 1000 l 368 1000 l 238 349 q 243 214 222 269 q 312 130 264 159 q 425 100 360 100 q 594 169 526 100 q 686 355 662 237 l 814 1000 l 938 1000 l 808 343 q 677 83 774 176 q 424 -11 580 -11 z "},"Ú":{"ha":928,"x_min":94,"x_max":938,"o":"m 424 -11 q 238 36 315 -11 q 128 166 161 83 q 116 361 94 250 l 243 1000 l 368 1000 l 238 349 q 243 214 222 269 q 312 130 264 159 q 425 100 360 100 q 594 169 526 100 q 686 355 662 237 l 814 1000 l 938 1000 l 808 343 q 677 83 774 176 q 424 -11 580 -11 m 615 1052 l 547 1109 l 712 1305 l 787 1230 l 615 1052 z "},"Ŭ":{"ha":928,"x_min":94,"x_max":938,"o":"m 424 -11 q 238 36 315 -11 q 128 166 161 83 q 116 361 94 250 l 243 1000 l 368 1000 l 238 349 q 243 214 222 269 q 312 130 264 159 q 425 100 360 100 q 594 169 526 100 q 686 355 662 237 l 814 1000 l 938 1000 l 808 343 q 677 83 774 176 q 424 -11 580 -11 m 606 1058 q 496 1083 543 1058 q 429 1152 450 1109 q 419 1248 408 1196 l 495 1237 q 502 1178 488 1202 q 545 1143 516 1154 q 609 1131 573 1131 q 723 1163 673 1131 q 781 1248 772 1195 l 859 1237 q 811 1140 850 1180 q 717 1080 772 1101 q 606 1058 663 1059 z "},"Û":{"ha":928,"x_min":94,"x_max":938,"o":"m 424 -11 q 238 36 315 -11 q 128 166 161 83 q 116 361 94 250 l 243 1000 l 368 1000 l 238 349 q 243 214 222 269 q 312 130 264 159 q 425 100 360 100 q 594 169 526 100 q 686 355 662 237 l 814 1000 l 938 1000 l 808 343 q 677 83 774 176 q 424 -11 580 -11 m 439 1052 l 387 1115 l 627 1269 l 659 1269 l 840 1115 l 777 1052 l 637 1183 l 629 1183 l 439 1052 z "},"Ȕ":{"ha":928,"x_min":94,"x_max":938,"o":"m 424 -11 q 238 36 315 -11 q 128 166 161 83 q 116 361 94 250 l 243 1000 l 368 1000 l 238 349 q 243 214 222 269 q 312 130 264 159 q 425 100 360 100 q 594 169 526 100 q 686 355 662 237 l 814 1000 l 938 1000 l 808 343 q 677 83 774 176 q 424 -11 580 -11 m 461 1074 l 350 1290 l 443 1337 l 529 1105 l 461 1074 m 686 1074 l 581 1290 l 672 1337 l 757 1105 l 686 1074 z "},"Ü":{"ha":928,"x_min":94,"x_max":938,"o":"m 424 -11 q 238 36 315 -11 q 128 166 161 83 q 116 361 94 250 l 243 1000 l 368 1000 l 238 349 q 243 214 222 269 q 312 130 264 159 q 425 100 360 100 q 594 169 526 100 q 686 355 662 237 l 814 1000 l 938 1000 l 808 343 q 677 83 774 176 q 424 -11 580 -11 m 771 1071 q 709 1096 735 1071 q 684 1156 684 1120 q 707 1215 684 1192 q 767 1239 730 1239 q 826 1215 802 1239 q 852 1153 851 1192 q 829 1094 852 1116 q 771 1071 806 1071 m 474 1071 q 414 1096 439 1071 q 389 1156 389 1120 q 412 1215 389 1192 q 469 1239 434 1239 q 531 1213 507 1239 q 556 1152 556 1187 q 533 1095 556 1118 q 474 1071 510 1071 z "},"Ụ":{"ha":928,"x_min":94,"x_max":938,"o":"m 424 -11 q 238 36 315 -11 q 128 166 161 83 q 116 361 94 250 l 243 1000 l 368 1000 l 238 349 q 243 214 222 269 q 312 130 264 159 q 425 100 360 100 q 594 169 526 100 q 686 355 662 237 l 814 1000 l 938 1000 l 808 343 q 677 83 774 176 q 424 -11 580 -11 m 391 -267 q 329 -241 354 -267 q 303 -179 303 -216 q 329 -117 303 -142 q 391 -91 354 -91 q 454 -117 428 -91 q 479 -179 479 -142 q 454 -241 479 -216 q 391 -267 428 -267 z "},"Ù":{"ha":928,"x_min":94,"x_max":938,"o":"m 424 -11 q 238 36 315 -11 q 128 166 161 83 q 116 361 94 250 l 243 1000 l 368 1000 l 238 349 q 243 214 222 269 q 312 130 264 159 q 425 100 360 100 q 594 169 526 100 q 686 355 662 237 l 814 1000 l 938 1000 l 808 343 q 677 83 774 176 q 424 -11 580 -11 m 602 1052 l 419 1230 l 490 1305 l 666 1109 l 602 1052 z "},"Ủ":{"ha":928,"x_min":94,"x_max":938,"o":"m 424 -11 q 238 36 315 -11 q 128 166 161 83 q 116 361 94 250 l 243 1000 l 368 1000 l 238 349 q 243 214 222 269 q 312 130 264 159 q 425 100 360 100 q 594 169 526 100 q 686 355 662 237 l 814 1000 l 938 1000 l 808 343 q 677 83 774 176 q 424 -11 580 -11 m 624 1075 l 583 1128 q 635 1165 616 1144 q 660 1207 655 1187 q 651 1242 665 1230 q 606 1255 637 1255 q 561 1250 585 1255 q 519 1239 537 1245 l 529 1320 q 571 1329 550 1326 q 612 1332 591 1332 q 718 1298 687 1332 q 737 1211 748 1263 q 697 1132 728 1168 q 624 1075 665 1097 z "},"Ư":{"ha":960,"x_min":94,"x_max":1181,"o":"m 424 -11 q 238 36 315 -11 q 128 166 161 83 q 116 361 94 250 l 243 1000 l 368 1000 l 238 349 q 243 214 222 269 q 312 130 264 159 q 425 100 360 100 q 594 169 526 100 q 686 355 662 237 l 814 1000 l 938 1000 l 808 343 q 677 83 774 176 q 424 -11 580 -11 m 886 917 l 895 1000 q 1017 1039 967 1000 q 1081 1150 1066 1078 q 1085 1183 1084 1165 q 1086 1214 1086 1202 l 1178 1218 q 1179 1172 1181 1200 q 1171 1121 1177 1145 q 1135 1035 1162 1074 q 1068 969 1107 996 q 982 928 1029 942 q 886 917 935 914 z "},"Ứ":{"ha":960,"x_min":94,"x_max":1181,"o":"m 424 -11 q 238 36 315 -11 q 128 166 161 83 q 116 361 94 250 l 243 1000 l 368 1000 l 238 349 q 243 214 222 269 q 312 130 264 159 q 425 100 360 100 q 594 169 526 100 q 686 355 662 237 l 814 1000 l 938 1000 l 808 343 q 677 83 774 176 q 424 -11 580 -11 m 886 917 l 895 1000 q 1017 1039 967 1000 q 1081 1150 1066 1078 q 1085 1183 1084 1165 q 1086 1214 1086 1202 l 1178 1218 q 1179 1172 1181 1200 q 1171 1121 1177 1145 q 1135 1035 1162 1074 q 1068 969 1107 996 q 982 928 1029 942 q 886 917 935 914 m 615 1052 l 547 1109 l 712 1305 l 787 1230 l 615 1052 z "},"Ự":{"ha":960,"x_min":94,"x_max":1181,"o":"m 424 -11 q 238 36 315 -11 q 128 166 161 83 q 116 361 94 250 l 243 1000 l 368 1000 l 238 349 q 243 214 222 269 q 312 130 264 159 q 425 100 360 100 q 594 169 526 100 q 686 355 662 237 l 814 1000 l 938 1000 l 808 343 q 677 83 774 176 q 424 -11 580 -11 m 886 917 l 895 1000 q 1017 1039 967 1000 q 1081 1150 1066 1078 q 1085 1183 1084 1165 q 1086 1214 1086 1202 l 1178 1218 q 1179 1172 1181 1200 q 1171 1121 1177 1145 q 1135 1035 1162 1074 q 1068 969 1107 996 q 982 928 1029 942 q 886 917 935 914 m 391 -267 q 329 -241 354 -267 q 303 -179 303 -216 q 329 -117 303 -142 q 391 -91 354 -91 q 454 -117 428 -91 q 479 -179 479 -142 q 454 -241 479 -216 q 391 -267 428 -267 z "},"Ừ":{"ha":960,"x_min":94,"x_max":1181,"o":"m 424 -11 q 238 36 315 -11 q 128 166 161 83 q 116 361 94 250 l 243 1000 l 368 1000 l 238 349 q 243 214 222 269 q 312 130 264 159 q 425 100 360 100 q 594 169 526 100 q 686 355 662 237 l 814 1000 l 938 1000 l 808 343 q 677 83 774 176 q 424 -11 580 -11 m 886 917 l 895 1000 q 1017 1039 967 1000 q 1081 1150 1066 1078 q 1085 1183 1084 1165 q 1086 1214 1086 1202 l 1178 1218 q 1179 1172 1181 1200 q 1171 1121 1177 1145 q 1135 1035 1162 1074 q 1068 969 1107 996 q 982 928 1029 942 q 886 917 935 914 m 602 1052 l 419 1230 l 490 1305 l 666 1109 l 602 1052 z "},"Ử":{"ha":960,"x_min":94,"x_max":1181,"o":"m 424 -11 q 238 36 315 -11 q 128 166 161 83 q 116 361 94 250 l 243 1000 l 368 1000 l 238 349 q 243 214 222 269 q 312 130 264 159 q 425 100 360 100 q 594 169 526 100 q 686 355 662 237 l 814 1000 l 938 1000 l 808 343 q 677 83 774 176 q 424 -11 580 -11 m 886 917 l 895 1000 q 1017 1039 967 1000 q 1081 1150 1066 1078 q 1085 1183 1084 1165 q 1086 1214 1086 1202 l 1178 1218 q 1179 1172 1181 1200 q 1171 1121 1177 1145 q 1135 1035 1162 1074 q 1068 969 1107 996 q 982 928 1029 942 q 886 917 935 914 m 624 1075 l 583 1128 q 635 1165 616 1144 q 660 1207 655 1187 q 651 1242 665 1230 q 606 1255 637 1255 q 561 1250 585 1255 q 519 1239 537 1245 l 529 1320 q 571 1329 550 1326 q 612 1332 591 1332 q 718 1298 687 1332 q 737 1211 748 1263 q 697 1132 728 1168 q 624 1075 665 1097 z "},"Ữ":{"ha":960,"x_min":94,"x_max":1181,"o":"m 424 -11 q 238 36 315 -11 q 128 166 161 83 q 116 361 94 250 l 243 1000 l 368 1000 l 238 349 q 243 214 222 269 q 312 130 264 159 q 425 100 360 100 q 594 169 526 100 q 686 355 662 237 l 814 1000 l 938 1000 l 808 343 q 677 83 774 176 q 424 -11 580 -11 m 886 917 l 895 1000 q 1017 1039 967 1000 q 1081 1150 1066 1078 q 1085 1183 1084 1165 q 1086 1214 1086 1202 l 1178 1218 q 1179 1172 1181 1200 q 1171 1121 1177 1145 q 1135 1035 1162 1074 q 1068 969 1107 996 q 982 928 1029 942 q 886 917 935 914 m 461 1069 l 385 1081 q 441 1195 399 1152 q 541 1238 483 1238 q 599 1225 577 1238 q 635 1196 621 1213 q 662 1166 649 1179 q 694 1154 675 1154 q 750 1181 726 1154 q 781 1244 774 1208 l 860 1233 q 803 1119 845 1163 q 701 1076 761 1076 q 646 1088 667 1076 q 610 1118 625 1101 q 580 1147 595 1135 q 543 1160 565 1160 q 493 1135 516 1160 q 461 1069 471 1109 z "},"Ű":{"ha":928,"x_min":94,"x_max":943,"o":"m 424 -11 q 238 36 315 -11 q 128 166 161 83 q 116 361 94 250 l 243 1000 l 368 1000 l 238 349 q 243 214 222 269 q 312 130 264 159 q 425 100 360 100 q 594 169 526 100 q 686 355 662 237 l 814 1000 l 938 1000 l 808 343 q 677 83 774 176 q 424 -11 580 -11 m 524 1074 l 464 1105 l 642 1337 l 715 1290 l 524 1074 m 751 1074 l 693 1105 l 868 1337 l 943 1290 l 751 1074 z "},"Ȗ":{"ha":928,"x_min":94,"x_max":938,"o":"m 424 -11 q 238 36 315 -11 q 128 166 161 83 q 116 361 94 250 l 243 1000 l 368 1000 l 238 349 q 243 214 222 269 q 312 130 264 159 q 425 100 360 100 q 594 169 526 100 q 686 355 662 237 l 814 1000 l 938 1000 l 808 343 q 677 83 774 176 q 424 -11 580 -11 m 821 1049 l 745 1061 q 721 1140 755 1107 q 625 1172 687 1172 q 516 1139 562 1172 q 458 1053 470 1105 l 382 1065 q 431 1161 393 1122 q 520 1222 468 1201 q 629 1244 573 1243 q 742 1218 694 1244 q 811 1146 789 1191 q 821 1049 833 1101 z "},"Ū":{"ha":928,"x_min":94,"x_max":938,"o":"m 424 -11 q 238 36 315 -11 q 128 166 161 83 q 116 361 94 250 l 243 1000 l 368 1000 l 238 349 q 243 214 222 269 q 312 130 264 159 q 425 100 360 100 q 594 169 526 100 q 686 355 662 237 l 814 1000 l 938 1000 l 808 343 q 677 83 774 176 q 424 -11 580 -11 m 366 1110 l 382 1195 l 876 1195 l 861 1110 l 366 1110 z "},"Ṻ":{"ha":928,"x_min":94,"x_max":938,"o":"m 424 -11 q 238 36 315 -11 q 128 166 161 83 q 116 361 94 250 l 243 1000 l 368 1000 l 238 349 q 243 214 222 269 q 312 130 264 159 q 425 100 360 100 q 594 169 526 100 q 686 355 662 237 l 814 1000 l 938 1000 l 808 343 q 677 83 774 176 q 424 -11 580 -11 m 366 1110 l 382 1195 l 876 1195 l 861 1110 l 366 1110 m 810 1266 q 748 1291 774 1266 q 722 1351 722 1316 q 746 1411 722 1387 q 806 1434 769 1434 q 865 1411 840 1434 q 890 1348 890 1387 q 867 1289 890 1312 q 810 1266 844 1266 m 513 1266 q 453 1291 477 1266 q 428 1351 428 1316 q 450 1411 428 1387 q 507 1434 473 1434 q 570 1409 545 1434 q 595 1347 595 1383 q 572 1290 595 1314 q 513 1266 549 1266 z "},"Ų":{"ha":928,"x_min":94,"x_max":938,"o":"m 424 -11 q 238 36 315 -11 q 128 166 161 83 q 116 361 94 250 l 243 1000 l 368 1000 l 238 349 q 243 214 222 269 q 312 130 264 159 q 425 100 360 100 q 594 169 526 100 q 686 355 662 237 l 814 1000 l 938 1000 l 808 343 q 677 83 774 176 q 424 -11 580 -11 m 375 -275 q 289 -240 317 -275 q 272 -150 261 -204 q 330 -55 283 -97 q 440 28 376 -14 l 504 0 q 438 -49 472 -24 q 380 -100 405 -74 q 350 -153 355 -125 q 358 -188 346 -176 q 395 -200 370 -200 q 447 -190 422 -200 q 486 -174 473 -180 l 475 -254 q 426 -269 456 -263 q 375 -275 397 -275 z "},"Ů":{"ha":928,"x_min":94,"x_max":938,"o":"m 424 -11 q 238 36 315 -11 q 128 166 161 83 q 116 361 94 250 l 243 1000 l 368 1000 l 238 349 q 243 214 222 269 q 312 130 264 159 q 425 100 360 100 q 594 169 526 100 q 686 355 662 237 l 814 1000 l 938 1000 l 808 343 q 677 83 774 176 q 424 -11 580 -11 m 606 1044 q 531 1064 564 1044 q 483 1121 498 1084 q 476 1206 467 1158 q 539 1311 488 1270 q 654 1351 590 1351 q 733 1329 701 1351 q 779 1269 765 1306 q 785 1187 793 1232 q 751 1114 777 1146 q 688 1062 725 1081 q 606 1044 650 1044 m 606 1118 q 675 1144 645 1118 q 712 1208 705 1171 q 702 1257 718 1239 q 651 1276 685 1276 q 586 1250 616 1276 q 547 1185 555 1224 q 558 1137 541 1156 q 606 1118 576 1118 z "},"Ũ":{"ha":928,"x_min":94,"x_max":938,"o":"m 424 -11 q 238 36 315 -11 q 128 166 161 83 q 116 361 94 250 l 243 1000 l 368 1000 l 238 349 q 243 214 222 269 q 312 130 264 159 q 425 100 360 100 q 594 169 526 100 q 686 355 662 237 l 814 1000 l 938 1000 l 808 343 q 677 83 774 176 q 424 -11 580 -11 m 461 1069 l 385 1081 q 441 1195 399 1152 q 541 1238 483 1238 q 599 1225 577 1238 q 635 1196 621 1213 q 662 1166 649 1179 q 694 1154 675 1154 q 750 1181 726 1154 q 781 1244 774 1208 l 860 1233 q 803 1119 845 1163 q 701 1076 761 1076 q 646 1088 667 1076 q 610 1118 625 1101 q 580 1147 595 1135 q 543 1160 565 1160 q 493 1135 516 1160 q 461 1069 471 1109 z "},"Ṹ":{"ha":928,"x_min":94,"x_max":938,"o":"m 424 -11 q 238 36 315 -11 q 128 166 161 83 q 116 361 94 250 l 243 1000 l 368 1000 l 238 349 q 243 214 222 269 q 312 130 264 159 q 425 100 360 100 q 594 169 526 100 q 686 355 662 237 l 814 1000 l 938 1000 l 808 343 q 677 83 774 176 q 424 -11 580 -11 m 461 1069 l 385 1081 q 441 1195 399 1152 q 541 1238 483 1238 q 599 1225 577 1238 q 635 1196 621 1213 q 662 1166 649 1179 q 694 1154 675 1154 q 750 1181 726 1154 q 781 1244 774 1208 l 860 1233 q 803 1119 845 1163 q 701 1076 761 1076 q 646 1088 667 1076 q 610 1118 625 1101 q 580 1147 595 1135 q 543 1160 565 1160 q 493 1135 516 1160 q 461 1069 471 1109 m 660 1274 l 591 1331 l 757 1527 l 832 1452 l 660 1274 z "},"V":{"ha":944,"x_min":145,"x_max":1051,"o":"m 351 0 l 145 1000 l 273 1000 l 368 484 l 430 175 l 435 175 l 617 484 l 914 1000 l 1051 1000 l 448 0 l 351 0 z "},"W":{"ha":1276,"x_min":149,"x_max":1382,"o":"m 255 0 l 149 1000 l 271 1000 l 319 415 l 339 168 l 345 168 l 711 895 l 760 895 l 871 168 l 876 168 l 986 415 l 1253 1000 l 1382 1000 l 907 0 l 798 0 l 692 620 l 686 620 l 363 0 l 255 0 z "},"Ẃ":{"ha":1276,"x_min":149,"x_max":1382,"o":"m 255 0 l 149 1000 l 271 1000 l 319 415 l 339 168 l 345 168 l 711 895 l 760 895 l 871 168 l 876 168 l 986 415 l 1253 1000 l 1382 1000 l 907 0 l 798 0 l 692 620 l 686 620 l 363 0 l 255 0 m 782 1052 l 713 1109 l 879 1305 l 954 1230 l 782 1052 z "},"Ŵ":{"ha":1276,"x_min":149,"x_max":1382,"o":"m 255 0 l 149 1000 l 271 1000 l 319 415 l 339 168 l 345 168 l 711 895 l 760 895 l 871 168 l 876 168 l 986 415 l 1253 1000 l 1382 1000 l 907 0 l 798 0 l 692 620 l 686 620 l 363 0 l 255 0 m 606 1052 l 554 1115 l 794 1269 l 826 1269 l 1006 1115 l 944 1052 l 804 1183 l 795 1183 l 606 1052 z "},"Ẅ":{"ha":1276,"x_min":149,"x_max":1382,"o":"m 255 0 l 149 1000 l 271 1000 l 319 415 l 339 168 l 345 168 l 711 895 l 760 895 l 871 168 l 876 168 l 986 415 l 1253 1000 l 1382 1000 l 907 0 l 798 0 l 692 620 l 686 620 l 363 0 l 255 0 m 938 1071 q 876 1096 902 1071 q 850 1156 850 1120 q 874 1215 850 1192 q 934 1239 897 1239 q 993 1215 968 1239 q 1019 1153 1018 1192 q 996 1094 1019 1116 q 938 1071 972 1071 m 641 1071 q 581 1096 606 1071 q 556 1156 556 1120 q 578 1215 556 1192 q 635 1239 601 1239 q 698 1213 673 1239 q 723 1152 723 1187 q 700 1095 723 1118 q 641 1071 677 1071 z "},"Ẁ":{"ha":1276,"x_min":149,"x_max":1382,"o":"m 255 0 l 149 1000 l 271 1000 l 319 415 l 339 168 l 345 168 l 711 895 l 760 895 l 871 168 l 876 168 l 986 415 l 1253 1000 l 1382 1000 l 907 0 l 798 0 l 692 620 l 686 620 l 363 0 l 255 0 m 769 1052 l 586 1230 l 656 1305 l 833 1109 l 769 1052 z "},"X":{"ha":906,"x_min":-26,"x_max":979,"o":"m 655 0 l 475 412 l 469 412 l 404 509 l 404 513 l 174 1000 l 308 1000 l 498 583 l 503 583 l 567 494 l 567 490 l 788 0 l 655 0 m -26 0 l 404 510 l 404 514 l 494 583 l 499 583 l 829 1000 l 979 1000 l 567 494 l 567 491 l 476 412 l 472 412 l 134 0 l -26 0 z "},"Y":{"ha":841,"x_min":152,"x_max":945,"o":"m 285 0 l 373 431 l 152 1000 l 281 1000 l 378 749 l 450 549 l 456 549 l 604 749 l 791 1000 l 945 1000 l 496 423 l 410 0 l 285 0 z "},"Ý":{"ha":841,"x_min":152,"x_max":945,"o":"m 285 0 l 373 431 l 152 1000 l 281 1000 l 378 749 l 450 549 l 456 549 l 604 749 l 791 1000 l 945 1000 l 496 423 l 410 0 l 285 0 m 566 1052 l 497 1109 l 663 1305 l 738 1230 l 566 1052 z "},"Ŷ":{"ha":841,"x_min":152,"x_max":945,"o":"m 285 0 l 373 431 l 152 1000 l 281 1000 l 378 749 l 450 549 l 456 549 l 604 749 l 791 1000 l 945 1000 l 496 423 l 410 0 l 285 0 m 389 1052 l 338 1115 l 578 1269 l 610 1269 l 790 1115 l 728 1052 l 587 1183 l 579 1183 l 389 1052 z "},"Ÿ":{"ha":841,"x_min":152,"x_max":945,"o":"m 285 0 l 373 431 l 152 1000 l 281 1000 l 378 749 l 450 549 l 456 549 l 604 749 l 791 1000 l 945 1000 l 496 423 l 410 0 l 285 0 m 722 1071 q 660 1096 686 1071 q 634 1156 634 1120 q 657 1215 634 1192 q 718 1239 681 1239 q 777 1215 752 1239 q 802 1153 802 1192 q 779 1094 802 1116 q 722 1071 756 1071 m 425 1071 q 365 1096 389 1071 q 340 1156 340 1120 q 362 1215 340 1192 q 419 1239 385 1239 q 482 1213 457 1239 q 507 1152 507 1187 q 484 1095 507 1118 q 425 1071 460 1071 z "},"Ẏ":{"ha":841,"x_min":152,"x_max":945,"o":"m 285 0 l 373 431 l 152 1000 l 281 1000 l 378 749 l 450 549 l 456 549 l 604 749 l 791 1000 l 945 1000 l 496 423 l 410 0 l 285 0 m 581 1069 q 518 1095 543 1069 q 492 1158 492 1121 q 518 1220 492 1194 q 581 1246 543 1246 q 643 1220 617 1246 q 669 1158 669 1194 q 643 1095 669 1121 q 581 1069 617 1069 z "},"Ỵ":{"ha":841,"x_min":152,"x_max":945,"o":"m 285 0 l 373 431 l 152 1000 l 281 1000 l 378 749 l 450 549 l 456 549 l 604 749 l 791 1000 l 945 1000 l 496 423 l 410 0 l 285 0 m 326 -267 q 263 -241 289 -267 q 238 -179 238 -216 q 263 -117 238 -142 q 326 -91 289 -91 q 389 -117 363 -91 q 414 -179 414 -142 q 389 -241 414 -216 q 326 -267 363 -267 z "},"Ỳ":{"ha":841,"x_min":152,"x_max":945,"o":"m 285 0 l 373 431 l 152 1000 l 281 1000 l 378 749 l 450 549 l 456 549 l 604 749 l 791 1000 l 945 1000 l 496 423 l 410 0 l 285 0 m 553 1052 l 370 1230 l 440 1305 l 616 1109 l 553 1052 z "},"Ỷ":{"ha":841,"x_min":152,"x_max":945,"o":"m 285 0 l 373 431 l 152 1000 l 281 1000 l 378 749 l 450 549 l 456 549 l 604 749 l 791 1000 l 945 1000 l 496 423 l 410 0 l 285 0 m 574 1075 l 534 1128 q 586 1165 566 1144 q 610 1207 606 1187 q 602 1242 616 1230 q 556 1255 588 1255 q 511 1250 535 1255 q 470 1239 488 1245 l 479 1320 q 521 1329 500 1326 q 563 1332 542 1332 q 668 1298 637 1332 q 688 1211 699 1263 q 647 1132 679 1168 q 574 1075 616 1097 z "},"Ȳ":{"ha":841,"x_min":152,"x_max":945,"o":"m 285 0 l 373 431 l 152 1000 l 281 1000 l 378 749 l 450 549 l 456 549 l 604 749 l 791 1000 l 945 1000 l 496 423 l 410 0 l 285 0 m 317 1110 l 332 1195 l 827 1195 l 811 1110 l 317 1110 z "},"Ỹ":{"ha":841,"x_min":152,"x_max":945,"o":"m 285 0 l 373 431 l 152 1000 l 281 1000 l 378 749 l 450 549 l 456 549 l 604 749 l 791 1000 l 945 1000 l 496 423 l 410 0 l 285 0 m 412 1069 l 335 1081 q 392 1195 350 1152 q 491 1238 433 1238 q 550 1225 528 1238 q 586 1196 572 1213 q 613 1166 600 1179 q 645 1154 626 1154 q 700 1181 676 1154 q 731 1244 724 1208 l 810 1233 q 753 1119 795 1163 q 652 1076 711 1076 q 596 1088 617 1076 q 560 1118 575 1101 q 530 1147 545 1135 q 494 1160 515 1160 q 444 1135 467 1160 q 412 1069 421 1109 z "},"Z":{"ha":822,"x_min":0,"x_max":861,"o":"m 0 0 l 5 30 l 654 888 l 654 891 l 201 891 l 222 1000 l 861 1000 l 856 971 l 205 111 l 205 109 l 700 109 l 678 0 l 0 0 z "},"Ź":{"ha":822,"x_min":0,"x_max":861,"o":"m 0 0 l 5 30 l 654 888 l 654 891 l 201 891 l 222 1000 l 861 1000 l 856 971 l 205 111 l 205 109 l 700 109 l 678 0 l 0 0 m 574 1052 l 505 1109 l 671 1305 l 746 1230 l 574 1052 z "},"Ž":{"ha":822,"x_min":0,"x_max":861,"o":"m 0 0 l 5 30 l 654 888 l 654 891 l 201 891 l 222 1000 l 861 1000 l 856 971 l 205 111 l 205 109 l 700 109 l 678 0 l 0 0 m 539 1052 l 358 1208 l 420 1269 l 562 1139 l 570 1139 l 761 1269 l 812 1208 l 571 1052 l 539 1052 z "},"Ż":{"ha":822,"x_min":0,"x_max":861,"o":"m 0 0 l 5 30 l 654 888 l 654 891 l 201 891 l 222 1000 l 861 1000 l 856 971 l 205 111 l 205 109 l 700 109 l 678 0 l 0 0 m 589 1069 q 526 1095 551 1069 q 500 1158 500 1121 q 526 1220 500 1194 q 589 1246 551 1246 q 651 1220 625 1246 q 677 1158 677 1194 q 651 1095 677 1121 q 589 1069 625 1069 z "},"Ẓ":{"ha":822,"x_min":0,"x_max":861,"o":"m 0 0 l 5 30 l 654 888 l 654 891 l 201 891 l 222 1000 l 861 1000 l 856 971 l 205 111 l 205 109 l 700 109 l 678 0 l 0 0 m 315 -267 q 253 -241 278 -267 q 227 -179 227 -216 q 253 -117 227 -142 q 315 -91 278 -91 q 378 -117 352 -91 q 404 -179 404 -142 q 378 -241 404 -216 q 315 -267 352 -267 z "},"a":{"ha":793,"x_min":56,"x_max":755,"o":"m 313 -11 q 177 26 235 -11 q 88 131 119 64 q 56 286 56 198 q 81 449 56 370 q 153 592 106 528 q 263 692 199 655 q 406 730 328 730 q 539 693 483 730 q 616 595 596 656 l 580 604 l 665 604 l 612 575 l 642 719 l 755 719 l 652 202 q 645 134 643 161 q 677 95 646 107 l 635 -11 q 579 19 602 -1 q 545 64 555 38 q 539 119 534 90 l 587 99 l 486 99 l 568 151 q 455 29 520 68 q 313 -11 389 -11 m 328 98 q 432 128 385 98 q 512 208 478 158 q 564 318 546 258 q 582 439 582 379 q 541 572 582 522 q 425 621 500 621 q 320 593 366 621 q 242 516 274 564 q 193 409 210 469 q 176 288 176 350 q 216 150 176 201 q 328 98 255 98 z "},"á":{"ha":793,"x_min":56,"x_max":755,"o":"m 313 -11 q 177 26 235 -11 q 88 131 119 64 q 56 286 56 198 q 81 449 56 370 q 153 592 106 528 q 263 692 199 655 q 406 730 328 730 q 539 693 483 730 q 616 595 596 656 l 580 604 l 665 604 l 612 575 l 642 719 l 755 719 l 652 202 q 645 134 643 161 q 677 95 646 107 l 635 -11 q 579 19 602 -1 q 545 64 555 38 q 539 119 534 90 l 587 99 l 486 99 l 568 151 q 455 29 520 68 q 313 -11 389 -11 m 328 98 q 432 128 385 98 q 512 208 478 158 q 564 318 546 258 q 582 439 582 379 q 541 572 582 522 q 425 621 500 621 q 320 593 366 621 q 242 516 274 564 q 193 409 210 469 q 176 288 176 350 q 216 150 176 201 q 328 98 255 98 m 483 798 l 416 850 l 601 1083 l 679 1014 l 483 798 z "},"ă":{"ha":793,"x_min":56,"x_max":755,"o":"m 313 -11 q 177 26 235 -11 q 88 131 119 64 q 56 286 56 198 q 81 449 56 370 q 153 592 106 528 q 263 692 199 655 q 406 730 328 730 q 539 693 483 730 q 616 595 596 656 l 580 604 l 665 604 l 612 575 l 642 719 l 755 719 l 652 202 q 645 134 643 161 q 677 95 646 107 l 635 -11 q 579 19 602 -1 q 545 64 555 38 q 539 119 534 90 l 587 99 l 486 99 l 568 151 q 455 29 520 68 q 313 -11 389 -11 m 328 98 q 432 128 385 98 q 512 208 478 158 q 564 318 546 258 q 582 439 582 379 q 541 572 582 522 q 425 621 500 621 q 320 593 366 621 q 242 516 274 564 q 193 409 210 469 q 176 288 176 350 q 216 150 176 201 q 328 98 255 98 m 493 821 q 384 850 430 821 q 317 928 338 880 q 307 1035 296 977 l 385 1023 q 405 930 374 968 q 494 893 436 893 q 574 913 536 893 q 638 965 612 932 q 672 1035 665 998 l 750 1023 q 701 919 739 965 q 609 847 663 873 q 493 821 554 821 z "},"ắ":{"ha":793,"x_min":56,"x_max":755,"o":"m 313 -11 q 177 26 235 -11 q 88 131 119 64 q 56 286 56 198 q 81 449 56 370 q 153 592 106 528 q 263 692 199 655 q 406 730 328 730 q 539 693 483 730 q 616 595 596 656 l 580 604 l 665 604 l 612 575 l 642 719 l 755 719 l 652 202 q 645 134 643 161 q 677 95 646 107 l 635 -11 q 579 19 602 -1 q 545 64 555 38 q 539 119 534 90 l 587 99 l 486 99 l 568 151 q 455 29 520 68 q 313 -11 389 -11 m 328 98 q 432 128 385 98 q 512 208 478 158 q 564 318 546 258 q 582 439 582 379 q 541 572 582 522 q 425 621 500 621 q 320 593 366 621 q 242 516 274 564 q 193 409 210 469 q 176 288 176 350 q 216 150 176 201 q 328 98 255 98 m 489 951 l 422 999 l 559 1218 l 636 1154 l 489 951 m 475 821 q 366 846 414 821 q 294 915 317 871 q 281 1014 271 958 l 357 1007 q 366 947 350 973 q 412 906 381 921 q 479 892 442 892 q 585 928 539 892 q 641 1017 631 964 l 720 1008 q 674 910 709 953 q 587 844 639 868 q 475 821 536 821 z "},"ặ":{"ha":793,"x_min":56,"x_max":755,"o":"m 313 -11 q 177 26 235 -11 q 88 131 119 64 q 56 286 56 198 q 81 449 56 370 q 153 592 106 528 q 263 692 199 655 q 406 730 328 730 q 539 693 483 730 q 616 595 596 656 l 580 604 l 665 604 l 612 575 l 642 719 l 755 719 l 652 202 q 645 134 643 161 q 677 95 646 107 l 635 -11 q 579 19 602 -1 q 545 64 555 38 q 539 119 534 90 l 587 99 l 486 99 l 568 151 q 455 29 520 68 q 313 -11 389 -11 m 328 98 q 432 128 385 98 q 512 208 478 158 q 564 318 546 258 q 582 439 582 379 q 541 572 582 522 q 425 621 500 621 q 320 593 366 621 q 242 516 274 564 q 193 409 210 469 q 176 288 176 350 q 216 150 176 201 q 328 98 255 98 m 289 -267 q 226 -241 252 -267 q 201 -179 201 -216 q 226 -117 201 -142 q 289 -91 252 -91 q 351 -117 326 -91 q 377 -179 377 -142 q 351 -241 377 -216 q 289 -267 326 -267 m 493 821 q 384 850 430 821 q 317 928 338 880 q 307 1035 296 977 l 385 1023 q 405 930 374 968 q 494 893 436 893 q 574 913 536 893 q 638 965 612 932 q 672 1035 665 998 l 750 1023 q 701 919 739 965 q 609 847 663 873 q 493 821 554 821 z "},"ằ":{"ha":793,"x_min":56,"x_max":755,"o":"m 313 -11 q 177 26 235 -11 q 88 131 119 64 q 56 286 56 198 q 81 449 56 370 q 153 592 106 528 q 263 692 199 655 q 406 730 328 730 q 539 693 483 730 q 616 595 596 656 l 580 604 l 665 604 l 612 575 l 642 719 l 755 719 l 652 202 q 645 134 643 161 q 677 95 646 107 l 635 -11 q 579 19 602 -1 q 545 64 555 38 q 539 119 534 90 l 587 99 l 486 99 l 568 151 q 455 29 520 68 q 313 -11 389 -11 m 328 98 q 432 128 385 98 q 512 208 478 158 q 564 318 546 258 q 582 439 582 379 q 541 572 582 522 q 425 621 500 621 q 320 593 366 621 q 242 516 274 564 q 193 409 210 469 q 176 288 176 350 q 216 150 176 201 q 328 98 255 98 m 503 958 l 317 1136 l 386 1210 l 559 1018 l 503 958 m 473 821 q 363 846 412 821 q 292 915 315 871 q 279 1014 269 958 l 355 1007 q 363 947 348 973 q 410 906 379 921 q 477 892 440 892 q 583 928 537 892 q 639 1017 629 964 l 718 1008 q 672 910 707 953 q 585 844 637 868 q 473 821 534 821 z "},"ẳ":{"ha":793,"x_min":56,"x_max":755,"o":"m 313 -11 q 177 26 235 -11 q 88 131 119 64 q 56 286 56 198 q 81 449 56 370 q 153 592 106 528 q 263 692 199 655 q 406 730 328 730 q 539 693 483 730 q 616 595 596 656 l 580 604 l 665 604 l 612 575 l 642 719 l 755 719 l 652 202 q 645 134 643 161 q 677 95 646 107 l 635 -11 q 579 19 602 -1 q 545 64 555 38 q 539 119 534 90 l 587 99 l 486 99 l 568 151 q 455 29 520 68 q 313 -11 389 -11 m 328 98 q 432 128 385 98 q 512 208 478 158 q 564 318 546 258 q 582 439 582 379 q 541 572 582 522 q 425 621 500 621 q 320 593 366 621 q 242 516 274 564 q 193 409 210 469 q 176 288 176 350 q 216 150 176 201 q 328 98 255 98 m 496 821 q 387 846 435 821 q 315 915 338 871 q 302 1014 292 958 l 378 1007 q 387 947 371 973 q 432 906 402 921 q 500 892 463 892 q 606 928 560 892 q 662 1017 652 964 l 741 1008 q 695 910 730 953 q 608 844 660 868 q 496 821 557 821 m 496 951 l 455 1004 q 507 1041 488 1020 q 532 1083 527 1063 q 523 1118 537 1106 q 477 1131 509 1131 q 433 1126 456 1131 q 391 1115 409 1121 l 401 1196 q 443 1205 422 1202 q 484 1208 463 1208 q 589 1174 559 1208 q 609 1087 620 1139 q 569 1008 600 1044 q 496 951 537 972 z "},"ẵ":{"ha":793,"x_min":56,"x_max":779,"o":"m 313 -11 q 177 26 235 -11 q 88 131 119 64 q 56 286 56 198 q 81 449 56 370 q 153 592 106 528 q 263 692 199 655 q 406 730 328 730 q 539 693 483 730 q 616 595 596 656 l 580 604 l 665 604 l 612 575 l 642 719 l 755 719 l 652 202 q 645 134 643 161 q 677 95 646 107 l 635 -11 q 579 19 602 -1 q 545 64 555 38 q 539 119 534 90 l 587 99 l 486 99 l 568 151 q 455 29 520 68 q 313 -11 389 -11 m 328 98 q 432 128 385 98 q 512 208 478 158 q 564 318 546 258 q 582 439 582 379 q 541 572 582 522 q 425 621 500 621 q 320 593 366 621 q 242 516 274 564 q 193 409 210 469 q 176 288 176 350 q 216 150 176 201 q 328 98 255 98 m 382 1054 l 302 1063 q 358 1173 315 1133 q 458 1213 400 1213 q 514 1200 492 1213 q 552 1172 536 1188 q 584 1144 568 1156 q 618 1132 599 1132 q 669 1158 648 1132 q 697 1221 690 1183 l 779 1211 q 748 1131 771 1166 q 693 1075 726 1095 q 621 1054 660 1054 q 567 1066 589 1054 q 529 1095 545 1079 q 495 1123 512 1111 q 457 1136 479 1136 q 411 1115 431 1136 q 382 1054 391 1095 m 479 821 q 370 846 418 821 q 299 915 322 871 q 286 1014 275 958 l 361 1007 q 370 947 355 973 q 416 906 386 921 q 484 892 446 892 q 590 928 544 892 q 646 1017 635 964 l 725 1008 q 679 910 714 953 q 592 844 644 868 q 479 821 541 821 z "},"ǎ":{"ha":793,"x_min":56,"x_max":755,"o":"m 313 -11 q 177 26 235 -11 q 88 131 119 64 q 56 286 56 198 q 81 449 56 370 q 153 592 106 528 q 263 692 199 655 q 406 730 328 730 q 539 693 483 730 q 616 595 596 656 l 580 604 l 665 604 l 612 575 l 642 719 l 755 719 l 652 202 q 645 134 643 161 q 677 95 646 107 l 635 -11 q 579 19 602 -1 q 545 64 555 38 q 539 119 534 90 l 587 99 l 486 99 l 568 151 q 455 29 520 68 q 313 -11 389 -11 m 328 98 q 432 128 385 98 q 512 208 478 158 q 564 318 546 258 q 582 439 582 379 q 541 572 582 522 q 425 621 500 621 q 320 593 366 621 q 242 516 274 564 q 193 409 210 469 q 176 288 176 350 q 216 150 176 201 q 328 98 255 98 m 461 803 l 289 993 l 346 1051 l 485 893 l 490 893 l 684 1051 l 730 993 l 492 803 l 461 803 z "},"â":{"ha":793,"x_min":56,"x_max":755,"o":"m 313 -11 q 177 26 235 -11 q 88 131 119 64 q 56 286 56 198 q 81 449 56 370 q 153 592 106 528 q 263 692 199 655 q 406 730 328 730 q 539 693 483 730 q 616 595 596 656 l 580 604 l 665 604 l 612 575 l 642 719 l 755 719 l 652 202 q 645 134 643 161 q 677 95 646 107 l 635 -11 q 579 19 602 -1 q 545 64 555 38 q 539 119 534 90 l 587 99 l 486 99 l 568 151 q 455 29 520 68 q 313 -11 389 -11 m 328 98 q 432 128 385 98 q 512 208 478 158 q 564 318 546 258 q 582 439 582 379 q 541 572 582 522 q 425 621 500 621 q 320 593 366 621 q 242 516 274 564 q 193 409 210 469 q 176 288 176 350 q 216 150 176 201 q 328 98 255 98 m 318 803 l 271 861 l 508 1051 l 540 1051 l 711 861 l 655 803 l 517 961 l 511 961 l 318 803 z "},"ấ":{"ha":793,"x_min":56,"x_max":908,"o":"m 313 -11 q 177 26 235 -11 q 88 131 119 64 q 56 286 56 198 q 81 449 56 370 q 153 592 106 528 q 263 692 199 655 q 406 730 328 730 q 539 693 483 730 q 616 595 596 656 l 580 604 l 665 604 l 612 575 l 642 719 l 755 719 l 652 202 q 645 134 643 161 q 677 95 646 107 l 635 -11 q 579 19 602 -1 q 545 64 555 38 q 539 119 534 90 l 587 99 l 486 99 l 568 151 q 455 29 520 68 q 313 -11 389 -11 m 328 98 q 432 128 385 98 q 512 208 478 158 q 564 318 546 258 q 582 439 582 379 q 541 572 582 522 q 425 621 500 621 q 320 593 366 621 q 242 516 274 564 q 193 409 210 469 q 176 288 176 350 q 216 150 176 201 q 328 98 255 98 m 675 965 l 625 1011 l 859 1208 l 908 1131 l 675 965 m 317 807 l 267 868 l 504 1023 l 537 1023 l 720 868 l 656 807 l 512 936 l 508 936 l 317 807 z "},"ậ":{"ha":793,"x_min":56,"x_max":755,"o":"m 313 -11 q 177 26 235 -11 q 88 131 119 64 q 56 286 56 198 q 81 449 56 370 q 153 592 106 528 q 263 692 199 655 q 406 730 328 730 q 539 693 483 730 q 616 595 596 656 l 580 604 l 665 604 l 612 575 l 642 719 l 755 719 l 652 202 q 645 134 643 161 q 677 95 646 107 l 635 -11 q 579 19 602 -1 q 545 64 555 38 q 539 119 534 90 l 587 99 l 486 99 l 568 151 q 455 29 520 68 q 313 -11 389 -11 m 328 98 q 432 128 385 98 q 512 208 478 158 q 564 318 546 258 q 582 439 582 379 q 541 572 582 522 q 425 621 500 621 q 320 593 366 621 q 242 516 274 564 q 193 409 210 469 q 176 288 176 350 q 216 150 176 201 q 328 98 255 98 m 289 -267 q 226 -241 252 -267 q 201 -179 201 -216 q 226 -117 201 -142 q 289 -91 252 -91 q 351 -117 326 -91 q 377 -179 377 -142 q 351 -241 377 -216 q 289 -267 326 -267 m 318 803 l 271 861 l 508 1051 l 540 1051 l 711 861 l 655 803 l 517 961 l 511 961 l 318 803 z "},"ầ":{"ha":793,"x_min":56,"x_max":755,"o":"m 313 -11 q 177 26 235 -11 q 88 131 119 64 q 56 286 56 198 q 81 449 56 370 q 153 592 106 528 q 263 692 199 655 q 406 730 328 730 q 539 693 483 730 q 616 595 596 656 l 580 604 l 665 604 l 612 575 l 642 719 l 755 719 l 652 202 q 645 134 643 161 q 677 95 646 107 l 635 -11 q 579 19 602 -1 q 545 64 555 38 q 539 119 534 90 l 587 99 l 486 99 l 568 151 q 455 29 520 68 q 313 -11 389 -11 m 328 98 q 432 128 385 98 q 512 208 478 158 q 564 318 546 258 q 582 439 582 379 q 541 572 582 522 q 425 621 500 621 q 320 593 366 621 q 242 516 274 564 q 193 409 210 469 q 176 288 176 350 q 216 150 176 201 q 328 98 255 98 m 323 964 l 168 1158 l 243 1218 l 389 1006 l 323 964 m 315 807 l 265 868 l 503 1023 l 536 1023 l 718 868 l 655 807 l 511 936 l 507 936 l 315 807 z "},"ẩ":{"ha":793,"x_min":56,"x_max":783,"o":"m 313 -11 q 177 26 235 -11 q 88 131 119 64 q 56 286 56 198 q 81 449 56 370 q 153 592 106 528 q 263 692 199 655 q 406 730 328 730 q 539 693 483 730 q 616 595 596 656 l 580 604 l 665 604 l 612 575 l 642 719 l 755 719 l 652 202 q 645 134 643 161 q 677 95 646 107 l 635 -11 q 579 19 602 -1 q 545 64 555 38 q 539 119 534 90 l 587 99 l 486 99 l 568 151 q 455 29 520 68 q 313 -11 389 -11 m 328 98 q 432 128 385 98 q 512 208 478 158 q 564 318 546 258 q 582 439 582 379 q 541 572 582 522 q 425 621 500 621 q 320 593 366 621 q 242 516 274 564 q 193 409 210 469 q 176 288 176 350 q 216 150 176 201 q 328 98 255 98 m 675 957 l 619 1004 q 667 1045 648 1022 q 692 1089 687 1067 q 683 1121 696 1111 q 635 1132 670 1132 q 597 1129 620 1132 q 555 1121 574 1127 l 564 1198 q 604 1207 583 1205 q 642 1210 625 1210 q 751 1177 720 1210 q 772 1093 783 1143 q 735 1015 764 1052 q 675 957 707 979 m 317 807 l 267 868 l 504 1023 l 537 1023 l 720 868 l 656 807 l 512 936 l 508 936 l 317 807 z "},"ẫ":{"ha":793,"x_min":56,"x_max":768,"o":"m 313 -11 q 177 26 235 -11 q 88 131 119 64 q 56 286 56 198 q 81 449 56 370 q 153 592 106 528 q 263 692 199 655 q 406 730 328 730 q 539 693 483 730 q 616 595 596 656 l 580 604 l 665 604 l 612 575 l 642 719 l 755 719 l 652 202 q 645 134 643 161 q 677 95 646 107 l 635 -11 q 579 19 602 -1 q 545 64 555 38 q 539 119 534 90 l 587 99 l 486 99 l 568 151 q 455 29 520 68 q 313 -11 389 -11 m 328 98 q 432 128 385 98 q 512 208 478 158 q 564 318 546 258 q 582 439 582 379 q 541 572 582 522 q 425 621 500 621 q 320 593 366 621 q 242 516 274 564 q 193 409 210 469 q 176 288 176 350 q 216 150 176 201 q 328 98 255 98 m 369 1054 l 289 1063 q 346 1173 303 1133 q 447 1213 389 1213 q 503 1200 481 1213 q 541 1172 525 1188 q 572 1144 557 1156 q 607 1132 587 1132 q 657 1158 636 1132 q 686 1221 679 1183 l 768 1211 q 737 1131 760 1166 q 681 1075 714 1095 q 610 1054 648 1054 q 555 1066 577 1054 q 517 1095 534 1079 q 484 1123 500 1111 q 446 1136 467 1136 q 399 1115 420 1136 q 369 1054 378 1095 m 318 807 l 268 868 l 505 1023 l 538 1023 l 721 868 l 658 807 l 513 936 l 509 936 l 318 807 z "},"ȁ":{"ha":793,"x_min":56,"x_max":755,"o":"m 313 -11 q 177 26 235 -11 q 88 131 119 64 q 56 286 56 198 q 81 449 56 370 q 153 592 106 528 q 263 692 199 655 q 406 730 328 730 q 539 693 483 730 q 616 595 596 656 l 580 604 l 665 604 l 612 575 l 642 719 l 755 719 l 652 202 q 645 134 643 161 q 677 95 646 107 l 635 -11 q 579 19 602 -1 q 545 64 555 38 q 539 119 534 90 l 587 99 l 486 99 l 568 151 q 455 29 520 68 q 313 -11 389 -11 m 328 98 q 432 128 385 98 q 512 208 478 158 q 564 318 546 258 q 582 439 582 379 q 541 572 582 522 q 425 621 500 621 q 320 593 366 621 q 242 516 274 564 q 193 409 210 469 q 176 288 176 350 q 216 150 176 201 q 328 98 255 98 m 378 802 l 267 1040 l 355 1084 l 443 821 l 378 802 m 591 802 l 479 1040 l 571 1084 l 654 821 l 591 802 z "},"ä":{"ha":793,"x_min":56,"x_max":755,"o":"m 313 -11 q 177 26 235 -11 q 88 131 119 64 q 56 286 56 198 q 81 449 56 370 q 153 592 106 528 q 263 692 199 655 q 406 730 328 730 q 539 693 483 730 q 616 595 596 656 l 580 604 l 665 604 l 612 575 l 642 719 l 755 719 l 652 202 q 645 134 643 161 q 677 95 646 107 l 635 -11 q 579 19 602 -1 q 545 64 555 38 q 539 119 534 90 l 587 99 l 486 99 l 568 151 q 455 29 520 68 q 313 -11 389 -11 m 328 98 q 432 128 385 98 q 512 208 478 158 q 564 318 546 258 q 582 439 582 379 q 541 572 582 522 q 425 621 500 621 q 320 593 366 621 q 242 516 274 564 q 193 409 210 469 q 176 288 176 350 q 216 150 176 201 q 328 98 255 98 m 642 842 q 581 867 606 842 q 556 928 556 892 q 581 988 556 964 q 642 1013 606 1013 q 702 988 677 1013 q 727 928 727 964 q 702 867 727 892 q 642 842 677 842 m 370 842 q 310 867 334 842 q 285 928 285 892 q 310 988 285 964 q 370 1013 334 1013 q 431 988 406 1013 q 456 928 456 964 q 431 867 456 892 q 370 842 406 842 z "},"ȧ":{"ha":793,"x_min":56,"x_max":755,"o":"m 313 -11 q 177 26 235 -11 q 88 131 119 64 q 56 286 56 198 q 81 449 56 370 q 153 592 106 528 q 263 692 199 655 q 406 730 328 730 q 539 693 483 730 q 616 595 596 656 l 580 604 l 665 604 l 612 575 l 642 719 l 755 719 l 652 202 q 645 134 643 161 q 677 95 646 107 l 635 -11 q 579 19 602 -1 q 545 64 555 38 q 539 119 534 90 l 587 99 l 486 99 l 568 151 q 455 29 520 68 q 313 -11 389 -11 m 328 98 q 432 128 385 98 q 512 208 478 158 q 564 318 546 258 q 582 439 582 379 q 541 572 582 522 q 425 621 500 621 q 320 593 366 621 q 242 516 274 564 q 193 409 210 469 q 176 288 176 350 q 216 150 176 201 q 328 98 255 98 m 505 834 q 442 860 467 834 q 416 922 416 886 q 442 985 416 959 q 505 1010 467 1010 q 567 985 541 1010 q 593 922 593 959 q 567 860 593 886 q 505 834 541 834 z "},"ạ":{"ha":793,"x_min":56,"x_max":755,"o":"m 313 -11 q 177 26 235 -11 q 88 131 119 64 q 56 286 56 198 q 81 449 56 370 q 153 592 106 528 q 263 692 199 655 q 406 730 328 730 q 539 693 483 730 q 616 595 596 656 l 580 604 l 665 604 l 612 575 l 642 719 l 755 719 l 652 202 q 645 134 643 161 q 677 95 646 107 l 635 -11 q 579 19 602 -1 q 545 64 555 38 q 539 119 534 90 l 587 99 l 486 99 l 568 151 q 455 29 520 68 q 313 -11 389 -11 m 328 98 q 432 128 385 98 q 512 208 478 158 q 564 318 546 258 q 582 439 582 379 q 541 572 582 522 q 425 621 500 621 q 320 593 366 621 q 242 516 274 564 q 193 409 210 469 q 176 288 176 350 q 216 150 176 201 q 328 98 255 98 m 289 -267 q 226 -241 252 -267 q 201 -179 201 -216 q 226 -117 201 -142 q 289 -91 252 -91 q 351 -117 326 -91 q 377 -179 377 -142 q 351 -241 377 -216 q 289 -267 326 -267 z "},"à":{"ha":793,"x_min":56,"x_max":755,"o":"m 313 -11 q 177 26 235 -11 q 88 131 119 64 q 56 286 56 198 q 81 449 56 370 q 153 592 106 528 q 263 692 199 655 q 406 730 328 730 q 539 693 483 730 q 616 595 596 656 l 580 604 l 665 604 l 612 575 l 642 719 l 755 719 l 652 202 q 645 134 643 161 q 677 95 646 107 l 635 -11 q 579 19 602 -1 q 545 64 555 38 q 539 119 534 90 l 587 99 l 486 99 l 568 151 q 455 29 520 68 q 313 -11 389 -11 m 328 98 q 432 128 385 98 q 512 208 478 158 q 564 318 546 258 q 582 439 582 379 q 541 572 582 522 q 425 621 500 621 q 320 593 366 621 q 242 516 274 564 q 193 409 210 469 q 176 288 176 350 q 216 150 176 201 q 328 98 255 98 m 484 799 l 323 1006 l 431 1083 l 549 846 l 484 799 z "},"ả":{"ha":793,"x_min":56,"x_max":755,"o":"m 313 -11 q 177 26 235 -11 q 88 131 119 64 q 56 286 56 198 q 81 449 56 370 q 153 592 106 528 q 263 692 199 655 q 406 730 328 730 q 539 693 483 730 q 616 595 596 656 l 580 604 l 665 604 l 612 575 l 642 719 l 755 719 l 652 202 q 645 134 643 161 q 677 95 646 107 l 635 -11 q 579 19 602 -1 q 545 64 555 38 q 539 119 534 90 l 587 99 l 486 99 l 568 151 q 455 29 520 68 q 313 -11 389 -11 m 328 98 q 432 128 385 98 q 512 208 478 158 q 564 318 546 258 q 582 439 582 379 q 541 572 582 522 q 425 621 500 621 q 320 593 366 621 q 242 516 274 564 q 193 409 210 469 q 176 288 176 350 q 216 150 176 201 q 328 98 255 98 m 498 794 l 457 847 q 509 885 490 863 q 534 926 529 906 q 525 962 539 949 q 479 974 511 974 q 435 969 458 974 q 393 958 411 964 l 403 1039 q 445 1048 424 1045 q 486 1051 465 1051 q 591 1017 561 1051 q 611 930 622 983 q 571 851 602 887 q 498 794 539 816 z "},"ȃ":{"ha":793,"x_min":56,"x_max":755,"o":"m 313 -11 q 177 26 235 -11 q 88 131 119 64 q 56 286 56 198 q 81 449 56 370 q 153 592 106 528 q 263 692 199 655 q 406 730 328 730 q 539 693 483 730 q 616 595 596 656 l 580 604 l 665 604 l 612 575 l 642 719 l 755 719 l 652 202 q 645 134 643 161 q 677 95 646 107 l 635 -11 q 579 19 602 -1 q 545 64 555 38 q 539 119 534 90 l 587 99 l 486 99 l 568 151 q 455 29 520 68 q 313 -11 389 -11 m 328 98 q 432 128 385 98 q 512 208 478 158 q 564 318 546 258 q 582 439 582 379 q 541 572 582 522 q 425 621 500 621 q 320 593 366 621 q 242 516 274 564 q 193 409 210 469 q 176 288 176 350 q 216 150 176 201 q 328 98 255 98 m 712 821 l 636 832 q 616 924 648 885 q 516 964 585 964 q 406 922 450 964 q 350 822 362 880 l 272 835 q 321 942 285 897 q 410 1012 357 987 q 525 1036 463 1036 q 636 1008 589 1036 q 705 930 683 979 q 712 821 726 882 z "},"ā":{"ha":793,"x_min":56,"x_max":755,"o":"m 313 -11 q 177 26 235 -11 q 88 131 119 64 q 56 286 56 198 q 81 449 56 370 q 153 592 106 528 q 263 692 199 655 q 406 730 328 730 q 539 693 483 730 q 616 595 596 656 l 580 604 l 665 604 l 612 575 l 642 719 l 755 719 l 652 202 q 645 134 643 161 q 677 95 646 107 l 635 -11 q 579 19 602 -1 q 545 64 555 38 q 539 119 534 90 l 587 99 l 486 99 l 568 151 q 455 29 520 68 q 313 -11 389 -11 m 328 98 q 432 128 385 98 q 512 208 478 158 q 564 318 546 258 q 582 439 582 379 q 541 572 582 522 q 425 621 500 621 q 320 593 366 621 q 242 516 274 564 q 193 409 210 469 q 176 288 176 350 q 216 150 176 201 q 328 98 255 98 m 248 875 l 264 953 l 755 953 l 740 875 l 248 875 z "},"ą":{"ha":793,"x_min":56,"x_max":755,"o":"m 313 -11 q 177 26 235 -11 q 88 131 119 64 q 56 286 56 198 q 81 449 56 370 q 153 592 106 528 q 263 692 199 655 q 406 730 328 730 q 539 693 483 730 q 616 595 596 656 l 580 604 l 665 604 l 612 575 l 642 719 l 755 719 l 652 202 q 645 134 643 161 q 677 95 646 107 l 635 -11 q 579 19 602 -1 q 545 64 555 38 q 539 119 534 90 l 587 99 l 486 99 l 568 151 q 455 29 520 68 q 313 -11 389 -11 m 328 98 q 432 128 385 98 q 512 208 478 158 q 564 318 546 258 q 582 439 582 379 q 541 572 582 522 q 425 621 500 621 q 320 593 366 621 q 242 516 274 564 q 193 409 210 469 q 176 288 176 350 q 216 150 176 201 q 328 98 255 98 m 545 -277 q 459 -243 490 -277 q 438 -149 427 -209 q 470 -74 446 -106 q 524 -14 494 -41 q 582 40 555 14 l 632 -11 q 586 -58 610 -33 q 543 -108 562 -83 q 522 -157 525 -133 q 528 -183 521 -170 q 563 -196 534 -196 q 594 -192 575 -196 q 639 -175 614 -188 l 627 -260 q 588 -272 610 -267 q 545 -277 567 -277 z "},"å":{"ha":793,"x_min":56,"x_max":755,"o":"m 313 -11 q 177 26 235 -11 q 88 131 119 64 q 56 286 56 198 q 81 449 56 370 q 153 592 106 528 q 263 692 199 655 q 406 730 328 730 q 539 693 483 730 q 616 595 596 656 l 580 604 l 665 604 l 612 575 l 642 719 l 755 719 l 652 202 q 645 134 643 161 q 677 95 646 107 l 635 -11 q 579 19 602 -1 q 545 64 555 38 q 539 119 534 90 l 587 99 l 486 99 l 568 151 q 455 29 520 68 q 313 -11 389 -11 m 328 98 q 432 128 385 98 q 512 208 478 158 q 564 318 546 258 q 582 439 582 379 q 541 572 582 522 q 425 621 500 621 q 320 593 366 621 q 242 516 274 564 q 193 409 210 469 q 176 288 176 350 q 216 150 176 201 q 328 98 255 98 m 495 814 q 422 834 453 814 q 376 888 391 854 q 369 961 362 922 q 424 1055 378 1017 q 527 1092 469 1092 q 601 1071 570 1092 q 646 1017 631 1050 q 652 942 660 983 q 597 851 641 888 q 495 814 553 814 m 498 878 q 552 898 526 878 q 585 949 578 918 q 574 1004 591 979 q 523 1028 557 1028 q 468 1007 493 1028 q 436 957 442 987 q 448 902 429 926 q 498 878 467 878 z "},"ǻ":{"ha":793,"x_min":56,"x_max":766,"o":"m 495 814 q 422 834 453 814 q 376 888 391 854 q 369 961 362 922 q 424 1055 378 1017 q 527 1092 469 1092 q 601 1071 570 1092 q 646 1017 631 1050 q 652 942 660 983 q 597 851 641 888 q 495 814 553 814 m 498 878 q 552 898 526 878 q 585 949 578 918 q 574 1004 591 979 q 523 1028 557 1028 q 468 1007 493 1028 q 436 957 442 987 q 448 902 429 926 q 498 878 467 878 m 593 1122 l 525 1179 l 690 1375 l 766 1300 l 593 1122 m 313 -11 q 177 26 235 -11 q 88 131 119 64 q 56 286 56 198 q 81 449 56 370 q 153 592 106 528 q 263 692 199 655 q 406 730 328 730 q 539 693 483 730 q 616 595 596 656 l 580 604 l 665 604 l 612 575 l 642 719 l 755 719 l 652 202 q 645 134 643 161 q 677 95 646 107 l 635 -11 q 579 19 602 -1 q 545 64 555 38 q 539 119 534 90 l 587 99 l 486 99 l 568 151 q 455 29 520 68 q 313 -11 389 -11 m 328 98 q 432 128 385 98 q 512 208 478 158 q 564 318 546 258 q 582 439 582 379 q 541 572 582 522 q 425 621 500 621 q 320 593 366 621 q 242 516 274 564 q 193 409 210 469 q 176 288 176 350 q 216 150 176 201 q 328 98 255 98 z "},"ã":{"ha":793,"x_min":56,"x_max":755,"o":"m 313 -11 q 177 26 235 -11 q 88 131 119 64 q 56 286 56 198 q 81 449 56 370 q 153 592 106 528 q 263 692 199 655 q 406 730 328 730 q 539 693 483 730 q 616 595 596 656 l 580 604 l 665 604 l 612 575 l 642 719 l 755 719 l 652 202 q 645 134 643 161 q 677 95 646 107 l 635 -11 q 579 19 602 -1 q 545 64 555 38 q 539 119 534 90 l 587 99 l 486 99 l 568 151 q 455 29 520 68 q 313 -11 389 -11 m 328 98 q 432 128 385 98 q 512 208 478 158 q 564 318 546 258 q 582 439 582 379 q 541 572 582 522 q 425 621 500 621 q 320 593 366 621 q 242 516 274 564 q 193 409 210 469 q 176 288 176 350 q 216 150 176 201 q 328 98 255 98 m 338 823 l 256 829 q 295 926 270 889 q 354 980 321 963 q 423 997 387 997 q 485 983 462 997 q 522 952 507 970 q 551 920 537 934 q 587 907 566 907 q 638 933 617 907 q 671 1000 660 960 l 751 994 q 712 899 738 936 q 653 844 686 862 q 583 827 619 827 q 525 841 547 827 q 487 872 503 854 q 457 904 472 890 q 420 918 442 918 q 369 892 391 918 q 338 823 347 865 z "},"æ":{"ha":1246,"x_min":56,"x_max":1200,"o":"m 293 -11 q 119 69 181 -11 q 56 280 56 149 q 79 446 56 366 q 146 590 102 526 q 252 692 190 654 q 391 730 313 730 q 538 683 471 730 q 623 556 604 637 l 533 627 l 642 627 l 578 537 l 612 719 l 728 719 l 636 228 q 624 115 625 174 q 628 0 622 56 l 513 0 q 510 64 510 33 q 515 137 511 94 l 524 102 l 498 102 l 530 134 q 420 21 485 52 q 293 -11 355 -11 m 330 90 q 415 109 376 90 q 486 165 454 129 q 538 252 517 202 q 568 363 559 302 q 567 497 579 437 q 518 593 555 557 q 416 629 481 629 q 315 600 359 629 q 238 522 270 571 q 190 412 207 473 q 174 289 174 351 q 213 145 174 201 q 330 90 252 90 m 861 -11 q 711 26 772 -11 q 618 128 650 62 q 587 281 587 194 q 613 446 587 366 q 688 590 640 526 q 801 692 736 654 q 944 730 866 730 q 1071 697 1013 730 q 1164 603 1129 665 q 1200 453 1200 541 q 1194 382 1200 422 q 1179 315 1187 341 l 670 315 l 685 410 l 1084 410 q 1087 437 1086 424 q 1088 462 1088 450 q 1043 584 1088 544 q 933 624 998 624 q 831 594 877 624 q 751 514 785 564 q 699 405 718 465 q 681 283 681 345 q 703 180 681 222 q 765 117 724 138 q 863 95 806 95 q 972 114 916 95 q 1059 160 1028 133 l 1093 57 q 991 9 1053 30 q 861 -11 930 -11 z "},"ǽ":{"ha":1246,"x_min":56,"x_max":1200,"o":"m 293 -11 q 119 69 181 -11 q 56 280 56 149 q 79 446 56 366 q 146 590 102 526 q 252 692 190 654 q 391 730 313 730 q 538 683 471 730 q 623 556 604 637 l 533 627 l 642 627 l 578 537 l 612 719 l 728 719 l 636 228 q 624 115 625 174 q 628 0 622 56 l 513 0 q 510 64 510 33 q 515 137 511 94 l 524 102 l 498 102 l 530 134 q 420 21 485 52 q 293 -11 355 -11 m 330 90 q 415 109 376 90 q 486 165 454 129 q 538 252 517 202 q 568 363 559 302 q 567 497 579 437 q 518 593 555 557 q 416 629 481 629 q 315 600 359 629 q 238 522 270 571 q 190 412 207 473 q 174 289 174 351 q 213 145 174 201 q 330 90 252 90 m 861 -11 q 711 26 772 -11 q 618 128 650 62 q 587 281 587 194 q 613 446 587 366 q 688 590 640 526 q 801 692 736 654 q 944 730 866 730 q 1071 697 1013 730 q 1164 603 1129 665 q 1200 453 1200 541 q 1194 382 1200 422 q 1179 315 1187 341 l 670 315 l 685 410 l 1084 410 q 1087 437 1086 424 q 1088 462 1088 450 q 1043 584 1088 544 q 933 624 998 624 q 831 594 877 624 q 751 514 785 564 q 699 405 718 465 q 681 283 681 345 q 703 180 681 222 q 765 117 724 138 q 863 95 806 95 q 972 114 916 95 q 1059 160 1028 133 l 1093 57 q 991 9 1053 30 q 861 -11 930 -11 m 675 798 l 608 850 l 793 1083 l 871 1014 l 675 798 z "},"b":{"ha":806,"x_min":21,"x_max":751,"o":"m 21 0 l 231 1044 l 351 1044 l 267 631 l 280 631 l 242 570 l 162 180 l 184 118 l 158 118 l 134 0 l 21 0 m 382 -11 q 250 24 307 -11 q 161 122 193 58 q 130 276 130 186 q 156 439 130 359 q 233 586 183 520 q 349 690 282 651 q 496 730 416 730 q 628 694 570 730 q 718 593 685 659 q 751 433 751 526 q 724 270 751 349 q 648 128 697 191 q 531 27 598 64 q 382 -11 463 -11 m 374 98 q 481 126 434 98 q 563 204 529 155 q 614 311 596 252 q 631 430 631 370 q 591 571 631 520 q 472 621 551 621 q 363 593 412 621 q 277 519 313 566 q 221 414 241 472 q 201 296 201 356 q 249 150 201 202 q 374 98 297 98 z "},"c":{"ha":678,"x_min":58,"x_max":668,"o":"m 361 -8 q 204 31 272 -8 q 97 140 136 70 q 58 302 58 210 q 88 467 58 389 q 171 603 117 544 q 297 696 224 662 q 456 730 370 730 q 579 709 521 730 q 668 659 637 689 l 608 560 q 543 605 588 589 q 450 621 498 621 q 340 594 390 621 q 254 522 290 568 q 198 420 218 477 q 178 302 178 363 q 201 197 178 243 q 264 126 223 152 q 363 100 306 100 q 470 124 416 100 q 553 172 524 147 l 581 64 q 476 11 532 29 q 361 -8 420 -8 z "},"ć":{"ha":678,"x_min":58,"x_max":686,"o":"m 361 -8 q 204 31 272 -8 q 97 140 136 70 q 58 302 58 210 q 88 467 58 389 q 171 603 117 544 q 297 696 224 662 q 456 730 370 730 q 579 709 521 730 q 668 659 637 689 l 608 560 q 543 605 588 589 q 450 621 498 621 q 340 594 390 621 q 254 522 290 568 q 198 420 218 477 q 178 302 178 363 q 201 197 178 243 q 264 126 223 152 q 363 100 306 100 q 470 124 416 100 q 553 172 524 147 l 581 64 q 476 11 532 29 q 361 -8 420 -8 m 490 798 l 424 850 l 608 1083 l 686 1014 l 490 798 z "},"č":{"ha":678,"x_min":58,"x_max":738,"o":"m 361 -8 q 204 31 272 -8 q 97 140 136 70 q 58 302 58 210 q 88 467 58 389 q 171 603 117 544 q 297 696 224 662 q 456 730 370 730 q 579 709 521 730 q 668 659 637 689 l 608 560 q 543 605 588 589 q 450 621 498 621 q 340 594 390 621 q 254 522 290 568 q 198 420 218 477 q 178 302 178 363 q 201 197 178 243 q 264 126 223 152 q 363 100 306 100 q 470 124 416 100 q 553 172 524 147 l 581 64 q 476 11 532 29 q 361 -8 420 -8 m 469 803 l 296 993 l 353 1051 l 492 893 l 498 893 l 691 1051 l 738 993 l 499 803 l 469 803 z "},"ç":{"ha":678,"x_min":58,"x_max":668,"o":"m 361 -8 q 204 31 272 -8 q 97 140 136 70 q 58 302 58 210 q 88 467 58 389 q 171 603 117 544 q 297 696 224 662 q 456 730 370 730 q 579 709 521 730 q 668 659 637 689 l 608 560 q 543 605 588 589 q 450 621 498 621 q 340 594 390 621 q 254 522 290 568 q 198 420 218 477 q 178 302 178 363 q 201 197 178 243 q 264 126 223 152 q 363 100 306 100 q 470 124 416 100 q 553 172 524 147 l 581 64 q 476 11 532 29 q 361 -8 420 -8 m 168 -315 l 176 -248 q 288 -230 245 -250 q 338 -174 330 -211 q 319 -139 342 -152 q 245 -123 296 -125 l 307 0 l 374 0 l 314 -110 l 307 -74 q 367 -89 340 -75 q 406 -130 393 -104 q 412 -195 419 -157 q 371 -266 403 -239 q 288 -304 339 -293 q 168 -315 237 -316 z "},"ḉ":{"ha":678,"x_min":58,"x_max":686,"o":"m 361 -8 q 204 31 272 -8 q 97 140 136 70 q 58 302 58 210 q 88 467 58 389 q 171 603 117 544 q 297 696 224 662 q 456 730 370 730 q 579 709 521 730 q 668 659 637 689 l 608 560 q 543 605 588 589 q 450 621 498 621 q 340 594 390 621 q 254 522 290 568 q 198 420 218 477 q 178 302 178 363 q 201 197 178 243 q 264 126 223 152 q 363 100 306 100 q 470 124 416 100 q 553 172 524 147 l 581 64 q 476 11 532 29 q 361 -8 420 -8 m 168 -315 l 176 -248 q 288 -230 245 -250 q 338 -174 330 -211 q 319 -139 342 -152 q 245 -123 296 -125 l 307 0 l 374 0 l 314 -110 l 307 -74 q 367 -89 340 -75 q 406 -130 393 -104 q 412 -195 419 -157 q 371 -266 403 -239 q 288 -304 339 -293 q 168 -315 237 -316 m 490 798 l 424 850 l 608 1083 l 686 1014 l 490 798 z "},"ĉ":{"ha":678,"x_min":58,"x_max":718,"o":"m 361 -8 q 204 31 272 -8 q 97 140 136 70 q 58 302 58 210 q 88 467 58 389 q 171 603 117 544 q 297 696 224 662 q 456 730 370 730 q 579 709 521 730 q 668 659 637 689 l 608 560 q 543 605 588 589 q 450 621 498 621 q 340 594 390 621 q 254 522 290 568 q 198 420 218 477 q 178 302 178 363 q 201 197 178 243 q 264 126 223 152 q 363 100 306 100 q 470 124 416 100 q 553 172 524 147 l 581 64 q 476 11 532 29 q 361 -8 420 -8 m 326 803 l 278 861 l 515 1051 l 547 1051 l 718 861 l 663 803 l 524 961 l 518 961 l 326 803 z "},"ċ":{"ha":678,"x_min":58,"x_max":668,"o":"m 361 -8 q 204 31 272 -8 q 97 140 136 70 q 58 302 58 210 q 88 467 58 389 q 171 603 117 544 q 297 696 224 662 q 456 730 370 730 q 579 709 521 730 q 668 659 637 689 l 608 560 q 543 605 588 589 q 450 621 498 621 q 340 594 390 621 q 254 522 290 568 q 198 420 218 477 q 178 302 178 363 q 201 197 178 243 q 264 126 223 152 q 363 100 306 100 q 470 124 416 100 q 553 172 524 147 l 581 64 q 476 11 532 29 q 361 -8 420 -8 m 512 834 q 449 860 475 834 q 424 922 424 886 q 449 985 424 959 q 512 1010 475 1010 q 574 985 549 1010 q 600 922 600 959 q 574 860 600 886 q 512 834 549 834 z "},"d":{"ha":829,"x_min":58,"x_max":842,"o":"m 643 -11 q 587 29 608 9 q 560 75 567 50 q 559 133 553 100 l 587 100 l 522 100 l 574 179 l 644 532 l 625 621 l 640 621 l 724 1044 l 842 1044 l 674 201 q 670 135 666 159 q 705 94 674 110 l 643 -11 m 326 -11 q 188 29 249 -11 q 93 140 127 69 q 58 302 58 211 q 85 460 58 384 q 163 597 113 536 q 282 694 214 658 q 432 730 351 730 q 569 692 515 730 q 650 590 623 655 q 677 444 677 526 q 652 281 677 362 q 581 135 627 201 q 470 29 534 68 q 326 -11 405 -11 m 338 98 q 446 125 397 98 q 531 200 495 153 q 587 304 567 247 q 606 421 606 362 q 560 567 606 513 q 434 621 513 621 q 328 593 375 621 q 246 516 280 564 q 194 410 212 469 q 176 292 176 352 q 217 151 176 204 q 338 98 258 98 z "},"ď":{"ha":829,"x_min":58,"x_max":1036,"o":"m 643 -11 q 587 29 608 9 q 560 75 567 50 q 559 133 553 100 l 587 100 l 522 100 l 574 179 l 644 532 l 625 621 l 640 621 l 724 1044 l 842 1044 l 674 201 q 670 135 666 159 q 705 94 674 110 l 643 -11 m 326 -11 q 188 29 249 -11 q 93 140 127 69 q 58 302 58 211 q 85 460 58 384 q 163 597 113 536 q 282 694 214 658 q 432 730 351 730 q 569 692 515 730 q 650 590 623 655 q 677 444 677 526 q 652 281 677 362 q 581 135 627 201 q 470 29 534 68 q 326 -11 405 -11 m 338 98 q 446 125 397 98 q 531 200 495 153 q 587 304 567 247 q 606 421 606 362 q 560 567 606 513 q 434 621 513 621 q 328 593 375 621 q 246 516 280 564 q 194 410 212 469 q 176 292 176 352 q 217 151 176 204 q 338 98 258 98 m 870 737 l 936 1044 l 1036 1044 l 958 737 l 870 737 z "},"đ":{"ha":829,"x_min":58,"x_max":951,"o":"m 643 -11 q 587 29 608 9 q 560 75 567 50 q 559 133 553 100 l 587 100 l 522 100 l 574 179 l 644 532 l 625 621 l 640 621 l 724 1044 l 842 1044 l 674 201 q 670 135 666 159 q 705 94 674 110 l 643 -11 m 326 -11 q 188 29 249 -11 q 93 140 127 69 q 58 302 58 211 q 85 460 58 384 q 163 597 113 536 q 282 694 214 658 q 432 730 351 730 q 569 692 515 730 q 650 590 623 655 q 677 444 677 526 q 652 281 677 362 q 581 135 627 201 q 470 29 534 68 q 326 -11 405 -11 m 338 98 q 446 125 397 98 q 531 200 495 153 q 587 304 567 247 q 606 421 606 362 q 560 567 606 513 q 434 621 513 621 q 328 593 375 621 q 246 516 280 564 q 194 410 212 469 q 176 292 176 352 q 217 151 176 204 q 338 98 258 98 m 549 818 l 570 911 l 951 911 l 928 818 l 549 818 z "},"ḍ":{"ha":829,"x_min":58,"x_max":842,"o":"m 643 -11 q 587 29 608 9 q 560 75 567 50 q 559 133 553 100 l 587 100 l 522 100 l 574 179 l 644 532 l 625 621 l 640 621 l 724 1044 l 842 1044 l 674 201 q 670 135 666 159 q 705 94 674 110 l 643 -11 m 326 -11 q 188 29 249 -11 q 93 140 127 69 q 58 302 58 211 q 85 460 58 384 q 163 597 113 536 q 282 694 214 658 q 432 730 351 730 q 569 692 515 730 q 650 590 623 655 q 677 444 677 526 q 652 281 677 362 q 581 135 627 201 q 470 29 534 68 q 326 -11 405 -11 m 338 98 q 446 125 397 98 q 531 200 495 153 q 587 304 567 247 q 606 421 606 362 q 560 567 606 513 q 434 621 513 621 q 328 593 375 621 q 246 516 280 564 q 194 410 212 469 q 176 292 176 352 q 217 151 176 204 q 338 98 258 98 m 290 -267 q 228 -241 253 -267 q 202 -179 202 -216 q 228 -117 202 -142 q 290 -91 253 -91 q 353 -117 327 -91 q 378 -179 378 -142 q 353 -241 378 -216 q 290 -267 327 -267 z "},"ḏ":{"ha":829,"x_min":27,"x_max":842,"o":"m 643 -11 q 587 29 608 9 q 560 75 567 50 q 559 133 553 100 l 587 100 l 522 100 l 574 179 l 644 532 l 625 621 l 640 621 l 724 1044 l 842 1044 l 674 201 q 670 135 666 159 q 705 94 674 110 l 643 -11 m 326 -11 q 188 29 249 -11 q 93 140 127 69 q 58 302 58 211 q 85 460 58 384 q 163 597 113 536 q 282 694 214 658 q 432 730 351 730 q 569 692 515 730 q 650 590 623 655 q 677 444 677 526 q 652 281 677 362 q 581 135 627 201 q 470 29 534 68 q 326 -11 405 -11 m 338 98 q 446 125 397 98 q 531 200 495 153 q 587 304 567 247 q 606 421 606 362 q 560 567 606 513 q 434 621 513 621 q 328 593 375 621 q 246 516 280 564 q 194 410 212 469 q 176 292 176 352 q 217 151 176 204 q 338 98 258 98 m 27 -267 l 43 -189 l 534 -189 l 519 -267 l 27 -267 z "},"ǆ":{"ha":1488,"x_min":58,"x_max":1497,"o":"m 643 -11 q 587 29 608 9 q 560 75 567 50 q 559 133 553 100 l 587 100 l 522 100 l 574 179 l 644 532 l 625 621 l 640 621 l 724 1044 l 842 1044 l 674 201 q 670 135 666 159 q 705 94 674 110 l 643 -11 m 326 -11 q 188 29 249 -11 q 93 140 127 69 q 58 302 58 211 q 85 460 58 384 q 163 597 113 536 q 282 694 214 658 q 432 730 351 730 q 569 692 515 730 q 650 590 623 655 q 677 444 677 526 q 652 281 677 362 q 581 135 627 201 q 470 29 534 68 q 326 -11 405 -11 m 338 98 q 446 125 397 98 q 531 200 495 153 q 587 304 567 247 q 606 421 606 362 q 560 567 606 513 q 434 621 513 621 q 328 593 375 621 q 246 516 280 564 q 194 410 212 469 q 176 292 176 352 q 217 151 176 204 q 338 98 258 98 m 812 0 l 817 27 l 1291 608 l 1291 613 l 951 613 l 972 719 l 1497 719 l 1491 692 l 1018 111 l 1018 106 l 1378 106 l 1357 0 l 812 0 m 1228 803 l 1056 993 l 1113 1051 l 1252 893 l 1257 893 l 1451 1051 l 1497 993 l 1259 803 l 1228 803 z "},"ð":{"ha":808,"x_min":60,"x_max":787,"o":"m 362 -11 q 206 28 274 -11 q 99 138 138 68 q 60 300 60 208 q 88 449 60 378 q 164 577 115 521 q 280 666 214 633 q 425 699 347 699 q 529 683 479 699 q 614 642 578 668 q 661 582 650 615 l 640 605 l 674 605 l 655 595 q 615 738 646 674 q 538 851 585 802 q 436 938 491 901 q 323 1000 380 975 l 378 1095 q 587 954 503 1038 q 713 761 671 869 q 756 522 756 652 q 731 326 756 421 q 655 155 705 231 q 531 34 605 79 q 362 -11 458 -11 m 365 99 q 468 125 420 99 q 552 196 516 152 q 609 295 589 241 q 629 403 629 349 q 577 543 629 491 q 440 595 525 595 q 303 554 363 595 q 209 448 243 513 q 175 308 175 382 q 201 196 175 243 q 270 124 227 149 q 365 99 313 99 m 311 772 l 286 840 l 758 1096 l 787 1029 l 311 772 z "},"e":{"ha":739,"x_min":58,"x_max":694,"o":"m 353 -11 q 198 28 264 -11 q 95 137 132 67 q 58 298 58 206 q 85 459 58 382 q 162 598 112 537 q 279 694 212 659 q 427 730 347 730 q 572 691 513 730 q 663 590 632 653 q 694 451 694 526 q 690 404 694 429 q 681 354 687 378 q 668 313 675 330 l 138 313 l 155 408 l 581 408 q 586 434 585 421 q 587 458 587 446 q 543 576 587 528 q 423 624 499 624 q 319 596 366 624 q 238 523 272 569 q 185 420 203 477 q 167 303 167 363 q 217 153 167 211 q 358 95 268 95 q 458 114 410 95 q 544 164 507 134 l 582 62 q 477 10 535 31 q 353 -11 419 -11 z "},"é":{"ha":739,"x_min":58,"x_max":694,"o":"m 353 -11 q 198 28 264 -11 q 95 137 132 67 q 58 298 58 206 q 85 459 58 382 q 162 598 112 537 q 279 694 212 659 q 427 730 347 730 q 572 691 513 730 q 663 590 632 653 q 694 451 694 526 q 690 404 694 429 q 681 354 687 378 q 668 313 675 330 l 138 313 l 155 408 l 581 408 q 586 434 585 421 q 587 458 587 446 q 543 576 587 528 q 423 624 499 624 q 319 596 366 624 q 238 523 272 569 q 185 420 203 477 q 167 303 167 363 q 217 153 167 211 q 358 95 268 95 q 458 114 410 95 q 544 164 507 134 l 582 62 q 477 10 535 31 q 353 -11 419 -11 m 468 798 l 401 850 l 586 1083 l 664 1014 l 468 798 z "},"ĕ":{"ha":739,"x_min":58,"x_max":735,"o":"m 353 -11 q 198 28 264 -11 q 95 137 132 67 q 58 298 58 206 q 85 459 58 382 q 162 598 112 537 q 279 694 212 659 q 427 730 347 730 q 572 691 513 730 q 663 590 632 653 q 694 451 694 526 q 690 404 694 429 q 681 354 687 378 q 668 313 675 330 l 138 313 l 155 408 l 581 408 q 586 434 585 421 q 587 458 587 446 q 543 576 587 528 q 423 624 499 624 q 319 596 366 624 q 238 523 272 569 q 185 420 203 477 q 167 303 167 363 q 217 153 167 211 q 358 95 268 95 q 458 114 410 95 q 544 164 507 134 l 582 62 q 477 10 535 31 q 353 -11 419 -11 m 478 821 q 369 850 415 821 q 302 928 323 880 q 292 1035 281 977 l 370 1023 q 390 930 359 968 q 479 893 421 893 q 559 913 521 893 q 624 965 597 932 q 657 1035 650 998 l 735 1023 q 686 919 724 965 q 594 847 648 873 q 478 821 539 821 z "},"ě":{"ha":739,"x_min":58,"x_max":715,"o":"m 353 -11 q 198 28 264 -11 q 95 137 132 67 q 58 298 58 206 q 85 459 58 382 q 162 598 112 537 q 279 694 212 659 q 427 730 347 730 q 572 691 513 730 q 663 590 632 653 q 694 451 694 526 q 690 404 694 429 q 681 354 687 378 q 668 313 675 330 l 138 313 l 155 408 l 581 408 q 586 434 585 421 q 587 458 587 446 q 543 576 587 528 q 423 624 499 624 q 319 596 366 624 q 238 523 272 569 q 185 420 203 477 q 167 303 167 363 q 217 153 167 211 q 358 95 268 95 q 458 114 410 95 q 544 164 507 134 l 582 62 q 477 10 535 31 q 353 -11 419 -11 m 446 803 l 274 993 l 331 1051 l 470 893 l 475 893 l 669 1051 l 715 993 l 477 803 l 446 803 z "},"ḝ":{"ha":739,"x_min":58,"x_max":735,"o":"m 353 -11 q 198 28 264 -11 q 95 137 132 67 q 58 298 58 206 q 85 459 58 382 q 162 598 112 537 q 279 694 212 659 q 427 730 347 730 q 572 691 513 730 q 663 590 632 653 q 694 451 694 526 q 690 404 694 429 q 681 354 687 378 q 668 313 675 330 l 138 313 l 155 408 l 581 408 q 586 434 585 421 q 587 458 587 446 q 543 576 587 528 q 423 624 499 624 q 319 596 366 624 q 238 523 272 569 q 185 420 203 477 q 167 303 167 363 q 217 153 167 211 q 358 95 268 95 q 458 114 410 95 q 544 164 507 134 l 582 62 q 477 10 535 31 q 353 -11 419 -11 m 146 -315 l 153 -248 q 266 -230 223 -250 q 315 -174 308 -211 q 297 -139 320 -152 q 222 -123 273 -125 l 285 0 l 351 0 l 292 -110 l 285 -74 q 345 -89 318 -75 q 384 -130 371 -104 q 389 -195 397 -157 q 349 -266 380 -239 q 266 -304 317 -293 q 146 -315 214 -316 m 478 821 q 369 850 415 821 q 302 928 323 880 q 292 1035 281 977 l 370 1023 q 390 930 359 968 q 479 893 421 893 q 559 913 521 893 q 624 965 597 932 q 657 1035 650 998 l 735 1023 q 686 919 724 965 q 594 847 648 873 q 478 821 539 821 z "},"ê":{"ha":739,"x_min":58,"x_max":696,"o":"m 353 -11 q 198 28 264 -11 q 95 137 132 67 q 58 298 58 206 q 85 459 58 382 q 162 598 112 537 q 279 694 212 659 q 427 730 347 730 q 572 691 513 730 q 663 590 632 653 q 694 451 694 526 q 690 404 694 429 q 681 354 687 378 q 668 313 675 330 l 138 313 l 155 408 l 581 408 q 586 434 585 421 q 587 458 587 446 q 543 576 587 528 q 423 624 499 624 q 319 596 366 624 q 238 523 272 569 q 185 420 203 477 q 167 303 167 363 q 217 153 167 211 q 358 95 268 95 q 458 114 410 95 q 544 164 507 134 l 582 62 q 477 10 535 31 q 353 -11 419 -11 m 303 803 l 256 861 l 493 1051 l 525 1051 l 696 861 l 640 803 l 502 961 l 496 961 l 303 803 z "},"ế":{"ha":739,"x_min":58,"x_max":893,"o":"m 353 -11 q 198 28 264 -11 q 95 137 132 67 q 58 298 58 206 q 85 459 58 382 q 162 598 112 537 q 279 694 212 659 q 427 730 347 730 q 572 691 513 730 q 663 590 632 653 q 694 451 694 526 q 690 404 694 429 q 681 354 687 378 q 668 313 675 330 l 138 313 l 155 408 l 581 408 q 586 434 585 421 q 587 458 587 446 q 543 576 587 528 q 423 624 499 624 q 319 596 366 624 q 238 523 272 569 q 185 420 203 477 q 167 303 167 363 q 217 153 167 211 q 358 95 268 95 q 458 114 410 95 q 544 164 507 134 l 582 62 q 477 10 535 31 q 353 -11 419 -11 m 660 965 l 610 1011 l 844 1208 l 893 1131 l 660 965 m 302 807 l 252 868 l 489 1023 l 522 1023 l 705 868 l 642 807 l 497 936 l 493 936 l 302 807 z "},"ệ":{"ha":739,"x_min":58,"x_max":696,"o":"m 353 -11 q 198 28 264 -11 q 95 137 132 67 q 58 298 58 206 q 85 459 58 382 q 162 598 112 537 q 279 694 212 659 q 427 730 347 730 q 572 691 513 730 q 663 590 632 653 q 694 451 694 526 q 690 404 694 429 q 681 354 687 378 q 668 313 675 330 l 138 313 l 155 408 l 581 408 q 586 434 585 421 q 587 458 587 446 q 543 576 587 528 q 423 624 499 624 q 319 596 366 624 q 238 523 272 569 q 185 420 203 477 q 167 303 167 363 q 217 153 167 211 q 358 95 268 95 q 458 114 410 95 q 544 164 507 134 l 582 62 q 477 10 535 31 q 353 -11 419 -11 m 286 -267 q 223 -241 249 -267 q 198 -179 198 -216 q 223 -117 198 -142 q 286 -91 249 -91 q 349 -117 323 -91 q 374 -179 374 -142 q 349 -241 374 -216 q 286 -267 323 -267 m 303 803 l 256 861 l 493 1051 l 525 1051 l 696 861 l 640 803 l 502 961 l 496 961 l 303 803 z "},"ề":{"ha":739,"x_min":58,"x_max":703,"o":"m 353 -11 q 198 28 264 -11 q 95 137 132 67 q 58 298 58 206 q 85 459 58 382 q 162 598 112 537 q 279 694 212 659 q 427 730 347 730 q 572 691 513 730 q 663 590 632 653 q 694 451 694 526 q 690 404 694 429 q 681 354 687 378 q 668 313 675 330 l 138 313 l 155 408 l 581 408 q 586 434 585 421 q 587 458 587 446 q 543 576 587 528 q 423 624 499 624 q 319 596 366 624 q 238 523 272 569 q 185 420 203 477 q 167 303 167 363 q 217 153 167 211 q 358 95 268 95 q 458 114 410 95 q 544 164 507 134 l 582 62 q 477 10 535 31 q 353 -11 419 -11 m 309 964 l 153 1158 l 228 1218 l 374 1006 l 309 964 m 300 807 l 250 868 l 488 1023 l 521 1023 l 703 868 l 640 807 l 496 936 l 492 936 l 300 807 z "},"ể":{"ha":739,"x_min":58,"x_max":768,"o":"m 353 -11 q 198 28 264 -11 q 95 137 132 67 q 58 298 58 206 q 85 459 58 382 q 162 598 112 537 q 279 694 212 659 q 427 730 347 730 q 572 691 513 730 q 663 590 632 653 q 694 451 694 526 q 690 404 694 429 q 681 354 687 378 q 668 313 675 330 l 138 313 l 155 408 l 581 408 q 586 434 585 421 q 587 458 587 446 q 543 576 587 528 q 423 624 499 624 q 319 596 366 624 q 238 523 272 569 q 185 420 203 477 q 167 303 167 363 q 217 153 167 211 q 358 95 268 95 q 458 114 410 95 q 544 164 507 134 l 582 62 q 477 10 535 31 q 353 -11 419 -11 m 660 957 l 604 1004 q 652 1045 633 1022 q 677 1089 672 1067 q 668 1121 682 1111 q 620 1132 655 1132 q 582 1129 605 1132 q 541 1121 559 1127 l 549 1198 q 589 1207 568 1205 q 627 1210 610 1210 q 736 1177 705 1210 q 758 1093 768 1143 q 721 1015 749 1052 q 660 957 692 979 m 302 807 l 252 868 l 489 1023 l 522 1023 l 705 868 l 642 807 l 497 936 l 493 936 l 302 807 z "},"ễ":{"ha":739,"x_min":58,"x_max":753,"o":"m 353 -11 q 198 28 264 -11 q 95 137 132 67 q 58 298 58 206 q 85 459 58 382 q 162 598 112 537 q 279 694 212 659 q 427 730 347 730 q 572 691 513 730 q 663 590 632 653 q 694 451 694 526 q 690 404 694 429 q 681 354 687 378 q 668 313 675 330 l 138 313 l 155 408 l 581 408 q 586 434 585 421 q 587 458 587 446 q 543 576 587 528 q 423 624 499 624 q 319 596 366 624 q 238 523 272 569 q 185 420 203 477 q 167 303 167 363 q 217 153 167 211 q 358 95 268 95 q 458 114 410 95 q 544 164 507 134 l 582 62 q 477 10 535 31 q 353 -11 419 -11 m 354 1054 l 274 1063 q 331 1173 288 1133 q 432 1213 374 1213 q 488 1200 466 1213 q 526 1172 510 1188 q 557 1144 542 1156 q 592 1132 572 1132 q 643 1158 621 1132 q 671 1221 664 1183 l 753 1211 q 722 1131 745 1166 q 666 1075 699 1095 q 595 1054 633 1054 q 541 1066 562 1054 q 502 1095 519 1079 q 469 1123 486 1111 q 431 1136 452 1136 q 385 1115 406 1136 q 354 1054 363 1095 m 303 807 l 253 868 l 490 1023 l 524 1023 l 706 868 l 643 807 l 498 936 l 494 936 l 303 807 z "},"ȅ":{"ha":739,"x_min":58,"x_max":694,"o":"m 353 -11 q 198 28 264 -11 q 95 137 132 67 q 58 298 58 206 q 85 459 58 382 q 162 598 112 537 q 279 694 212 659 q 427 730 347 730 q 572 691 513 730 q 663 590 632 653 q 694 451 694 526 q 690 404 694 429 q 681 354 687 378 q 668 313 675 330 l 138 313 l 155 408 l 581 408 q 586 434 585 421 q 587 458 587 446 q 543 576 587 528 q 423 624 499 624 q 319 596 366 624 q 238 523 272 569 q 185 420 203 477 q 167 303 167 363 q 217 153 167 211 q 358 95 268 95 q 458 114 410 95 q 544 164 507 134 l 582 62 q 477 10 535 31 q 353 -11 419 -11 m 363 802 l 252 1040 l 340 1084 l 428 821 l 363 802 m 576 802 l 465 1040 l 556 1084 l 640 821 l 576 802 z "},"ë":{"ha":739,"x_min":58,"x_max":712,"o":"m 353 -11 q 198 28 264 -11 q 95 137 132 67 q 58 298 58 206 q 85 459 58 382 q 162 598 112 537 q 279 694 212 659 q 427 730 347 730 q 572 691 513 730 q 663 590 632 653 q 694 451 694 526 q 690 404 694 429 q 681 354 687 378 q 668 313 675 330 l 138 313 l 155 408 l 581 408 q 586 434 585 421 q 587 458 587 446 q 543 576 587 528 q 423 624 499 624 q 319 596 366 624 q 238 523 272 569 q 185 420 203 477 q 167 303 167 363 q 217 153 167 211 q 358 95 268 95 q 458 114 410 95 q 544 164 507 134 l 582 62 q 477 10 535 31 q 353 -11 419 -11 m 627 842 q 566 867 591 842 q 541 928 541 892 q 566 988 541 964 q 627 1013 591 1013 q 687 988 663 1013 q 712 928 712 964 q 687 867 712 892 q 627 842 663 842 m 355 842 q 295 867 319 842 q 270 928 270 892 q 295 988 270 964 q 355 1013 319 1013 q 416 988 391 1013 q 441 928 441 964 q 416 867 441 892 q 355 842 391 842 z "},"ė":{"ha":739,"x_min":58,"x_max":694,"o":"m 353 -11 q 198 28 264 -11 q 95 137 132 67 q 58 298 58 206 q 85 459 58 382 q 162 598 112 537 q 279 694 212 659 q 427 730 347 730 q 572 691 513 730 q 663 590 632 653 q 694 451 694 526 q 690 404 694 429 q 681 354 687 378 q 668 313 675 330 l 138 313 l 155 408 l 581 408 q 586 434 585 421 q 587 458 587 446 q 543 576 587 528 q 423 624 499 624 q 319 596 366 624 q 238 523 272 569 q 185 420 203 477 q 167 303 167 363 q 217 153 167 211 q 358 95 268 95 q 458 114 410 95 q 544 164 507 134 l 582 62 q 477 10 535 31 q 353 -11 419 -11 m 490 834 q 427 860 452 834 q 401 922 401 886 q 427 985 401 959 q 490 1010 452 1010 q 552 985 526 1010 q 578 922 578 959 q 552 860 578 886 q 490 834 526 834 z "},"ẹ":{"ha":739,"x_min":58,"x_max":694,"o":"m 353 -11 q 198 28 264 -11 q 95 137 132 67 q 58 298 58 206 q 85 459 58 382 q 162 598 112 537 q 279 694 212 659 q 427 730 347 730 q 572 691 513 730 q 663 590 632 653 q 694 451 694 526 q 690 404 694 429 q 681 354 687 378 q 668 313 675 330 l 138 313 l 155 408 l 581 408 q 586 434 585 421 q 587 458 587 446 q 543 576 587 528 q 423 624 499 624 q 319 596 366 624 q 238 523 272 569 q 185 420 203 477 q 167 303 167 363 q 217 153 167 211 q 358 95 268 95 q 458 114 410 95 q 544 164 507 134 l 582 62 q 477 10 535 31 q 353 -11 419 -11 m 286 -267 q 223 -241 249 -267 q 198 -179 198 -216 q 223 -117 198 -142 q 286 -91 249 -91 q 349 -117 323 -91 q 374 -179 374 -142 q 349 -241 374 -216 q 286 -267 323 -267 z "},"è":{"ha":739,"x_min":58,"x_max":694,"o":"m 353 -11 q 198 28 264 -11 q 95 137 132 67 q 58 298 58 206 q 85 459 58 382 q 162 598 112 537 q 279 694 212 659 q 427 730 347 730 q 572 691 513 730 q 663 590 632 653 q 694 451 694 526 q 690 404 694 429 q 681 354 687 378 q 668 313 675 330 l 138 313 l 155 408 l 581 408 q 586 434 585 421 q 587 458 587 446 q 543 576 587 528 q 423 624 499 624 q 319 596 366 624 q 238 523 272 569 q 185 420 203 477 q 167 303 167 363 q 217 153 167 211 q 358 95 268 95 q 458 114 410 95 q 544 164 507 134 l 582 62 q 477 10 535 31 q 353 -11 419 -11 m 469 799 l 309 1006 l 416 1083 l 534 846 l 469 799 z "},"ẻ":{"ha":739,"x_min":58,"x_max":694,"o":"m 353 -11 q 198 28 264 -11 q 95 137 132 67 q 58 298 58 206 q 85 459 58 382 q 162 598 112 537 q 279 694 212 659 q 427 730 347 730 q 572 691 513 730 q 663 590 632 653 q 694 451 694 526 q 690 404 694 429 q 681 354 687 378 q 668 313 675 330 l 138 313 l 155 408 l 581 408 q 586 434 585 421 q 587 458 587 446 q 543 576 587 528 q 423 624 499 624 q 319 596 366 624 q 238 523 272 569 q 185 420 203 477 q 167 303 167 363 q 217 153 167 211 q 358 95 268 95 q 458 114 410 95 q 544 164 507 134 l 582 62 q 477 10 535 31 q 353 -11 419 -11 m 483 794 l 442 847 q 494 885 475 863 q 519 926 514 906 q 510 962 524 949 q 465 974 496 974 q 420 969 444 974 q 378 958 396 964 l 388 1039 q 430 1048 409 1045 q 471 1051 450 1051 q 576 1017 546 1051 q 596 930 607 983 q 556 851 587 887 q 483 794 524 816 z "},"ȇ":{"ha":739,"x_min":58,"x_max":711,"o":"m 353 -11 q 198 28 264 -11 q 95 137 132 67 q 58 298 58 206 q 85 459 58 382 q 162 598 112 537 q 279 694 212 659 q 427 730 347 730 q 572 691 513 730 q 663 590 632 653 q 694 451 694 526 q 690 404 694 429 q 681 354 687 378 q 668 313 675 330 l 138 313 l 155 408 l 581 408 q 586 434 585 421 q 587 458 587 446 q 543 576 587 528 q 423 624 499 624 q 319 596 366 624 q 238 523 272 569 q 185 420 203 477 q 167 303 167 363 q 217 153 167 211 q 358 95 268 95 q 458 114 410 95 q 544 164 507 134 l 582 62 q 477 10 535 31 q 353 -11 419 -11 m 697 821 l 621 832 q 601 924 633 885 q 501 964 570 964 q 391 922 435 964 q 335 822 347 880 l 257 835 q 306 942 270 897 q 395 1012 342 987 q 510 1036 448 1036 q 621 1008 574 1036 q 690 930 668 979 q 697 821 711 882 z "},"ē":{"ha":739,"x_min":58,"x_max":741,"o":"m 353 -11 q 198 28 264 -11 q 95 137 132 67 q 58 298 58 206 q 85 459 58 382 q 162 598 112 537 q 279 694 212 659 q 427 730 347 730 q 572 691 513 730 q 663 590 632 653 q 694 451 694 526 q 690 404 694 429 q 681 354 687 378 q 668 313 675 330 l 138 313 l 155 408 l 581 408 q 586 434 585 421 q 587 458 587 446 q 543 576 587 528 q 423 624 499 624 q 319 596 366 624 q 238 523 272 569 q 185 420 203 477 q 167 303 167 363 q 217 153 167 211 q 358 95 268 95 q 458 114 410 95 q 544 164 507 134 l 582 62 q 477 10 535 31 q 353 -11 419 -11 m 233 875 l 249 953 l 741 953 l 725 875 l 233 875 z "},"ḗ":{"ha":739,"x_min":58,"x_max":741,"o":"m 353 -11 q 198 28 264 -11 q 95 137 132 67 q 58 298 58 206 q 85 459 58 382 q 162 598 112 537 q 279 694 212 659 q 427 730 347 730 q 572 691 513 730 q 663 590 632 653 q 694 451 694 526 q 690 404 694 429 q 681 354 687 378 q 668 313 675 330 l 138 313 l 155 408 l 581 408 q 586 434 585 421 q 587 458 587 446 q 543 576 587 528 q 423 624 499 624 q 319 596 366 624 q 238 523 272 569 q 185 420 203 477 q 167 303 167 363 q 217 153 167 211 q 358 95 268 95 q 458 114 410 95 q 544 164 507 134 l 582 62 q 477 10 535 31 q 353 -11 419 -11 m 233 875 l 249 953 l 741 953 l 725 875 l 233 875 m 513 1027 l 447 1080 l 631 1313 l 709 1244 l 513 1027 z "},"ḕ":{"ha":739,"x_min":58,"x_max":741,"o":"m 353 -11 q 198 28 264 -11 q 95 137 132 67 q 58 298 58 206 q 85 459 58 382 q 162 598 112 537 q 279 694 212 659 q 427 730 347 730 q 572 691 513 730 q 663 590 632 653 q 694 451 694 526 q 690 404 694 429 q 681 354 687 378 q 668 313 675 330 l 138 313 l 155 408 l 581 408 q 586 434 585 421 q 587 458 587 446 q 543 576 587 528 q 423 624 499 624 q 319 596 366 624 q 238 523 272 569 q 185 420 203 477 q 167 303 167 363 q 217 153 167 211 q 358 95 268 95 q 458 114 410 95 q 544 164 507 134 l 582 62 q 477 10 535 31 q 353 -11 419 -11 m 233 875 l 249 953 l 741 953 l 725 875 l 233 875 m 514 1029 l 354 1236 l 461 1313 l 579 1076 l 514 1029 z "},"ę":{"ha":739,"x_min":58,"x_max":694,"o":"m 353 -11 q 198 28 264 -11 q 95 137 132 67 q 58 298 58 206 q 85 459 58 382 q 162 598 112 537 q 279 694 212 659 q 427 730 347 730 q 572 691 513 730 q 663 590 632 653 q 694 451 694 526 q 690 404 694 429 q 681 354 687 378 q 668 313 675 330 l 138 313 l 155 408 l 581 408 q 586 434 585 421 q 587 458 587 446 q 543 576 587 528 q 423 624 499 624 q 319 596 366 624 q 238 523 272 569 q 185 420 203 477 q 167 303 167 363 q 217 153 167 211 q 358 95 268 95 q 458 114 410 95 q 544 164 507 134 l 582 62 q 477 10 535 31 q 353 -11 419 -11 m 453 -213 q 367 -177 395 -213 q 350 -87 339 -142 q 408 7 361 -35 q 518 90 454 49 l 582 62 q 516 13 550 38 q 458 -37 483 -12 q 428 -90 433 -63 q 436 -125 424 -113 q 473 -138 448 -138 q 525 -128 500 -138 q 564 -111 551 -118 l 553 -192 q 504 -207 534 -201 q 453 -213 475 -213 z "},"ẽ":{"ha":739,"x_min":58,"x_max":736,"o":"m 353 -11 q 198 28 264 -11 q 95 137 132 67 q 58 298 58 206 q 85 459 58 382 q 162 598 112 537 q 279 694 212 659 q 427 730 347 730 q 572 691 513 730 q 663 590 632 653 q 694 451 694 526 q 690 404 694 429 q 681 354 687 378 q 668 313 675 330 l 138 313 l 155 408 l 581 408 q 586 434 585 421 q 587 458 587 446 q 543 576 587 528 q 423 624 499 624 q 319 596 366 624 q 238 523 272 569 q 185 420 203 477 q 167 303 167 363 q 217 153 167 211 q 358 95 268 95 q 458 114 410 95 q 544 164 507 134 l 582 62 q 477 10 535 31 q 353 -11 419 -11 m 323 823 l 241 829 q 280 926 255 889 q 339 980 306 963 q 408 997 372 997 q 470 983 447 997 q 507 952 492 970 q 536 920 522 934 q 572 907 551 907 q 624 933 602 907 q 656 1000 645 960 l 736 994 q 697 899 723 936 q 638 844 671 862 q 568 827 604 827 q 510 841 532 827 q 472 872 488 854 q 442 904 457 890 q 406 918 427 918 q 354 892 376 918 q 323 823 332 865 z "},"ə":{"ha":739,"x_min":45,"x_max":682,"o":"m 387 730 q 541 691 475 730 q 645 582 608 652 q 682 421 682 513 q 654 259 682 337 q 577 121 627 182 q 460 25 528 60 q 312 -11 393 -11 q 167 27 227 -11 q 77 129 108 66 q 45 268 45 193 q 49 315 45 290 q 58 365 52 341 q 71 406 64 389 l 601 406 l 585 311 l 158 311 q 154 285 155 298 q 152 260 152 273 q 196 143 152 191 q 316 95 240 95 q 420 122 373 95 q 502 196 467 150 q 554 299 536 242 q 572 416 572 356 q 522 566 572 509 q 381 624 472 624 q 281 605 329 624 q 195 555 233 585 l 157 656 q 262 709 204 688 q 387 730 321 730 z "},"f":{"ha":505,"x_min":-79,"x_max":604,"o":"m -32 -277 q -56 -276 -43 -277 q -79 -272 -68 -275 l -69 -165 q -55 -168 -62 -168 q -43 -168 -48 -168 q 38 -139 6 -168 q 83 -50 71 -111 l 262 848 q 351 1002 282 949 q 503 1055 420 1055 q 553 1051 528 1055 q 604 1036 578 1046 l 558 930 q 529 942 544 938 q 500 946 513 946 q 423 917 456 946 q 378 833 389 888 l 199 -66 q 112 -226 177 -176 q -32 -277 46 -277 m 96 613 l 117 719 l 530 719 l 509 613 l 96 613 z "},"g":{"ha":811,"x_min":7,"x_max":790,"o":"m 293 -297 q 181 -284 237 -297 q 79 -251 125 -271 q 7 -206 33 -230 l 52 -99 q 114 -142 75 -121 q 202 -177 154 -163 q 297 -191 251 -191 q 406 -165 358 -191 q 485 -92 453 -140 q 531 19 517 -45 l 546 87 l 523 87 l 565 170 l 638 530 l 617 601 l 652 601 l 677 719 l 790 719 l 646 11 q 578 -154 627 -85 q 456 -260 529 -222 q 293 -297 384 -297 m 325 -11 q 189 27 250 -11 q 94 134 129 65 q 58 297 58 203 q 86 456 58 379 q 163 595 113 534 q 281 693 214 657 q 431 730 349 730 q 559 698 504 730 q 646 603 614 666 q 677 446 677 540 q 652 282 677 363 q 580 135 627 201 q 469 29 534 68 q 325 -11 404 -11 m 348 96 q 456 125 408 96 q 538 201 504 153 q 590 306 572 248 q 608 424 608 364 q 560 572 608 524 q 438 621 513 621 q 331 594 379 621 q 249 520 283 566 q 197 416 215 473 q 178 298 178 358 q 221 152 178 208 q 348 96 264 96 z "},"ǵ":{"ha":811,"x_min":7,"x_max":790,"o":"m 293 -297 q 181 -284 237 -297 q 79 -251 125 -271 q 7 -206 33 -230 l 52 -99 q 114 -142 75 -121 q 202 -177 154 -163 q 297 -191 251 -191 q 406 -165 358 -191 q 485 -92 453 -140 q 531 19 517 -45 l 546 87 l 523 87 l 565 170 l 638 530 l 617 601 l 652 601 l 677 719 l 790 719 l 646 11 q 578 -154 627 -85 q 456 -260 529 -222 q 293 -297 384 -297 m 325 -11 q 189 27 250 -11 q 94 134 129 65 q 58 297 58 203 q 86 456 58 379 q 163 595 113 534 q 281 693 214 657 q 431 730 349 730 q 559 698 504 730 q 646 603 614 666 q 677 446 677 540 q 652 282 677 363 q 580 135 627 201 q 469 29 534 68 q 325 -11 404 -11 m 348 96 q 456 125 408 96 q 538 201 504 153 q 590 306 572 248 q 608 424 608 364 q 560 572 608 524 q 438 621 513 621 q 331 594 379 621 q 249 520 283 566 q 197 416 215 473 q 178 298 178 358 q 221 152 178 208 q 348 96 264 96 m 488 798 l 421 850 l 606 1083 l 684 1014 l 488 798 z "},"ğ":{"ha":811,"x_min":7,"x_max":790,"o":"m 293 -297 q 181 -284 237 -297 q 79 -251 125 -271 q 7 -206 33 -230 l 52 -99 q 114 -142 75 -121 q 202 -177 154 -163 q 297 -191 251 -191 q 406 -165 358 -191 q 485 -92 453 -140 q 531 19 517 -45 l 546 87 l 523 87 l 565 170 l 638 530 l 617 601 l 652 601 l 677 719 l 790 719 l 646 11 q 578 -154 627 -85 q 456 -260 529 -222 q 293 -297 384 -297 m 325 -11 q 189 27 250 -11 q 94 134 129 65 q 58 297 58 203 q 86 456 58 379 q 163 595 113 534 q 281 693 214 657 q 431 730 349 730 q 559 698 504 730 q 646 603 614 666 q 677 446 677 540 q 652 282 677 363 q 580 135 627 201 q 469 29 534 68 q 325 -11 404 -11 m 348 96 q 456 125 408 96 q 538 201 504 153 q 590 306 572 248 q 608 424 608 364 q 560 572 608 524 q 438 621 513 621 q 331 594 379 621 q 249 520 283 566 q 197 416 215 473 q 178 298 178 358 q 221 152 178 208 q 348 96 264 96 m 498 821 q 389 850 435 821 q 321 928 342 880 q 311 1035 300 977 l 389 1023 q 410 930 378 968 q 499 893 441 893 q 578 913 541 893 q 643 965 616 932 q 677 1035 670 998 l 755 1023 q 706 919 744 965 q 613 847 668 873 q 498 821 559 821 z "},"ǧ":{"ha":811,"x_min":7,"x_max":790,"o":"m 293 -297 q 181 -284 237 -297 q 79 -251 125 -271 q 7 -206 33 -230 l 52 -99 q 114 -142 75 -121 q 202 -177 154 -163 q 297 -191 251 -191 q 406 -165 358 -191 q 485 -92 453 -140 q 531 19 517 -45 l 546 87 l 523 87 l 565 170 l 638 530 l 617 601 l 652 601 l 677 719 l 790 719 l 646 11 q 578 -154 627 -85 q 456 -260 529 -222 q 293 -297 384 -297 m 325 -11 q 189 27 250 -11 q 94 134 129 65 q 58 297 58 203 q 86 456 58 379 q 163 595 113 534 q 281 693 214 657 q 431 730 349 730 q 559 698 504 730 q 646 603 614 666 q 677 446 677 540 q 652 282 677 363 q 580 135 627 201 q 469 29 534 68 q 325 -11 404 -11 m 348 96 q 456 125 408 96 q 538 201 504 153 q 590 306 572 248 q 608 424 608 364 q 560 572 608 524 q 438 621 513 621 q 331 594 379 621 q 249 520 283 566 q 197 416 215 473 q 178 298 178 358 q 221 152 178 208 q 348 96 264 96 m 466 803 l 294 993 l 351 1051 l 490 893 l 495 893 l 688 1051 l 735 993 l 496 803 l 466 803 z "},"ĝ":{"ha":811,"x_min":7,"x_max":790,"o":"m 293 -297 q 181 -284 237 -297 q 79 -251 125 -271 q 7 -206 33 -230 l 52 -99 q 114 -142 75 -121 q 202 -177 154 -163 q 297 -191 251 -191 q 406 -165 358 -191 q 485 -92 453 -140 q 531 19 517 -45 l 546 87 l 523 87 l 565 170 l 638 530 l 617 601 l 652 601 l 677 719 l 790 719 l 646 11 q 578 -154 627 -85 q 456 -260 529 -222 q 293 -297 384 -297 m 325 -11 q 189 27 250 -11 q 94 134 129 65 q 58 297 58 203 q 86 456 58 379 q 163 595 113 534 q 281 693 214 657 q 431 730 349 730 q 559 698 504 730 q 646 603 614 666 q 677 446 677 540 q 652 282 677 363 q 580 135 627 201 q 469 29 534 68 q 325 -11 404 -11 m 348 96 q 456 125 408 96 q 538 201 504 153 q 590 306 572 248 q 608 424 608 364 q 560 572 608 524 q 438 621 513 621 q 331 594 379 621 q 249 520 283 566 q 197 416 215 473 q 178 298 178 358 q 221 152 178 208 q 348 96 264 96 m 323 803 l 275 861 l 513 1051 l 545 1051 l 715 861 l 660 803 l 522 961 l 515 961 l 323 803 z "},"ģ":{"ha":811,"x_min":7,"x_max":790,"o":"m 293 -297 q 181 -284 237 -297 q 79 -251 125 -271 q 7 -206 33 -230 l 52 -99 q 114 -142 75 -121 q 202 -177 154 -163 q 297 -191 251 -191 q 406 -165 358 -191 q 485 -92 453 -140 q 531 19 517 -45 l 546 87 l 523 87 l 565 170 l 638 530 l 617 601 l 652 601 l 677 719 l 790 719 l 646 11 q 578 -154 627 -85 q 456 -260 529 -222 q 293 -297 384 -297 m 325 -11 q 189 27 250 -11 q 94 134 129 65 q 58 297 58 203 q 86 456 58 379 q 163 595 113 534 q 281 693 214 657 q 431 730 349 730 q 559 698 504 730 q 646 603 614 666 q 677 446 677 540 q 652 282 677 363 q 580 135 627 201 q 469 29 534 68 q 325 -11 404 -11 m 348 96 q 456 125 408 96 q 538 201 504 153 q 590 306 572 248 q 608 424 608 364 q 560 572 608 524 q 438 621 513 621 q 331 594 379 621 q 249 520 283 566 q 197 416 215 473 q 178 298 178 358 q 221 152 178 208 q 348 96 264 96 m 581 1089 l 609 1050 l 535 998 q 506 976 521 987 q 483 949 492 964 q 474 917 473 935 l 458 917 q 469 942 460 930 q 498 953 478 953 q 542 933 521 953 q 563 885 563 914 q 544 841 563 860 q 496 821 526 821 q 446 842 469 821 q 424 901 424 862 q 449 979 424 947 q 503 1031 474 1011 l 581 1089 z "},"ġ":{"ha":811,"x_min":7,"x_max":790,"o":"m 293 -297 q 181 -284 237 -297 q 79 -251 125 -271 q 7 -206 33 -230 l 52 -99 q 114 -142 75 -121 q 202 -177 154 -163 q 297 -191 251 -191 q 406 -165 358 -191 q 485 -92 453 -140 q 531 19 517 -45 l 546 87 l 523 87 l 565 170 l 638 530 l 617 601 l 652 601 l 677 719 l 790 719 l 646 11 q 578 -154 627 -85 q 456 -260 529 -222 q 293 -297 384 -297 m 325 -11 q 189 27 250 -11 q 94 134 129 65 q 58 297 58 203 q 86 456 58 379 q 163 595 113 534 q 281 693 214 657 q 431 730 349 730 q 559 698 504 730 q 646 603 614 666 q 677 446 677 540 q 652 282 677 363 q 580 135 627 201 q 469 29 534 68 q 325 -11 404 -11 m 348 96 q 456 125 408 96 q 538 201 504 153 q 590 306 572 248 q 608 424 608 364 q 560 572 608 524 q 438 621 513 621 q 331 594 379 621 q 249 520 283 566 q 197 416 215 473 q 178 298 178 358 q 221 152 178 208 q 348 96 264 96 m 509 834 q 447 860 472 834 q 421 922 421 886 q 447 985 421 959 q 509 1010 472 1010 q 572 985 546 1010 q 597 922 597 959 q 572 860 597 886 q 509 834 546 834 z "},"ḡ":{"ha":811,"x_min":7,"x_max":790,"o":"m 293 -297 q 181 -284 237 -297 q 79 -251 125 -271 q 7 -206 33 -230 l 52 -99 q 114 -142 75 -121 q 202 -177 154 -163 q 297 -191 251 -191 q 406 -165 358 -191 q 485 -92 453 -140 q 531 19 517 -45 l 546 87 l 523 87 l 565 170 l 638 530 l 617 601 l 652 601 l 677 719 l 790 719 l 646 11 q 578 -154 627 -85 q 456 -260 529 -222 q 293 -297 384 -297 m 325 -11 q 189 27 250 -11 q 94 134 129 65 q 58 297 58 203 q 86 456 58 379 q 163 595 113 534 q 281 693 214 657 q 431 730 349 730 q 559 698 504 730 q 646 603 614 666 q 677 446 677 540 q 652 282 677 363 q 580 135 627 201 q 469 29 534 68 q 325 -11 404 -11 m 348 96 q 456 125 408 96 q 538 201 504 153 q 590 306 572 248 q 608 424 608 364 q 560 572 608 524 q 438 621 513 621 q 331 594 379 621 q 249 520 283 566 q 197 416 215 473 q 178 298 178 358 q 221 152 178 208 q 348 96 264 96 m 253 875 l 269 953 l 760 953 l 745 875 l 253 875 z "},"h":{"ha":755,"x_min":21,"x_max":684,"o":"m 606 -11 q 526 33 553 7 q 494 96 500 60 q 498 182 488 133 l 547 433 q 537 574 566 526 q 438 623 509 623 q 345 600 389 623 q 270 536 300 577 q 227 439 239 495 l 140 0 l 21 0 l 229 1044 l 347 1044 l 271 655 l 286 655 l 216 576 q 316 689 251 649 q 465 730 381 730 q 603 688 553 730 q 668 583 652 647 q 670 452 684 519 l 618 191 q 612 122 609 142 q 647 95 614 102 l 606 -11 z "},"ħ":{"ha":755,"x_min":21,"x_max":684,"o":"m 606 -11 q 526 33 553 7 q 494 96 500 60 q 498 182 488 133 l 547 433 q 537 574 566 526 q 438 623 509 623 q 345 600 389 623 q 270 536 300 577 q 227 439 239 495 l 140 0 l 21 0 l 229 1044 l 347 1044 l 271 655 l 286 655 l 216 576 q 316 689 251 649 q 465 730 381 730 q 603 688 553 730 q 668 583 652 647 q 670 452 684 519 l 618 191 q 612 122 609 142 q 647 95 614 102 l 606 -11 m 50 819 l 72 912 l 453 912 l 429 819 l 50 819 z "},"ḫ":{"ha":755,"x_min":21,"x_max":684,"o":"m 606 -11 q 526 33 553 7 q 494 96 500 60 q 498 182 488 133 l 547 433 q 537 574 566 526 q 438 623 509 623 q 345 600 389 623 q 270 536 300 577 q 227 439 239 495 l 140 0 l 21 0 l 229 1044 l 347 1044 l 271 655 l 286 655 l 216 576 q 316 689 251 649 q 465 730 381 730 q 603 688 553 730 q 668 583 652 647 q 670 452 684 519 l 618 191 q 612 122 609 142 q 647 95 614 102 l 606 -11 m 281 -289 q 172 -259 218 -289 q 105 -181 126 -230 q 95 -75 84 -132 l 173 -86 q 193 -179 162 -142 q 283 -216 224 -216 q 362 -197 324 -216 q 427 -144 400 -177 q 460 -75 454 -112 l 538 -86 q 490 -190 528 -144 q 397 -262 452 -236 q 281 -289 342 -289 z "},"ĥ":{"ha":755,"x_min":21,"x_max":684,"o":"m 606 -11 q 526 33 553 7 q 494 96 500 60 q 498 182 488 133 l 547 433 q 537 574 566 526 q 438 623 509 623 q 345 600 389 623 q 270 536 300 577 q 227 439 239 495 l 140 0 l 21 0 l 229 1044 l 347 1044 l 271 655 l 286 655 l 216 576 q 316 689 251 649 q 465 730 381 730 q 603 688 553 730 q 668 583 652 647 q 670 452 684 519 l 618 191 q 612 122 609 142 q 647 95 614 102 l 606 -11 m 134 1069 l 82 1132 l 322 1286 l 354 1286 l 534 1132 l 472 1069 l 332 1200 l 323 1200 l 134 1069 z "},"ḥ":{"ha":755,"x_min":21,"x_max":684,"o":"m 606 -11 q 526 33 553 7 q 494 96 500 60 q 498 182 488 133 l 547 433 q 537 574 566 526 q 438 623 509 623 q 345 600 389 623 q 270 536 300 577 q 227 439 239 495 l 140 0 l 21 0 l 229 1044 l 347 1044 l 271 655 l 286 655 l 216 576 q 316 689 251 649 q 465 730 381 730 q 603 688 553 730 q 668 583 652 647 q 670 452 684 519 l 618 191 q 612 122 609 142 q 647 95 614 102 l 606 -11 m 289 -267 q 226 -241 252 -267 q 201 -179 201 -216 q 226 -117 201 -142 q 289 -91 252 -91 q 351 -117 326 -91 q 377 -179 377 -142 q 351 -241 377 -216 q 289 -267 326 -267 z "},"i":{"ha":373,"x_min":64,"x_max":366,"o":"m 216 -11 q 113 28 146 -1 q 71 99 79 56 q 75 197 64 142 l 178 719 l 296 719 l 189 172 q 193 130 183 145 q 220 108 202 115 q 259 98 239 101 l 216 -11 m 278 834 q 215 860 241 834 q 190 922 190 886 q 215 985 190 959 q 278 1010 241 1010 q 340 985 315 1010 q 366 922 366 959 q 340 860 366 886 q 278 834 315 834 z "},"ı":{"ha":373,"x_min":64,"x_max":296,"o":"m 216 -11 q 113 28 146 -1 q 71 99 79 56 q 75 197 64 142 l 178 719 l 296 719 l 189 172 q 193 130 183 145 q 220 108 202 115 q 259 98 239 101 l 216 -11 z "},"í":{"ha":373,"x_min":64,"x_max":452,"o":"m 216 -11 q 113 28 146 -1 q 71 99 79 56 q 75 197 64 142 l 178 719 l 296 719 l 189 172 q 193 130 183 145 q 220 108 202 115 q 259 98 239 101 l 216 -11 m 256 798 l 190 850 l 374 1083 l 452 1014 l 256 798 z "},"ĭ":{"ha":373,"x_min":64,"x_max":524,"o":"m 216 -11 q 113 28 146 -1 q 71 99 79 56 q 75 197 64 142 l 178 719 l 296 719 l 189 172 q 193 130 183 145 q 220 108 202 115 q 259 98 239 101 l 216 -11 m 267 821 q 157 850 203 821 q 90 928 111 880 q 80 1035 69 977 l 158 1023 q 178 930 147 968 q 268 893 210 893 q 347 913 309 893 q 412 965 385 932 q 446 1035 439 998 l 524 1023 q 475 919 513 965 q 382 847 437 873 q 267 821 328 821 z "},"ǐ":{"ha":453,"x_min":102,"x_max":544,"o":"m 256 -11 q 153 28 186 -1 q 111 99 119 56 q 115 197 104 142 l 218 719 l 336 719 l 229 172 q 233 130 223 145 q 260 108 242 115 q 299 98 279 101 l 256 -11 m 275 803 l 102 993 l 159 1051 l 298 893 l 304 893 l 497 1051 l 544 993 l 305 803 l 275 803 z "},"î":{"ha":373,"x_min":44,"x_max":484,"o":"m 216 -11 q 113 28 146 -1 q 71 99 79 56 q 75 197 64 142 l 178 719 l 296 719 l 189 172 q 193 130 183 145 q 220 108 202 115 q 259 98 239 101 l 216 -11 m 92 803 l 44 861 l 281 1051 l 313 1051 l 484 861 l 429 803 l 290 961 l 284 961 l 92 803 z "},"ȉ":{"ha":373,"x_min":40,"x_max":428,"o":"m 216 -11 q 113 28 146 -1 q 71 99 79 56 q 75 197 64 142 l 178 719 l 296 719 l 189 172 q 193 130 183 145 q 220 108 202 115 q 259 98 239 101 l 216 -11 m 151 802 l 40 1040 l 129 1084 l 216 821 l 151 802 m 364 802 l 253 1040 l 345 1084 l 428 821 l 364 802 z "},"ï":{"ha":373,"x_min":58,"x_max":500,"o":"m 216 -11 q 113 28 146 -1 q 71 99 79 56 q 75 197 64 142 l 178 719 l 296 719 l 189 172 q 193 130 183 145 q 220 108 202 115 q 259 98 239 101 l 216 -11 m 415 842 q 354 867 379 842 q 330 928 330 892 q 354 988 330 964 q 415 1013 379 1013 q 476 988 451 1013 q 500 928 500 964 q 476 867 500 892 q 415 842 451 842 m 144 842 q 83 867 108 842 q 58 928 58 892 q 83 988 58 964 q 144 1013 108 1013 q 204 988 180 1013 q 229 928 229 964 q 204 867 229 892 q 144 842 180 842 z "},"ḯ":{"ha":373,"x_min":58,"x_max":500,"o":"m 216 -11 q 113 28 146 -1 q 71 99 79 56 q 75 197 64 142 l 178 719 l 296 719 l 189 172 q 193 130 183 145 q 220 108 202 115 q 259 98 239 101 l 216 -11 m 415 842 q 354 867 379 842 q 330 928 330 892 q 354 988 330 964 q 415 1013 379 1013 q 476 988 451 1013 q 500 928 500 964 q 476 867 500 892 q 415 842 451 842 m 144 842 q 83 867 108 842 q 58 928 58 892 q 83 988 58 964 q 144 1013 108 1013 q 204 988 180 1013 q 229 928 229 964 q 204 867 229 892 q 144 842 180 842 m 304 1042 l 237 1094 l 422 1327 l 500 1258 l 304 1042 z "},"ị":{"ha":373,"x_min":9,"x_max":366,"o":"m 216 -11 q 113 28 146 -1 q 71 99 79 56 q 75 197 64 142 l 178 719 l 296 719 l 189 172 q 193 130 183 145 q 220 108 202 115 q 259 98 239 101 l 216 -11 m 278 834 q 215 860 241 834 q 190 922 190 886 q 215 985 190 959 q 278 1010 241 1010 q 340 985 315 1010 q 366 922 366 959 q 340 860 366 886 q 278 834 315 834 m 98 -267 q 35 -241 60 -267 q 9 -179 9 -216 q 35 -117 9 -142 q 98 -91 60 -91 q 160 -117 134 -91 q 186 -179 186 -142 q 160 -241 186 -216 q 98 -267 134 -267 z "},"ì":{"ha":373,"x_min":64,"x_max":322,"o":"m 216 -11 q 113 28 146 -1 q 71 99 79 56 q 75 197 64 142 l 178 719 l 296 719 l 189 172 q 193 130 183 145 q 220 108 202 115 q 259 98 239 101 l 216 -11 m 257 799 l 97 1006 l 204 1083 l 322 846 l 257 799 z "},"ỉ":{"ha":373,"x_min":64,"x_max":395,"o":"m 216 -11 q 113 28 146 -1 q 71 99 79 56 q 75 197 64 142 l 178 719 l 296 719 l 189 172 q 193 130 183 145 q 220 108 202 115 q 259 98 239 101 l 216 -11 m 271 794 l 231 847 q 283 885 263 863 q 307 926 302 906 q 299 962 313 949 q 253 974 285 974 q 208 969 232 974 q 167 958 184 964 l 176 1039 q 218 1048 197 1045 q 260 1051 239 1051 q 365 1017 334 1051 q 385 930 395 983 q 344 851 376 887 q 271 794 313 816 z "},"ȋ":{"ha":373,"x_min":45,"x_max":500,"o":"m 216 -11 q 113 28 146 -1 q 71 99 79 56 q 75 197 64 142 l 178 719 l 296 719 l 189 172 q 193 130 183 145 q 220 108 202 115 q 259 98 239 101 l 216 -11 m 486 821 l 410 832 q 390 924 421 885 q 290 964 358 964 q 180 922 224 964 q 123 822 136 880 l 45 835 q 95 942 58 897 q 184 1012 131 987 q 298 1036 237 1036 q 409 1008 362 1036 q 478 930 456 979 q 486 821 500 882 z "},"ī":{"ha":373,"x_min":54,"x_max":485,"o":"m 216 -11 q 113 28 146 -1 q 71 99 79 56 q 75 197 64 142 l 178 719 l 296 719 l 189 172 q 193 130 183 145 q 220 108 202 115 q 259 98 239 101 l 216 -11 m 54 875 l 67 953 l 485 953 l 472 875 l 54 875 z "},"į":{"ha":373,"x_min":9,"x_max":366,"o":"m 216 -11 q 113 28 146 -1 q 71 99 79 56 q 75 197 64 142 l 178 719 l 296 719 l 189 172 q 193 130 183 145 q 220 108 202 115 q 259 98 239 101 l 216 -11 m 278 834 q 215 860 241 834 q 190 922 190 886 q 215 985 190 959 q 278 1010 241 1010 q 340 985 315 1010 q 366 922 366 959 q 340 860 366 886 q 278 834 315 834 m 127 -277 q 40 -243 72 -277 q 20 -149 9 -209 q 52 -74 28 -106 q 106 -14 75 -41 q 163 40 136 14 l 214 -11 q 168 -58 192 -33 q 125 -108 143 -83 q 104 -157 106 -133 q 109 -183 102 -170 q 144 -196 116 -196 q 176 -192 157 -196 q 220 -175 195 -188 l 208 -260 q 170 -272 191 -267 q 127 -277 149 -277 z "},"ĩ":{"ha":373,"x_min":30,"x_max":524,"o":"m 216 -11 q 113 28 146 -1 q 71 99 79 56 q 75 197 64 142 l 178 719 l 296 719 l 189 172 q 193 130 183 145 q 220 108 202 115 q 259 98 239 101 l 216 -11 m 112 823 l 30 829 q 69 926 43 889 q 127 980 94 963 q 197 997 161 997 q 258 983 235 997 q 296 952 281 970 q 325 920 311 934 q 361 907 339 907 q 412 933 391 907 q 444 1000 433 960 l 524 994 q 486 899 511 936 q 426 844 460 862 q 357 827 393 827 q 298 841 320 827 q 261 872 276 854 q 231 904 245 890 q 194 918 216 918 q 143 892 165 918 q 112 823 121 865 z "},"j":{"ha":334,"x_min":-164,"x_max":383,"o":"m -81 -297 q -133 -292 -109 -297 q -164 -285 -158 -287 l -142 -176 q -114 -183 -129 -181 q -88 -186 -99 -186 q -7 -158 -40 -186 q 37 -77 26 -130 l 195 719 l 314 719 l 152 -98 q 111 -196 142 -151 q 32 -269 80 -241 q -81 -297 -17 -297 m 295 834 q 232 860 258 834 q 207 922 207 886 q 232 985 207 959 q 295 1010 258 1010 q 357 985 332 1010 q 383 922 383 959 q 357 860 383 886 q 295 834 332 834 z "},"ȷ":{"ha":334,"x_min":-164,"x_max":314,"o":"m -81 -297 q -133 -292 -109 -297 q -164 -285 -158 -287 l -142 -176 q -114 -183 -129 -181 q -88 -186 -99 -186 q -7 -158 -40 -186 q 37 -77 26 -130 l 195 719 l 314 719 l 152 -98 q 111 -196 142 -151 q 32 -269 80 -241 q -81 -297 -17 -297 z "},"ĵ":{"ha":385,"x_min":-164,"x_max":501,"o":"m -81 -297 q -133 -292 -109 -297 q -164 -285 -158 -287 l -142 -176 q -114 -183 -129 -181 q -88 -186 -99 -186 q -7 -158 -40 -186 q 37 -77 26 -130 l 195 719 l 314 719 l 152 -98 q 111 -196 142 -151 q 32 -269 80 -241 q -81 -297 -17 -297 m 109 803 l 61 861 l 298 1051 l 330 1051 l 501 861 l 446 803 l 307 961 l 301 961 l 109 803 z "},"k":{"ha":722,"x_min":21,"x_max":734,"o":"m 21 0 l 229 1044 l 347 1044 l 224 416 l 288 416 l 249 399 l 574 719 l 734 719 l 341 342 l 332 404 l 621 0 l 486 0 l 230 363 l 265 327 l 206 327 l 140 0 l 21 0 z "},"ķ":{"ha":722,"x_min":21,"x_max":734,"o":"m 21 0 l 229 1044 l 347 1044 l 224 416 l 288 416 l 249 399 l 574 719 l 734 719 l 341 342 l 332 404 l 621 0 l 486 0 l 230 363 l 265 327 l 206 327 l 140 0 l 21 0 m 177 -368 l 149 -330 l 223 -277 q 252 -254 238 -266 q 276 -228 267 -243 q 284 -196 285 -214 l 300 -196 q 289 -221 298 -210 q 260 -232 280 -232 q 216 -213 237 -232 q 195 -164 195 -193 q 214 -120 195 -139 q 262 -100 233 -100 q 312 -121 290 -100 q 334 -180 334 -141 q 309 -258 334 -227 q 255 -310 284 -290 l 177 -368 z "},"ĸ":{"ha":693,"x_min":18,"x_max":721,"o":"m 18 0 l 162 719 l 281 719 l 218 407 l 267 407 l 215 384 l 572 719 l 721 719 l 298 336 l 309 404 l 592 0 l 455 0 l 210 353 l 250 330 l 203 330 l 137 0 l 18 0 z "},"l":{"ha":362,"x_min":43,"x_max":349,"o":"m 181 -9 q 100 11 133 -9 q 55 70 68 31 q 54 164 43 109 l 231 1044 l 349 1044 l 173 165 q 212 102 161 102 q 241 105 227 102 q 262 111 256 109 l 248 0 q 216 -7 233 -4 q 181 -9 199 -9 z "},"ĺ":{"ha":362,"x_min":43,"x_max":505,"o":"m 181 -9 q 100 11 133 -9 q 55 70 68 31 q 54 164 43 109 l 231 1044 l 349 1044 l 173 165 q 212 102 161 102 q 241 105 227 102 q 262 111 256 109 l 248 0 q 216 -7 233 -4 q 181 -9 199 -9 m 309 1123 l 242 1175 l 427 1409 l 505 1339 l 309 1123 z "},"ľ":{"ha":406,"x_min":43,"x_max":542,"o":"m 181 -9 q 100 11 133 -9 q 55 70 68 31 q 54 164 43 109 l 231 1044 l 349 1044 l 173 165 q 212 102 161 102 q 241 105 227 102 q 262 111 256 109 l 248 0 q 216 -7 233 -4 q 181 -9 199 -9 m 376 737 l 442 1044 l 542 1044 l 464 737 l 376 737 z "},"ļ":{"ha":362,"x_min":-26,"x_max":349,"o":"m 181 -9 q 100 11 133 -9 q 55 70 68 31 q 54 164 43 109 l 231 1044 l 349 1044 l 173 165 q 212 102 161 102 q 241 105 227 102 q 262 111 256 109 l 248 0 q 216 -7 233 -4 q 181 -9 199 -9 m 1 -368 l -26 -330 l 47 -277 q 77 -254 62 -266 q 100 -228 91 -243 q 109 -196 109 -214 l 125 -196 q 114 -221 123 -210 q 85 -232 104 -232 q 41 -213 62 -232 q 20 -164 20 -193 q 38 -120 20 -139 q 86 -100 57 -100 q 136 -121 114 -100 q 159 -180 159 -141 q 134 -258 159 -227 q 79 -310 109 -290 l 1 -368 z "},"ŀ":{"ha":471,"x_min":43,"x_max":519,"o":"m 181 -9 q 100 11 133 -9 q 55 70 68 31 q 54 164 43 109 l 231 1044 l 349 1044 l 173 165 q 212 102 161 102 q 241 105 227 102 q 262 111 256 109 l 248 0 q 216 -7 233 -4 q 181 -9 199 -9 m 431 421 q 368 447 394 421 q 342 509 342 473 q 368 572 342 546 q 431 597 394 597 q 493 572 467 597 q 519 509 519 546 q 493 447 519 473 q 431 421 467 421 z "}}}
